%TF.GenerationSoftware,KiCad,Pcbnew,9.0.6*%
%TF.CreationDate,2026-09-04T19:29:02+02:00*%
%TF.ProjectId,PTP_Seminarski_Rad_Lego_Auto_Josip_Bosnic,5054505f-5365-46d6-996e-6172736b695f,1.0*%
%TF.SameCoordinates,Original*%
%TF.FileFunction,Legend,Top*%
%TF.FilePolarity,Positive*%
%FSLAX46Y46*%
G04 Gerber Fmt 4.6, Leading zero omitted, Abs format (unit mm)*
G04 Created by KiCad (PCBNEW 9.0.6) date 2026-09-04 19:29:02*
%MOMM*%
%LPD*%
G01*
G04 APERTURE LIST*
%ADD10C,0.150000*%
%ADD11C,0.120000*%
G04 APERTURE END LIST*
D10*
X149161905Y-35404819D02*
X149161905Y-34404819D01*
X149161905Y-34404819D02*
X149400000Y-34404819D01*
X149400000Y-34404819D02*
X149542857Y-34452438D01*
X149542857Y-34452438D02*
X149638095Y-34547676D01*
X149638095Y-34547676D02*
X149685714Y-34642914D01*
X149685714Y-34642914D02*
X149733333Y-34833390D01*
X149733333Y-34833390D02*
X149733333Y-34976247D01*
X149733333Y-34976247D02*
X149685714Y-35166723D01*
X149685714Y-35166723D02*
X149638095Y-35261961D01*
X149638095Y-35261961D02*
X149542857Y-35357200D01*
X149542857Y-35357200D02*
X149400000Y-35404819D01*
X149400000Y-35404819D02*
X149161905Y-35404819D01*
X150590476Y-34738152D02*
X150590476Y-35404819D01*
X150352381Y-34357200D02*
X150114286Y-35071485D01*
X150114286Y-35071485D02*
X150733333Y-35071485D01*
X131238095Y-56304819D02*
X131238095Y-55304819D01*
X131238095Y-55781009D02*
X131809523Y-55781009D01*
X131809523Y-56304819D02*
X131809523Y-55304819D01*
X132761904Y-55304819D02*
X132285714Y-55304819D01*
X132285714Y-55304819D02*
X132238095Y-55781009D01*
X132238095Y-55781009D02*
X132285714Y-55733390D01*
X132285714Y-55733390D02*
X132380952Y-55685771D01*
X132380952Y-55685771D02*
X132619047Y-55685771D01*
X132619047Y-55685771D02*
X132714285Y-55733390D01*
X132714285Y-55733390D02*
X132761904Y-55781009D01*
X132761904Y-55781009D02*
X132809523Y-55876247D01*
X132809523Y-55876247D02*
X132809523Y-56114342D01*
X132809523Y-56114342D02*
X132761904Y-56209580D01*
X132761904Y-56209580D02*
X132714285Y-56257200D01*
X132714285Y-56257200D02*
X132619047Y-56304819D01*
X132619047Y-56304819D02*
X132380952Y-56304819D01*
X132380952Y-56304819D02*
X132285714Y-56257200D01*
X132285714Y-56257200D02*
X132238095Y-56209580D01*
X89324405Y-31804819D02*
X89324405Y-30804819D01*
X89324405Y-30804819D02*
X89562500Y-30804819D01*
X89562500Y-30804819D02*
X89705357Y-30852438D01*
X89705357Y-30852438D02*
X89800595Y-30947676D01*
X89800595Y-30947676D02*
X89848214Y-31042914D01*
X89848214Y-31042914D02*
X89895833Y-31233390D01*
X89895833Y-31233390D02*
X89895833Y-31376247D01*
X89895833Y-31376247D02*
X89848214Y-31566723D01*
X89848214Y-31566723D02*
X89800595Y-31661961D01*
X89800595Y-31661961D02*
X89705357Y-31757200D01*
X89705357Y-31757200D02*
X89562500Y-31804819D01*
X89562500Y-31804819D02*
X89324405Y-31804819D01*
X90229167Y-30804819D02*
X90848214Y-30804819D01*
X90848214Y-30804819D02*
X90514881Y-31185771D01*
X90514881Y-31185771D02*
X90657738Y-31185771D01*
X90657738Y-31185771D02*
X90752976Y-31233390D01*
X90752976Y-31233390D02*
X90800595Y-31281009D01*
X90800595Y-31281009D02*
X90848214Y-31376247D01*
X90848214Y-31376247D02*
X90848214Y-31614342D01*
X90848214Y-31614342D02*
X90800595Y-31709580D01*
X90800595Y-31709580D02*
X90752976Y-31757200D01*
X90752976Y-31757200D02*
X90657738Y-31804819D01*
X90657738Y-31804819D02*
X90372024Y-31804819D01*
X90372024Y-31804819D02*
X90276786Y-31757200D01*
X90276786Y-31757200D02*
X90229167Y-31709580D01*
X146824819Y-155733333D02*
X147539104Y-155733333D01*
X147539104Y-155733333D02*
X147681961Y-155780952D01*
X147681961Y-155780952D02*
X147777200Y-155876190D01*
X147777200Y-155876190D02*
X147824819Y-156019047D01*
X147824819Y-156019047D02*
X147824819Y-156114285D01*
X146824819Y-155352380D02*
X146824819Y-154685714D01*
X146824819Y-154685714D02*
X147824819Y-155114285D01*
X146824819Y-130333333D02*
X147539104Y-130333333D01*
X147539104Y-130333333D02*
X147681961Y-130380952D01*
X147681961Y-130380952D02*
X147777200Y-130476190D01*
X147777200Y-130476190D02*
X147824819Y-130619047D01*
X147824819Y-130619047D02*
X147824819Y-130714285D01*
X146920057Y-129904761D02*
X146872438Y-129857142D01*
X146872438Y-129857142D02*
X146824819Y-129761904D01*
X146824819Y-129761904D02*
X146824819Y-129523809D01*
X146824819Y-129523809D02*
X146872438Y-129428571D01*
X146872438Y-129428571D02*
X146920057Y-129380952D01*
X146920057Y-129380952D02*
X147015295Y-129333333D01*
X147015295Y-129333333D02*
X147110533Y-129333333D01*
X147110533Y-129333333D02*
X147253390Y-129380952D01*
X147253390Y-129380952D02*
X147824819Y-129952380D01*
X147824819Y-129952380D02*
X147824819Y-129333333D01*
X78838095Y-151104819D02*
X78838095Y-150104819D01*
X78838095Y-150581009D02*
X79409523Y-150581009D01*
X79409523Y-151104819D02*
X79409523Y-150104819D01*
X80314285Y-150438152D02*
X80314285Y-151104819D01*
X80076190Y-150057200D02*
X79838095Y-150771485D01*
X79838095Y-150771485D02*
X80457142Y-150771485D01*
X94238095Y-93304819D02*
X94238095Y-92304819D01*
X94238095Y-92781009D02*
X94809523Y-92781009D01*
X94809523Y-93304819D02*
X94809523Y-92304819D01*
X95714285Y-92304819D02*
X95523809Y-92304819D01*
X95523809Y-92304819D02*
X95428571Y-92352438D01*
X95428571Y-92352438D02*
X95380952Y-92400057D01*
X95380952Y-92400057D02*
X95285714Y-92542914D01*
X95285714Y-92542914D02*
X95238095Y-92733390D01*
X95238095Y-92733390D02*
X95238095Y-93114342D01*
X95238095Y-93114342D02*
X95285714Y-93209580D01*
X95285714Y-93209580D02*
X95333333Y-93257200D01*
X95333333Y-93257200D02*
X95428571Y-93304819D01*
X95428571Y-93304819D02*
X95619047Y-93304819D01*
X95619047Y-93304819D02*
X95714285Y-93257200D01*
X95714285Y-93257200D02*
X95761904Y-93209580D01*
X95761904Y-93209580D02*
X95809523Y-93114342D01*
X95809523Y-93114342D02*
X95809523Y-92876247D01*
X95809523Y-92876247D02*
X95761904Y-92781009D01*
X95761904Y-92781009D02*
X95714285Y-92733390D01*
X95714285Y-92733390D02*
X95619047Y-92685771D01*
X95619047Y-92685771D02*
X95428571Y-92685771D01*
X95428571Y-92685771D02*
X95333333Y-92733390D01*
X95333333Y-92733390D02*
X95285714Y-92781009D01*
X95285714Y-92781009D02*
X95238095Y-92876247D01*
X158324819Y-108333333D02*
X159039104Y-108333333D01*
X159039104Y-108333333D02*
X159181961Y-108380952D01*
X159181961Y-108380952D02*
X159277200Y-108476190D01*
X159277200Y-108476190D02*
X159324819Y-108619047D01*
X159324819Y-108619047D02*
X159324819Y-108714285D01*
X158324819Y-107952380D02*
X158324819Y-107333333D01*
X158324819Y-107333333D02*
X158705771Y-107666666D01*
X158705771Y-107666666D02*
X158705771Y-107523809D01*
X158705771Y-107523809D02*
X158753390Y-107428571D01*
X158753390Y-107428571D02*
X158801009Y-107380952D01*
X158801009Y-107380952D02*
X158896247Y-107333333D01*
X158896247Y-107333333D02*
X159134342Y-107333333D01*
X159134342Y-107333333D02*
X159229580Y-107380952D01*
X159229580Y-107380952D02*
X159277200Y-107428571D01*
X159277200Y-107428571D02*
X159324819Y-107523809D01*
X159324819Y-107523809D02*
X159324819Y-107809523D01*
X159324819Y-107809523D02*
X159277200Y-107904761D01*
X159277200Y-107904761D02*
X159229580Y-107952380D01*
X158838095Y-31104819D02*
X158838095Y-30104819D01*
X158838095Y-30581009D02*
X159409523Y-30581009D01*
X159409523Y-31104819D02*
X159409523Y-30104819D01*
X160409523Y-31104819D02*
X159838095Y-31104819D01*
X160123809Y-31104819D02*
X160123809Y-30104819D01*
X160123809Y-30104819D02*
X160028571Y-30247676D01*
X160028571Y-30247676D02*
X159933333Y-30342914D01*
X159933333Y-30342914D02*
X159838095Y-30390533D01*
X79309700Y-58523332D02*
X79357319Y-58380475D01*
X79357319Y-58380475D02*
X79357319Y-58142380D01*
X79357319Y-58142380D02*
X79309700Y-58047142D01*
X79309700Y-58047142D02*
X79262080Y-57999523D01*
X79262080Y-57999523D02*
X79166842Y-57951904D01*
X79166842Y-57951904D02*
X79071604Y-57951904D01*
X79071604Y-57951904D02*
X78976366Y-57999523D01*
X78976366Y-57999523D02*
X78928747Y-58047142D01*
X78928747Y-58047142D02*
X78881128Y-58142380D01*
X78881128Y-58142380D02*
X78833509Y-58332856D01*
X78833509Y-58332856D02*
X78785890Y-58428094D01*
X78785890Y-58428094D02*
X78738271Y-58475713D01*
X78738271Y-58475713D02*
X78643033Y-58523332D01*
X78643033Y-58523332D02*
X78547795Y-58523332D01*
X78547795Y-58523332D02*
X78452557Y-58475713D01*
X78452557Y-58475713D02*
X78404938Y-58428094D01*
X78404938Y-58428094D02*
X78357319Y-58332856D01*
X78357319Y-58332856D02*
X78357319Y-58094761D01*
X78357319Y-58094761D02*
X78404938Y-57951904D01*
X78357319Y-57618570D02*
X79357319Y-57380475D01*
X79357319Y-57380475D02*
X78643033Y-57189999D01*
X78643033Y-57189999D02*
X79357319Y-56999523D01*
X79357319Y-56999523D02*
X78357319Y-56761428D01*
X79357319Y-55856666D02*
X79357319Y-56428094D01*
X79357319Y-56142380D02*
X78357319Y-56142380D01*
X78357319Y-56142380D02*
X78500176Y-56237618D01*
X78500176Y-56237618D02*
X78595414Y-56332856D01*
X78595414Y-56332856D02*
X78643033Y-56428094D01*
X134874819Y-108183333D02*
X135589104Y-108183333D01*
X135589104Y-108183333D02*
X135731961Y-108230952D01*
X135731961Y-108230952D02*
X135827200Y-108326190D01*
X135827200Y-108326190D02*
X135874819Y-108469047D01*
X135874819Y-108469047D02*
X135874819Y-108564285D01*
X135208152Y-107278571D02*
X135874819Y-107278571D01*
X134827200Y-107516666D02*
X135541485Y-107754761D01*
X135541485Y-107754761D02*
X135541485Y-107135714D01*
X78838095Y-31104819D02*
X78838095Y-30104819D01*
X78838095Y-30581009D02*
X79409523Y-30581009D01*
X79409523Y-31104819D02*
X79409523Y-30104819D01*
X79790476Y-30104819D02*
X80409523Y-30104819D01*
X80409523Y-30104819D02*
X80076190Y-30485771D01*
X80076190Y-30485771D02*
X80219047Y-30485771D01*
X80219047Y-30485771D02*
X80314285Y-30533390D01*
X80314285Y-30533390D02*
X80361904Y-30581009D01*
X80361904Y-30581009D02*
X80409523Y-30676247D01*
X80409523Y-30676247D02*
X80409523Y-30914342D01*
X80409523Y-30914342D02*
X80361904Y-31009580D01*
X80361904Y-31009580D02*
X80314285Y-31057200D01*
X80314285Y-31057200D02*
X80219047Y-31104819D01*
X80219047Y-31104819D02*
X79933333Y-31104819D01*
X79933333Y-31104819D02*
X79838095Y-31057200D01*
X79838095Y-31057200D02*
X79790476Y-31009580D01*
X79238095Y-115204819D02*
X79238095Y-114204819D01*
X79238095Y-114681009D02*
X79809523Y-114681009D01*
X79809523Y-115204819D02*
X79809523Y-114204819D01*
X80333333Y-115204819D02*
X80523809Y-115204819D01*
X80523809Y-115204819D02*
X80619047Y-115157200D01*
X80619047Y-115157200D02*
X80666666Y-115109580D01*
X80666666Y-115109580D02*
X80761904Y-114966723D01*
X80761904Y-114966723D02*
X80809523Y-114776247D01*
X80809523Y-114776247D02*
X80809523Y-114395295D01*
X80809523Y-114395295D02*
X80761904Y-114300057D01*
X80761904Y-114300057D02*
X80714285Y-114252438D01*
X80714285Y-114252438D02*
X80619047Y-114204819D01*
X80619047Y-114204819D02*
X80428571Y-114204819D01*
X80428571Y-114204819D02*
X80333333Y-114252438D01*
X80333333Y-114252438D02*
X80285714Y-114300057D01*
X80285714Y-114300057D02*
X80238095Y-114395295D01*
X80238095Y-114395295D02*
X80238095Y-114633390D01*
X80238095Y-114633390D02*
X80285714Y-114728628D01*
X80285714Y-114728628D02*
X80333333Y-114776247D01*
X80333333Y-114776247D02*
X80428571Y-114823866D01*
X80428571Y-114823866D02*
X80619047Y-114823866D01*
X80619047Y-114823866D02*
X80714285Y-114776247D01*
X80714285Y-114776247D02*
X80761904Y-114728628D01*
X80761904Y-114728628D02*
X80809523Y-114633390D01*
X141920833Y-38804819D02*
X141587500Y-38328628D01*
X141349405Y-38804819D02*
X141349405Y-37804819D01*
X141349405Y-37804819D02*
X141730357Y-37804819D01*
X141730357Y-37804819D02*
X141825595Y-37852438D01*
X141825595Y-37852438D02*
X141873214Y-37900057D01*
X141873214Y-37900057D02*
X141920833Y-37995295D01*
X141920833Y-37995295D02*
X141920833Y-38138152D01*
X141920833Y-38138152D02*
X141873214Y-38233390D01*
X141873214Y-38233390D02*
X141825595Y-38281009D01*
X141825595Y-38281009D02*
X141730357Y-38328628D01*
X141730357Y-38328628D02*
X141349405Y-38328628D01*
X142301786Y-37900057D02*
X142349405Y-37852438D01*
X142349405Y-37852438D02*
X142444643Y-37804819D01*
X142444643Y-37804819D02*
X142682738Y-37804819D01*
X142682738Y-37804819D02*
X142777976Y-37852438D01*
X142777976Y-37852438D02*
X142825595Y-37900057D01*
X142825595Y-37900057D02*
X142873214Y-37995295D01*
X142873214Y-37995295D02*
X142873214Y-38090533D01*
X142873214Y-38090533D02*
X142825595Y-38233390D01*
X142825595Y-38233390D02*
X142254167Y-38804819D01*
X142254167Y-38804819D02*
X142873214Y-38804819D01*
X97324405Y-31804819D02*
X97324405Y-30804819D01*
X97324405Y-30804819D02*
X97562500Y-30804819D01*
X97562500Y-30804819D02*
X97705357Y-30852438D01*
X97705357Y-30852438D02*
X97800595Y-30947676D01*
X97800595Y-30947676D02*
X97848214Y-31042914D01*
X97848214Y-31042914D02*
X97895833Y-31233390D01*
X97895833Y-31233390D02*
X97895833Y-31376247D01*
X97895833Y-31376247D02*
X97848214Y-31566723D01*
X97848214Y-31566723D02*
X97800595Y-31661961D01*
X97800595Y-31661961D02*
X97705357Y-31757200D01*
X97705357Y-31757200D02*
X97562500Y-31804819D01*
X97562500Y-31804819D02*
X97324405Y-31804819D01*
X98848214Y-31804819D02*
X98276786Y-31804819D01*
X98562500Y-31804819D02*
X98562500Y-30804819D01*
X98562500Y-30804819D02*
X98467262Y-30947676D01*
X98467262Y-30947676D02*
X98372024Y-31042914D01*
X98372024Y-31042914D02*
X98276786Y-31090533D01*
X158588095Y-150904819D02*
X158588095Y-149904819D01*
X158588095Y-150381009D02*
X159159523Y-150381009D01*
X159159523Y-150904819D02*
X159159523Y-149904819D01*
X159588095Y-150000057D02*
X159635714Y-149952438D01*
X159635714Y-149952438D02*
X159730952Y-149904819D01*
X159730952Y-149904819D02*
X159969047Y-149904819D01*
X159969047Y-149904819D02*
X160064285Y-149952438D01*
X160064285Y-149952438D02*
X160111904Y-150000057D01*
X160111904Y-150000057D02*
X160159523Y-150095295D01*
X160159523Y-150095295D02*
X160159523Y-150190533D01*
X160159523Y-150190533D02*
X160111904Y-150333390D01*
X160111904Y-150333390D02*
X159540476Y-150904819D01*
X159540476Y-150904819D02*
X160159523Y-150904819D01*
X147824819Y-47583333D02*
X148539104Y-47583333D01*
X148539104Y-47583333D02*
X148681961Y-47630952D01*
X148681961Y-47630952D02*
X148777200Y-47726190D01*
X148777200Y-47726190D02*
X148824819Y-47869047D01*
X148824819Y-47869047D02*
X148824819Y-47964285D01*
X148824819Y-46583333D02*
X148824819Y-47154761D01*
X148824819Y-46869047D02*
X147824819Y-46869047D01*
X147824819Y-46869047D02*
X147967676Y-46964285D01*
X147967676Y-46964285D02*
X148062914Y-47059523D01*
X148062914Y-47059523D02*
X148110533Y-47154761D01*
X164650057Y-139635238D02*
X164602438Y-139730476D01*
X164602438Y-139730476D02*
X164507200Y-139825714D01*
X164507200Y-139825714D02*
X164364342Y-139968571D01*
X164364342Y-139968571D02*
X164316723Y-140063809D01*
X164316723Y-140063809D02*
X164316723Y-140159047D01*
X164554819Y-140111428D02*
X164507200Y-140206666D01*
X164507200Y-140206666D02*
X164411961Y-140301904D01*
X164411961Y-140301904D02*
X164221485Y-140349523D01*
X164221485Y-140349523D02*
X163888152Y-140349523D01*
X163888152Y-140349523D02*
X163697676Y-140301904D01*
X163697676Y-140301904D02*
X163602438Y-140206666D01*
X163602438Y-140206666D02*
X163554819Y-140111428D01*
X163554819Y-140111428D02*
X163554819Y-139920952D01*
X163554819Y-139920952D02*
X163602438Y-139825714D01*
X163602438Y-139825714D02*
X163697676Y-139730476D01*
X163697676Y-139730476D02*
X163888152Y-139682857D01*
X163888152Y-139682857D02*
X164221485Y-139682857D01*
X164221485Y-139682857D02*
X164411961Y-139730476D01*
X164411961Y-139730476D02*
X164507200Y-139825714D01*
X164507200Y-139825714D02*
X164554819Y-139920952D01*
X164554819Y-139920952D02*
X164554819Y-140111428D01*
X164554819Y-138730476D02*
X164554819Y-139301904D01*
X164554819Y-139016190D02*
X163554819Y-139016190D01*
X163554819Y-139016190D02*
X163697676Y-139111428D01*
X163697676Y-139111428D02*
X163792914Y-139206666D01*
X163792914Y-139206666D02*
X163840533Y-139301904D01*
X78621009Y-66785714D02*
X78668628Y-66642857D01*
X78668628Y-66642857D02*
X78716247Y-66595238D01*
X78716247Y-66595238D02*
X78811485Y-66547619D01*
X78811485Y-66547619D02*
X78954342Y-66547619D01*
X78954342Y-66547619D02*
X79049580Y-66595238D01*
X79049580Y-66595238D02*
X79097200Y-66642857D01*
X79097200Y-66642857D02*
X79144819Y-66738095D01*
X79144819Y-66738095D02*
X79144819Y-67119047D01*
X79144819Y-67119047D02*
X78144819Y-67119047D01*
X78144819Y-67119047D02*
X78144819Y-66785714D01*
X78144819Y-66785714D02*
X78192438Y-66690476D01*
X78192438Y-66690476D02*
X78240057Y-66642857D01*
X78240057Y-66642857D02*
X78335295Y-66595238D01*
X78335295Y-66595238D02*
X78430533Y-66595238D01*
X78430533Y-66595238D02*
X78525771Y-66642857D01*
X78525771Y-66642857D02*
X78573390Y-66690476D01*
X78573390Y-66690476D02*
X78621009Y-66785714D01*
X78621009Y-66785714D02*
X78621009Y-67119047D01*
X78144819Y-66261904D02*
X78144819Y-65690476D01*
X79144819Y-65976190D02*
X78144819Y-65976190D01*
X79144819Y-64833333D02*
X79144819Y-65404761D01*
X79144819Y-65119047D02*
X78144819Y-65119047D01*
X78144819Y-65119047D02*
X78287676Y-65214285D01*
X78287676Y-65214285D02*
X78382914Y-65309523D01*
X78382914Y-65309523D02*
X78430533Y-65404761D01*
X97920833Y-38804819D02*
X97587500Y-38328628D01*
X97349405Y-38804819D02*
X97349405Y-37804819D01*
X97349405Y-37804819D02*
X97730357Y-37804819D01*
X97730357Y-37804819D02*
X97825595Y-37852438D01*
X97825595Y-37852438D02*
X97873214Y-37900057D01*
X97873214Y-37900057D02*
X97920833Y-37995295D01*
X97920833Y-37995295D02*
X97920833Y-38138152D01*
X97920833Y-38138152D02*
X97873214Y-38233390D01*
X97873214Y-38233390D02*
X97825595Y-38281009D01*
X97825595Y-38281009D02*
X97730357Y-38328628D01*
X97730357Y-38328628D02*
X97349405Y-38328628D01*
X98873214Y-38804819D02*
X98301786Y-38804819D01*
X98587500Y-38804819D02*
X98587500Y-37804819D01*
X98587500Y-37804819D02*
X98492262Y-37947676D01*
X98492262Y-37947676D02*
X98397024Y-38042914D01*
X98397024Y-38042914D02*
X98301786Y-38090533D01*
X162104819Y-128642857D02*
X161628628Y-128976190D01*
X162104819Y-129214285D02*
X161104819Y-129214285D01*
X161104819Y-129214285D02*
X161104819Y-128833333D01*
X161104819Y-128833333D02*
X161152438Y-128738095D01*
X161152438Y-128738095D02*
X161200057Y-128690476D01*
X161200057Y-128690476D02*
X161295295Y-128642857D01*
X161295295Y-128642857D02*
X161438152Y-128642857D01*
X161438152Y-128642857D02*
X161533390Y-128690476D01*
X161533390Y-128690476D02*
X161581009Y-128738095D01*
X161581009Y-128738095D02*
X161628628Y-128833333D01*
X161628628Y-128833333D02*
X161628628Y-129214285D01*
X162104819Y-127690476D02*
X162104819Y-128261904D01*
X162104819Y-127976190D02*
X161104819Y-127976190D01*
X161104819Y-127976190D02*
X161247676Y-128071428D01*
X161247676Y-128071428D02*
X161342914Y-128166666D01*
X161342914Y-128166666D02*
X161390533Y-128261904D01*
X161104819Y-127071428D02*
X161104819Y-126976190D01*
X161104819Y-126976190D02*
X161152438Y-126880952D01*
X161152438Y-126880952D02*
X161200057Y-126833333D01*
X161200057Y-126833333D02*
X161295295Y-126785714D01*
X161295295Y-126785714D02*
X161485771Y-126738095D01*
X161485771Y-126738095D02*
X161723866Y-126738095D01*
X161723866Y-126738095D02*
X161914342Y-126785714D01*
X161914342Y-126785714D02*
X162009580Y-126833333D01*
X162009580Y-126833333D02*
X162057200Y-126880952D01*
X162057200Y-126880952D02*
X162104819Y-126976190D01*
X162104819Y-126976190D02*
X162104819Y-127071428D01*
X162104819Y-127071428D02*
X162057200Y-127166666D01*
X162057200Y-127166666D02*
X162009580Y-127214285D01*
X162009580Y-127214285D02*
X161914342Y-127261904D01*
X161914342Y-127261904D02*
X161723866Y-127309523D01*
X161723866Y-127309523D02*
X161485771Y-127309523D01*
X161485771Y-127309523D02*
X161295295Y-127261904D01*
X161295295Y-127261904D02*
X161200057Y-127214285D01*
X161200057Y-127214285D02*
X161152438Y-127166666D01*
X161152438Y-127166666D02*
X161104819Y-127071428D01*
X159238095Y-56304819D02*
X159238095Y-55304819D01*
X159238095Y-55781009D02*
X159809523Y-55781009D01*
X159809523Y-56304819D02*
X159809523Y-55304819D01*
X160190476Y-55304819D02*
X160857142Y-55304819D01*
X160857142Y-55304819D02*
X160428571Y-56304819D01*
X126514819Y-121959523D02*
X125514819Y-121959523D01*
X125514819Y-121959523D02*
X126229104Y-121626190D01*
X126229104Y-121626190D02*
X125514819Y-121292857D01*
X125514819Y-121292857D02*
X126514819Y-121292857D01*
X126514819Y-120292857D02*
X126514819Y-120864285D01*
X126514819Y-120578571D02*
X125514819Y-120578571D01*
X125514819Y-120578571D02*
X125657676Y-120673809D01*
X125657676Y-120673809D02*
X125752914Y-120769047D01*
X125752914Y-120769047D02*
X125800533Y-120864285D01*
X78761905Y-75204819D02*
X78761905Y-74204819D01*
X78761905Y-74681009D02*
X79333333Y-74681009D01*
X79333333Y-75204819D02*
X79333333Y-74204819D01*
X80333333Y-75204819D02*
X79761905Y-75204819D01*
X80047619Y-75204819D02*
X80047619Y-74204819D01*
X80047619Y-74204819D02*
X79952381Y-74347676D01*
X79952381Y-74347676D02*
X79857143Y-74442914D01*
X79857143Y-74442914D02*
X79761905Y-74490533D01*
X80952381Y-74204819D02*
X81047619Y-74204819D01*
X81047619Y-74204819D02*
X81142857Y-74252438D01*
X81142857Y-74252438D02*
X81190476Y-74300057D01*
X81190476Y-74300057D02*
X81238095Y-74395295D01*
X81238095Y-74395295D02*
X81285714Y-74585771D01*
X81285714Y-74585771D02*
X81285714Y-74823866D01*
X81285714Y-74823866D02*
X81238095Y-75014342D01*
X81238095Y-75014342D02*
X81190476Y-75109580D01*
X81190476Y-75109580D02*
X81142857Y-75157200D01*
X81142857Y-75157200D02*
X81047619Y-75204819D01*
X81047619Y-75204819D02*
X80952381Y-75204819D01*
X80952381Y-75204819D02*
X80857143Y-75157200D01*
X80857143Y-75157200D02*
X80809524Y-75109580D01*
X80809524Y-75109580D02*
X80761905Y-75014342D01*
X80761905Y-75014342D02*
X80714286Y-74823866D01*
X80714286Y-74823866D02*
X80714286Y-74585771D01*
X80714286Y-74585771D02*
X80761905Y-74395295D01*
X80761905Y-74395295D02*
X80809524Y-74300057D01*
X80809524Y-74300057D02*
X80857143Y-74252438D01*
X80857143Y-74252438D02*
X80952381Y-74204819D01*
X99884819Y-108033333D02*
X100599104Y-108033333D01*
X100599104Y-108033333D02*
X100741961Y-108080952D01*
X100741961Y-108080952D02*
X100837200Y-108176190D01*
X100837200Y-108176190D02*
X100884819Y-108319047D01*
X100884819Y-108319047D02*
X100884819Y-108414285D01*
X99884819Y-107128571D02*
X99884819Y-107319047D01*
X99884819Y-107319047D02*
X99932438Y-107414285D01*
X99932438Y-107414285D02*
X99980057Y-107461904D01*
X99980057Y-107461904D02*
X100122914Y-107557142D01*
X100122914Y-107557142D02*
X100313390Y-107604761D01*
X100313390Y-107604761D02*
X100694342Y-107604761D01*
X100694342Y-107604761D02*
X100789580Y-107557142D01*
X100789580Y-107557142D02*
X100837200Y-107509523D01*
X100837200Y-107509523D02*
X100884819Y-107414285D01*
X100884819Y-107414285D02*
X100884819Y-107223809D01*
X100884819Y-107223809D02*
X100837200Y-107128571D01*
X100837200Y-107128571D02*
X100789580Y-107080952D01*
X100789580Y-107080952D02*
X100694342Y-107033333D01*
X100694342Y-107033333D02*
X100456247Y-107033333D01*
X100456247Y-107033333D02*
X100361009Y-107080952D01*
X100361009Y-107080952D02*
X100313390Y-107128571D01*
X100313390Y-107128571D02*
X100265771Y-107223809D01*
X100265771Y-107223809D02*
X100265771Y-107414285D01*
X100265771Y-107414285D02*
X100313390Y-107509523D01*
X100313390Y-107509523D02*
X100361009Y-107557142D01*
X100361009Y-107557142D02*
X100456247Y-107604761D01*
X141324405Y-31804819D02*
X141324405Y-30804819D01*
X141324405Y-30804819D02*
X141562500Y-30804819D01*
X141562500Y-30804819D02*
X141705357Y-30852438D01*
X141705357Y-30852438D02*
X141800595Y-30947676D01*
X141800595Y-30947676D02*
X141848214Y-31042914D01*
X141848214Y-31042914D02*
X141895833Y-31233390D01*
X141895833Y-31233390D02*
X141895833Y-31376247D01*
X141895833Y-31376247D02*
X141848214Y-31566723D01*
X141848214Y-31566723D02*
X141800595Y-31661961D01*
X141800595Y-31661961D02*
X141705357Y-31757200D01*
X141705357Y-31757200D02*
X141562500Y-31804819D01*
X141562500Y-31804819D02*
X141324405Y-31804819D01*
X142276786Y-30900057D02*
X142324405Y-30852438D01*
X142324405Y-30852438D02*
X142419643Y-30804819D01*
X142419643Y-30804819D02*
X142657738Y-30804819D01*
X142657738Y-30804819D02*
X142752976Y-30852438D01*
X142752976Y-30852438D02*
X142800595Y-30900057D01*
X142800595Y-30900057D02*
X142848214Y-30995295D01*
X142848214Y-30995295D02*
X142848214Y-31090533D01*
X142848214Y-31090533D02*
X142800595Y-31233390D01*
X142800595Y-31233390D02*
X142229167Y-31804819D01*
X142229167Y-31804819D02*
X142848214Y-31804819D01*
X141238095Y-91304819D02*
X141238095Y-90304819D01*
X141238095Y-90781009D02*
X141809523Y-90781009D01*
X141809523Y-91304819D02*
X141809523Y-90304819D01*
X142428571Y-90733390D02*
X142333333Y-90685771D01*
X142333333Y-90685771D02*
X142285714Y-90638152D01*
X142285714Y-90638152D02*
X142238095Y-90542914D01*
X142238095Y-90542914D02*
X142238095Y-90495295D01*
X142238095Y-90495295D02*
X142285714Y-90400057D01*
X142285714Y-90400057D02*
X142333333Y-90352438D01*
X142333333Y-90352438D02*
X142428571Y-90304819D01*
X142428571Y-90304819D02*
X142619047Y-90304819D01*
X142619047Y-90304819D02*
X142714285Y-90352438D01*
X142714285Y-90352438D02*
X142761904Y-90400057D01*
X142761904Y-90400057D02*
X142809523Y-90495295D01*
X142809523Y-90495295D02*
X142809523Y-90542914D01*
X142809523Y-90542914D02*
X142761904Y-90638152D01*
X142761904Y-90638152D02*
X142714285Y-90685771D01*
X142714285Y-90685771D02*
X142619047Y-90733390D01*
X142619047Y-90733390D02*
X142428571Y-90733390D01*
X142428571Y-90733390D02*
X142333333Y-90781009D01*
X142333333Y-90781009D02*
X142285714Y-90828628D01*
X142285714Y-90828628D02*
X142238095Y-90923866D01*
X142238095Y-90923866D02*
X142238095Y-91114342D01*
X142238095Y-91114342D02*
X142285714Y-91209580D01*
X142285714Y-91209580D02*
X142333333Y-91257200D01*
X142333333Y-91257200D02*
X142428571Y-91304819D01*
X142428571Y-91304819D02*
X142619047Y-91304819D01*
X142619047Y-91304819D02*
X142714285Y-91257200D01*
X142714285Y-91257200D02*
X142761904Y-91209580D01*
X142761904Y-91209580D02*
X142809523Y-91114342D01*
X142809523Y-91114342D02*
X142809523Y-90923866D01*
X142809523Y-90923866D02*
X142761904Y-90828628D01*
X142761904Y-90828628D02*
X142714285Y-90781009D01*
X142714285Y-90781009D02*
X142619047Y-90733390D01*
D11*
%TO.C,D4*%
X149062500Y-33960000D02*
X151747500Y-33960000D01*
X151747500Y-32040000D02*
X149062500Y-32040000D01*
X151747500Y-33960000D02*
X151747500Y-32040000D01*
%TO.C,D3*%
X88377500Y-32040000D02*
X88377500Y-33960000D01*
X88377500Y-33960000D02*
X91062500Y-33960000D01*
X91062500Y-32040000D02*
X88377500Y-32040000D01*
%TO.C,J7*%
X95010000Y-154070000D02*
X95010000Y-156730000D01*
X143330000Y-154070000D02*
X95010000Y-154070000D01*
X143330000Y-154070000D02*
X143330000Y-156730000D01*
X143330000Y-156730000D02*
X95010000Y-156730000D01*
X145930000Y-155400000D02*
X145930000Y-156730000D01*
X145930000Y-156730000D02*
X144600000Y-156730000D01*
%TO.C,J2*%
X95010000Y-128670000D02*
X95010000Y-131330000D01*
X143330000Y-128670000D02*
X95010000Y-128670000D01*
X143330000Y-128670000D02*
X143330000Y-131330000D01*
X143330000Y-131330000D02*
X95010000Y-131330000D01*
X145930000Y-130000000D02*
X145930000Y-131330000D01*
X145930000Y-131330000D02*
X144600000Y-131330000D01*
%TO.C,J3*%
X152230000Y-106670000D02*
X152230000Y-109330000D01*
X154830000Y-106670000D02*
X152230000Y-106670000D01*
X154830000Y-106670000D02*
X154830000Y-109330000D01*
X154830000Y-109330000D02*
X152230000Y-109330000D01*
X157430000Y-108000000D02*
X157430000Y-109330000D01*
X157430000Y-109330000D02*
X156100000Y-109330000D01*
%TO.C,SW1*%
X79662500Y-60840000D02*
X79662500Y-59457000D01*
X79662500Y-60840000D02*
X80972500Y-60840000D01*
X79902500Y-53780000D02*
X81052500Y-53780000D01*
X79902500Y-60600000D02*
X79902500Y-53780000D01*
X79902500Y-60600000D02*
X80972500Y-60600000D01*
X81377500Y-57793333D02*
X82647500Y-57793333D01*
X82972500Y-53780000D02*
X84122500Y-53780000D01*
X83052500Y-60600000D02*
X84122500Y-60600000D01*
X84122500Y-60600000D02*
X84122500Y-53780000D01*
X81377500Y-59000000D02*
X82647500Y-59000000D01*
X82647500Y-55380000D01*
X81377500Y-55380000D01*
X81377500Y-59000000D01*
X81377500Y-59000000D02*
X82647500Y-59000000D01*
X82647500Y-57793333D01*
X81377500Y-57793333D01*
X81377500Y-59000000D01*
G36*
X81377500Y-59000000D02*
G01*
X82647500Y-59000000D01*
X82647500Y-57793333D01*
X81377500Y-57793333D01*
X81377500Y-59000000D01*
G37*
%TO.C,J4*%
X128780000Y-106520000D02*
X128780000Y-109180000D01*
X131380000Y-106520000D02*
X128780000Y-106520000D01*
X131380000Y-106520000D02*
X131380000Y-109180000D01*
X131380000Y-109180000D02*
X128780000Y-109180000D01*
X133980000Y-107850000D02*
X133980000Y-109180000D01*
X133980000Y-109180000D02*
X132650000Y-109180000D01*
%TO.C,R2*%
X141860436Y-39265000D02*
X142314564Y-39265000D01*
X141860436Y-40735000D02*
X142314564Y-40735000D01*
%TO.C,D1*%
X96377500Y-32040000D02*
X96377500Y-33960000D01*
X96377500Y-33960000D02*
X99062500Y-33960000D01*
X99062500Y-32040000D02*
X96377500Y-32040000D01*
%TO.C,J1*%
X141730000Y-45920000D02*
X141730000Y-48580000D01*
X144330000Y-45920000D02*
X141730000Y-45920000D01*
X144330000Y-45920000D02*
X144330000Y-48580000D01*
X144330000Y-48580000D02*
X141730000Y-48580000D01*
X146930000Y-47250000D02*
X146930000Y-48580000D01*
X146930000Y-48580000D02*
X145600000Y-48580000D01*
%TO.C,Q1*%
X158640000Y-134430000D02*
X163260000Y-134430000D01*
X158640000Y-144650000D02*
X158640000Y-134430000D01*
X161880000Y-134430000D02*
X161880000Y-144650000D01*
X163260000Y-134430000D02*
X163260000Y-144650000D01*
X163260000Y-137690000D02*
X161880000Y-137690000D01*
X163260000Y-141390000D02*
X161880000Y-141390000D01*
X163260000Y-144650000D02*
X158640000Y-144650000D01*
%TO.C,BT1*%
X80130000Y-64670000D02*
X81460000Y-64670000D01*
X80130000Y-66000000D02*
X80130000Y-64670000D01*
X82730000Y-64670000D02*
X85330000Y-64670000D01*
X82730000Y-67330000D02*
X82730000Y-64670000D01*
X82730000Y-67330000D02*
X85330000Y-67330000D01*
X85330000Y-67330000D02*
X85330000Y-64670000D01*
%TO.C,R1*%
X97860436Y-39265000D02*
X98314564Y-39265000D01*
X97860436Y-40735000D02*
X98314564Y-40735000D01*
%TO.C,R10*%
X159265000Y-127772936D02*
X159265000Y-128227064D01*
X160735000Y-127772936D02*
X160735000Y-128227064D01*
%TO.C,M1*%
X117220000Y-119770000D02*
X117220000Y-122530000D01*
X122410000Y-119770000D02*
X117220000Y-119770000D01*
X122410000Y-119770000D02*
X122410000Y-122530000D01*
X122410000Y-122530000D02*
X117220000Y-122530000D01*
X123680000Y-119770000D02*
X125060000Y-119770000D01*
X125060000Y-119770000D02*
X125060000Y-121150000D01*
%TO.C,J6*%
X101430000Y-109080000D02*
X101430000Y-107700000D01*
X102810000Y-109080000D02*
X101430000Y-109080000D01*
X104080000Y-106320000D02*
X109270000Y-106320000D01*
X104080000Y-109080000D02*
X104080000Y-106320000D01*
X104080000Y-109080000D02*
X109270000Y-109080000D01*
X109270000Y-109080000D02*
X109270000Y-106320000D01*
%TO.C,D2*%
X140377500Y-32040000D02*
X140377500Y-33960000D01*
X140377500Y-33960000D02*
X143062500Y-33960000D01*
X143062500Y-32040000D02*
X140377500Y-32040000D01*
%TD*%
M02*
