%TF.GenerationSoftware,KiCad,Pcbnew,9.0.6*%
%TF.CreationDate,2026-09-04T19:29:02+02:00*%
%TF.ProjectId,PTP_Seminarski_Rad_Lego_Auto_Josip_Bosnic,5054505f-5365-46d6-996e-6172736b695f,1.0*%
%TF.SameCoordinates,Original*%
%TF.FileFunction,Copper,L1,Top*%
%TF.FilePolarity,Positive*%
%FSLAX46Y46*%
G04 Gerber Fmt 4.6, Leading zero omitted, Abs format (unit mm)*
G04 Created by KiCad (PCBNEW 9.0.6) date 2026-09-04 19:29:02*
%MOMM*%
%LPD*%
G01*
G04 APERTURE LIST*
G04 Aperture macros list*
%AMRoundRect*
0 Rectangle with rounded corners*
0 $1 Rounding radius*
0 $2 $3 $4 $5 $6 $7 $8 $9 X,Y pos of 4 corners*
0 Add a 4 corners polygon primitive as box body*
4,1,4,$2,$3,$4,$5,$6,$7,$8,$9,$2,$3,0*
0 Add four circle primitives for the rounded corners*
1,1,$1+$1,$2,$3*
1,1,$1+$1,$4,$5*
1,1,$1+$1,$6,$7*
1,1,$1+$1,$8,$9*
0 Add four rect primitives between the rounded corners*
20,1,$1+$1,$2,$3,$4,$5,0*
20,1,$1+$1,$4,$5,$6,$7,0*
20,1,$1+$1,$6,$7,$8,$9,0*
20,1,$1+$1,$8,$9,$2,$3,0*%
G04 Aperture macros list end*
%TA.AperFunction,SMDPad,CuDef*%
%ADD10RoundRect,0.243750X0.243750X0.456250X-0.243750X0.456250X-0.243750X-0.456250X0.243750X-0.456250X0*%
%TD*%
%TA.AperFunction,SMDPad,CuDef*%
%ADD11RoundRect,0.243750X-0.243750X-0.456250X0.243750X-0.456250X0.243750X0.456250X-0.243750X0.456250X0*%
%TD*%
%TA.AperFunction,ComponentPad*%
%ADD12R,1.700000X1.700000*%
%TD*%
%TA.AperFunction,ComponentPad*%
%ADD13C,1.700000*%
%TD*%
%TA.AperFunction,ComponentPad*%
%ADD14RoundRect,0.250000X0.550000X-0.550000X0.550000X0.550000X-0.550000X0.550000X-0.550000X-0.550000X0*%
%TD*%
%TA.AperFunction,ComponentPad*%
%ADD15C,1.600000*%
%TD*%
%TA.AperFunction,SMDPad,CuDef*%
%ADD16RoundRect,0.250000X-0.262500X-0.450000X0.262500X-0.450000X0.262500X0.450000X-0.262500X0.450000X0*%
%TD*%
%TA.AperFunction,ComponentPad*%
%ADD17R,2.000000X1.905000*%
%TD*%
%TA.AperFunction,ComponentPad*%
%ADD18O,2.000000X1.905000*%
%TD*%
%TA.AperFunction,SMDPad,CuDef*%
%ADD19RoundRect,0.250000X-0.450000X0.262500X-0.450000X-0.262500X0.450000X-0.262500X0.450000X0.262500X0*%
%TD*%
%TA.AperFunction,ViaPad*%
%ADD20C,0.700000*%
%TD*%
%TA.AperFunction,Conductor*%
%ADD21C,0.200000*%
%TD*%
G04 APERTURE END LIST*
D10*
%TO.P,D4,1,K*%
%TO.N,Q3*%
X151000000Y-33000000D03*
%TO.P,D4,2,A*%
%TO.N,-BATT*%
X149125000Y-33000000D03*
%TD*%
D11*
%TO.P,D3,1,K*%
%TO.N,Q3*%
X89125000Y-33000000D03*
%TO.P,D3,2,A*%
%TO.N,-BATT*%
X91000000Y-33000000D03*
%TD*%
D12*
%TO.P,J7,1,Pin_1*%
%TO.N,unconnected-(J7-Pin_1-Pad1)*%
X144600000Y-155400000D03*
D13*
%TO.P,J7,2,Pin_2*%
%TO.N,unconnected-(J7-Pin_2-Pad2)*%
X142060000Y-155400000D03*
%TO.P,J7,3,Pin_3*%
%TO.N,unconnected-(J7-Pin_3-Pad3)*%
X139520000Y-155400000D03*
%TO.P,J7,4,Pin_4*%
%TO.N,unconnected-(J7-Pin_4-Pad4)*%
X136980000Y-155400000D03*
%TO.P,J7,5,Pin_5*%
%TO.N,unconnected-(J7-Pin_5-Pad5)*%
X134440000Y-155400000D03*
%TO.P,J7,6,Pin_6*%
%TO.N,/servosignal*%
X131900000Y-155400000D03*
%TO.P,J7,7,Pin_7*%
%TO.N,/IN1*%
X129360000Y-155400000D03*
%TO.P,J7,8,Pin_8*%
%TO.N,unconnected-(J7-Pin_8-Pad8)*%
X126820000Y-155400000D03*
%TO.P,J7,9,Pin_9*%
%TO.N,unconnected-(J7-Pin_9-Pad9)*%
X124280000Y-155400000D03*
%TO.P,J7,10,Pin_10*%
%TO.N,/IN2*%
X121740000Y-155400000D03*
%TO.P,J7,11,Pin_11*%
%TO.N,unconnected-(J7-Pin_11-Pad11)*%
X119200000Y-155400000D03*
%TO.P,J7,12,Pin_12*%
%TO.N,unconnected-(J7-Pin_12-Pad12)*%
X116660000Y-155400000D03*
%TO.P,J7,13,Pin_13*%
%TO.N,unconnected-(J7-Pin_13-Pad13)*%
X114120000Y-155400000D03*
%TO.P,J7,14,Pin_14*%
%TO.N,unconnected-(J7-Pin_14-Pad14)*%
X111580000Y-155400000D03*
%TO.P,J7,15,Pin_15*%
%TO.N,Q2*%
X109040000Y-155400000D03*
%TO.P,J7,16,Pin_16*%
%TO.N,Q1*%
X106500000Y-155400000D03*
%TO.P,J7,17,Pin_17*%
%TO.N,unconnected-(J7-Pin_17-Pad17)*%
X103960000Y-155400000D03*
%TO.P,J7,18,Pin_18*%
%TO.N,unconnected-(J7-Pin_18-Pad18)*%
X101420000Y-155400000D03*
%TO.P,J7,19,Pin_19*%
%TO.N,unconnected-(J7-Pin_19-Pad19)*%
X98880000Y-155400000D03*
%TO.P,J7,20,Pin_20*%
%TO.N,-BATT*%
X96340000Y-155400000D03*
%TD*%
D12*
%TO.P,J2,1,Pin_1*%
%TO.N,unconnected-(J2-Pin_1-Pad1)*%
X144600000Y-130000000D03*
D13*
%TO.P,J2,2,Pin_2*%
%TO.N,unconnected-(J2-Pin_2-Pad2)*%
X142060000Y-130000000D03*
%TO.P,J2,3,Pin_3*%
%TO.N,unconnected-(J2-Pin_3-Pad3)*%
X139520000Y-130000000D03*
%TO.P,J2,4,Pin_4*%
%TO.N,unconnected-(J2-Pin_4-Pad4)*%
X136980000Y-130000000D03*
%TO.P,J2,5,Pin_5*%
%TO.N,unconnected-(J2-Pin_5-Pad5)*%
X134440000Y-130000000D03*
%TO.P,J2,6,Pin_6*%
%TO.N,unconnected-(J2-Pin_6-Pad6)*%
X131900000Y-130000000D03*
%TO.P,J2,7,Pin_7*%
%TO.N,unconnected-(J2-Pin_7-Pad7)*%
X129360000Y-130000000D03*
%TO.P,J2,8,Pin_8*%
%TO.N,unconnected-(J2-Pin_8-Pad8)*%
X126820000Y-130000000D03*
%TO.P,J2,9,Pin_9*%
%TO.N,unconnected-(J2-Pin_9-Pad9)*%
X124280000Y-130000000D03*
%TO.P,J2,10,Pin_10*%
%TO.N,unconnected-(J2-Pin_10-Pad10)*%
X121740000Y-130000000D03*
%TO.P,J2,11,Pin_11*%
%TO.N,unconnected-(J2-Pin_11-Pad11)*%
X119200000Y-130000000D03*
%TO.P,J2,12,Pin_12*%
%TO.N,unconnected-(J2-Pin_12-Pad12)*%
X116660000Y-130000000D03*
%TO.P,J2,13,Pin_13*%
%TO.N,unconnected-(J2-Pin_13-Pad13)*%
X114120000Y-130000000D03*
%TO.P,J2,14,Pin_14*%
%TO.N,unconnected-(J2-Pin_14-Pad14)*%
X111580000Y-130000000D03*
%TO.P,J2,15,Pin_15*%
%TO.N,+5V*%
X109040000Y-130000000D03*
%TO.P,J2,16,Pin_16*%
%TO.N,unconnected-(J2-Pin_16-Pad16)*%
X106500000Y-130000000D03*
%TO.P,J2,17,Pin_17*%
%TO.N,unconnected-(J2-Pin_17-Pad17)*%
X103960000Y-130000000D03*
%TO.P,J2,18,Pin_18*%
%TO.N,unconnected-(J2-Pin_18-Pad18)*%
X101420000Y-130000000D03*
%TO.P,J2,19,Pin_19*%
%TO.N,unconnected-(J2-Pin_19-Pad19)*%
X98880000Y-130000000D03*
%TO.P,J2,20,Pin_20*%
%TO.N,unconnected-(J2-Pin_20-Pad20)*%
X96340000Y-130000000D03*
%TD*%
D12*
%TO.P,J3,1,Pin_1*%
%TO.N,+5V*%
X156100000Y-108000000D03*
D13*
%TO.P,J3,2,Pin_2*%
%TO.N,-BATT*%
X153560000Y-108000000D03*
%TD*%
D14*
%TO.P,SW1,1,A*%
%TO.N,Net-(BT1-+)*%
X82012500Y-61000000D03*
D15*
%TO.P,SW1,2,B*%
%TO.N,+BATT*%
X82012500Y-53380000D03*
%TD*%
D12*
%TO.P,J4,1,Pin_1*%
%TO.N,/IN1*%
X132650000Y-107850000D03*
D13*
%TO.P,J4,2,Pin_2*%
%TO.N,/IN2*%
X130110000Y-107850000D03*
%TD*%
D16*
%TO.P,R2,1*%
%TO.N,Net-(D2-A)*%
X141175000Y-40000000D03*
%TO.P,R2,2*%
%TO.N,-BATT*%
X143000000Y-40000000D03*
%TD*%
D11*
%TO.P,D1,1,K*%
%TO.N,Q1*%
X97125000Y-33000000D03*
%TO.P,D1,2,A*%
%TO.N,Net-(D1-A)*%
X99000000Y-33000000D03*
%TD*%
D12*
%TO.P,J1,1,Pin_1*%
%TO.N,+BATT*%
X145600000Y-47250000D03*
D13*
%TO.P,J1,2,Pin_2*%
%TO.N,-BATT*%
X143060000Y-47250000D03*
%TD*%
D17*
%TO.P,Q1,1,G*%
%TO.N,+5V*%
X160000000Y-137000000D03*
D18*
%TO.P,Q1,2,D*%
%TO.N,Net-(Q1-D)*%
X160000000Y-139540000D03*
%TO.P,Q1,3,S*%
%TO.N,-BATT*%
X160000000Y-142080000D03*
%TD*%
D12*
%TO.P,BT1,1,+*%
%TO.N,Net-(BT1-+)*%
X81460000Y-66000000D03*
D13*
%TO.P,BT1,2,-*%
%TO.N,-BATT*%
X84000000Y-66000000D03*
%TD*%
D16*
%TO.P,R1,1*%
%TO.N,Net-(D1-A)*%
X97175000Y-40000000D03*
%TO.P,R1,2*%
%TO.N,-BATT*%
X99000000Y-40000000D03*
%TD*%
D19*
%TO.P,R10,1*%
%TO.N,Q3*%
X160000000Y-127087500D03*
%TO.P,R10,2*%
%TO.N,Net-(Q1-D)*%
X160000000Y-128912500D03*
%TD*%
D12*
%TO.P,M1,1,PWM*%
%TO.N,/servosignal*%
X123680000Y-121150000D03*
D13*
%TO.P,M1,2,+*%
%TO.N,+5V*%
X121140000Y-121150000D03*
%TO.P,M1,3,-*%
%TO.N,-BATT*%
X118600000Y-121150000D03*
%TD*%
D12*
%TO.P,J6,1,Pin_1*%
%TO.N,-BATT*%
X102810000Y-107700000D03*
D13*
%TO.P,J6,2,Pin_2*%
%TO.N,+BATT*%
X105350000Y-107700000D03*
%TO.P,J6,3,Pin_3*%
%TO.N,+5V*%
X107890000Y-107700000D03*
%TD*%
D11*
%TO.P,D2,1,K*%
%TO.N,Q2*%
X141125000Y-33000000D03*
%TO.P,D2,2,A*%
%TO.N,Net-(D2-A)*%
X143000000Y-33000000D03*
%TD*%
D20*
%TO.N,-BATT*%
X156000000Y-142000000D03*
X93000000Y-33000000D03*
X87000000Y-66000000D03*
X102800000Y-110250000D03*
X139350000Y-47250000D03*
X147000000Y-33000000D03*
X115500000Y-121100000D03*
X96000000Y-159000000D03*
X99000000Y-38000000D03*
X153550000Y-110700000D03*
%TO.N,+BATT*%
X92400000Y-103650000D03*
X88000000Y-54000000D03*
X88750000Y-103600000D03*
X92100000Y-54000000D03*
%TO.N,+5V*%
X151200000Y-125100000D03*
X144900000Y-125050000D03*
X154950000Y-134000000D03*
X157050000Y-136000000D03*
%TO.N,/servosignal*%
X132350000Y-135000000D03*
X135100000Y-132300000D03*
%TD*%
D21*
%TO.N,-BATT*%
X153560000Y-108000000D02*
X153560000Y-110690000D01*
X143060000Y-47250000D02*
X139350000Y-47250000D01*
X153560000Y-110690000D02*
X153550000Y-110700000D01*
X84000000Y-66000000D02*
X87000000Y-66000000D01*
X91000000Y-33000000D02*
X93000000Y-33000000D01*
X99000000Y-40000000D02*
X99000000Y-38000000D01*
X96340000Y-158660000D02*
X96340000Y-155400000D01*
X149125000Y-33875000D02*
X149125000Y-33000000D01*
X118600000Y-121150000D02*
X115550000Y-121150000D01*
X160000000Y-142080000D02*
X156080000Y-142080000D01*
X143000000Y-40000000D02*
X149125000Y-33875000D01*
X115550000Y-121150000D02*
X115500000Y-121100000D01*
X156080000Y-142080000D02*
X156000000Y-142000000D01*
X96000000Y-159000000D02*
X96340000Y-158660000D01*
X149125000Y-33000000D02*
X147000000Y-33000000D01*
X102810000Y-110240000D02*
X102800000Y-110250000D01*
X102810000Y-107700000D02*
X102810000Y-110240000D01*
%TO.N,+BATT*%
X85800000Y-53380000D02*
X87380000Y-53380000D01*
X92500000Y-54000000D02*
X92100000Y-54000000D01*
X88750000Y-103600000D02*
X87750000Y-102600000D01*
X145600000Y-47250000D02*
X145600000Y-44500000D01*
X144150000Y-43050000D02*
X103450000Y-43050000D01*
X85800000Y-53400000D02*
X85660000Y-53540000D01*
X104700000Y-103750000D02*
X92500000Y-103750000D01*
X92500000Y-103750000D02*
X92400000Y-103650000D01*
X105350000Y-107700000D02*
X105350000Y-104400000D01*
X92150000Y-54050000D02*
X92100000Y-54000000D01*
X87750000Y-55630000D02*
X85660000Y-53540000D01*
X85800000Y-53380000D02*
X85800000Y-53400000D01*
X85660000Y-53540000D02*
X85500000Y-53380000D01*
X87750000Y-102600000D02*
X87750000Y-55630000D01*
X105350000Y-104400000D02*
X104700000Y-103750000D01*
X82012500Y-53380000D02*
X85500000Y-53380000D01*
X85500000Y-53380000D02*
X85800000Y-53380000D01*
X103450000Y-43050000D02*
X92500000Y-54000000D01*
X87380000Y-53380000D02*
X88000000Y-54000000D01*
X145600000Y-44500000D02*
X144150000Y-43050000D01*
%TO.N,+5V*%
X158050000Y-137000000D02*
X157050000Y-136000000D01*
X117950000Y-124150000D02*
X117750000Y-124350000D01*
X154450000Y-125100000D02*
X155875000Y-123675000D01*
X156100000Y-123900000D02*
X156100000Y-128000000D01*
X117950000Y-124150000D02*
X120390000Y-124150000D01*
X154950000Y-129150000D02*
X154950000Y-134000000D01*
X151200000Y-125100000D02*
X154450000Y-125100000D01*
X109040000Y-124760000D02*
X109650000Y-124150000D01*
X109700000Y-116200000D02*
X119600000Y-116200000D01*
X121140000Y-117760000D02*
X121140000Y-121150000D01*
X117750000Y-124350000D02*
X118450000Y-125050000D01*
X107890000Y-107700000D02*
X107890000Y-114390000D01*
X119600000Y-116200000D02*
X121150000Y-117750000D01*
X118450000Y-125050000D02*
X144900000Y-125050000D01*
X156100000Y-123450000D02*
X156100000Y-123900000D01*
X156100000Y-108000000D02*
X156100000Y-123450000D01*
X160000000Y-137000000D02*
X158050000Y-137000000D01*
X155875000Y-123675000D02*
X156100000Y-123450000D01*
X120390000Y-124150000D02*
X121140000Y-123400000D01*
X121140000Y-121150000D02*
X121140000Y-123400000D01*
X117550000Y-124150000D02*
X117750000Y-124350000D01*
X156100000Y-128000000D02*
X154950000Y-129150000D01*
X155875000Y-123675000D02*
X156100000Y-123900000D01*
X109650000Y-124150000D02*
X117550000Y-124150000D01*
X109040000Y-130000000D02*
X109040000Y-124760000D01*
X107890000Y-114390000D02*
X109700000Y-116200000D01*
X121150000Y-117750000D02*
X121140000Y-117760000D01*
X117550000Y-124150000D02*
X117950000Y-124150000D01*
%TO.N,Q1*%
X90000000Y-148000000D02*
X92000000Y-150000000D01*
X92000000Y-150000000D02*
X105000000Y-150000000D01*
X105000000Y-150000000D02*
X106500000Y-151500000D01*
X97125000Y-33000000D02*
X94000000Y-33000000D01*
X94000000Y-33000000D02*
X90000000Y-37000000D01*
X106500000Y-151500000D02*
X106500000Y-155400000D01*
X90000000Y-37000000D02*
X90000000Y-148000000D01*
%TO.N,Net-(D1-A)*%
X99000000Y-34000000D02*
X97175000Y-35825000D01*
X99000000Y-33000000D02*
X99000000Y-34000000D01*
X97175000Y-35825000D02*
X97175000Y-40000000D01*
%TO.N,Net-(D2-A)*%
X143000000Y-38175000D02*
X141175000Y-40000000D01*
X143000000Y-33000000D02*
X143000000Y-38175000D01*
%TO.N,Q2*%
X105000000Y-149000000D02*
X109040000Y-153040000D01*
X91000000Y-51000000D02*
X91000000Y-147000000D01*
X141125000Y-33000000D02*
X109000000Y-33000000D01*
X109000000Y-33000000D02*
X91000000Y-51000000D01*
X109040000Y-153040000D02*
X109040000Y-155400000D01*
X91000000Y-147000000D02*
X93000000Y-149000000D01*
X93000000Y-149000000D02*
X105000000Y-149000000D01*
%TO.N,Q3*%
X151000000Y-35000000D02*
X151000000Y-33000000D01*
X167000000Y-53000000D02*
X168000000Y-54000000D01*
X151000000Y-33000000D02*
X151000000Y-32000000D01*
X159000000Y-53000000D02*
X167000000Y-53000000D01*
X89125000Y-31875000D02*
X89125000Y-33000000D01*
X149125000Y-43125000D02*
X159000000Y-53000000D01*
X90000000Y-31000000D02*
X89125000Y-31875000D01*
X150000000Y-31000000D02*
X90000000Y-31000000D01*
X168000000Y-126000000D02*
X166912500Y-127087500D01*
X166912500Y-127087500D02*
X160000000Y-127087500D01*
X168000000Y-54000000D02*
X168000000Y-126000000D01*
X151000000Y-32000000D02*
X150000000Y-31000000D01*
X149125000Y-43125000D02*
X149125000Y-36875000D01*
X149125000Y-36875000D02*
X151000000Y-35000000D01*
%TO.N,/IN2*%
X149050000Y-118150000D02*
X142900000Y-112000000D01*
X121740000Y-153060000D02*
X128350000Y-146450000D01*
X130110000Y-111010000D02*
X130110000Y-107850000D01*
X142900000Y-112000000D02*
X131100000Y-112000000D01*
X121740000Y-155400000D02*
X121740000Y-153060000D01*
X149000000Y-132050000D02*
X149050000Y-132050000D01*
X149050000Y-132050000D02*
X149050000Y-118150000D01*
X128350000Y-134650000D02*
X129800000Y-133200000D01*
X128350000Y-146450000D02*
X128350000Y-134650000D01*
X147850000Y-133200000D02*
X149000000Y-132050000D01*
X129800000Y-133200000D02*
X147850000Y-133200000D01*
X131100000Y-112000000D02*
X130110000Y-111010000D01*
%TO.N,/servosignal*%
X142700000Y-121150000D02*
X123680000Y-121150000D01*
X148400000Y-131450000D02*
X148400000Y-126850000D01*
X131900000Y-155400000D02*
X131900000Y-135450000D01*
X148400000Y-126850000D02*
X142700000Y-121150000D01*
X131900000Y-135450000D02*
X132350000Y-135000000D01*
X135100000Y-132300000D02*
X147550000Y-132300000D01*
X147550000Y-132300000D02*
X148400000Y-131450000D01*
%TO.N,/IN1*%
X129360000Y-134840000D02*
X130150000Y-134050000D01*
X130150000Y-134050000D02*
X148350000Y-134050000D01*
X132650000Y-110350000D02*
X132650000Y-107850000D01*
X148350000Y-134050000D02*
X149800000Y-132600000D01*
X149800000Y-117450000D02*
X143450000Y-111100000D01*
X133400000Y-111100000D02*
X132650000Y-110350000D01*
X143450000Y-111100000D02*
X133400000Y-111100000D01*
X129360000Y-155400000D02*
X129360000Y-134840000D01*
X149800000Y-132600000D02*
X149800000Y-117450000D01*
%TO.N,Net-(Q1-D)*%
X160000000Y-128912500D02*
X158087500Y-128912500D01*
X156000000Y-131000000D02*
X156000000Y-139000000D01*
X156540000Y-139540000D02*
X156000000Y-139000000D01*
X160000000Y-139540000D02*
X156540000Y-139540000D01*
X158087500Y-128912500D02*
X156000000Y-131000000D01*
%TO.N,Net-(BT1-+)*%
X81460000Y-61552500D02*
X82012500Y-61000000D01*
X81460000Y-66000000D02*
X81460000Y-61552500D01*
%TD*%
M02*
