%TF.GenerationSoftware,KiCad,Pcbnew,9.0.6*%
%TF.CreationDate,2026-09-05T08:29:44+02:00*%
%TF.ProjectId,Tiskana_plocica_za_kontroler_lego_auta,5469736b-616e-4615-9f70-6c6f63696361,rev?*%
%TF.SameCoordinates,Original*%
%TF.FileFunction,Legend,Top*%
%TF.FilePolarity,Positive*%
%FSLAX46Y46*%
G04 Gerber Fmt 4.6, Leading zero omitted, Abs format (unit mm)*
G04 Created by KiCad (PCBNEW 9.0.6) date 2026-09-05 08:29:44*
%MOMM*%
%LPD*%
G01*
G04 APERTURE LIST*
%ADD10C,0.150000*%
%ADD11C,0.120000*%
G04 APERTURE END LIST*
D10*
X74833333Y-132104819D02*
X74500000Y-131628628D01*
X74261905Y-132104819D02*
X74261905Y-131104819D01*
X74261905Y-131104819D02*
X74642857Y-131104819D01*
X74642857Y-131104819D02*
X74738095Y-131152438D01*
X74738095Y-131152438D02*
X74785714Y-131200057D01*
X74785714Y-131200057D02*
X74833333Y-131295295D01*
X74833333Y-131295295D02*
X74833333Y-131438152D01*
X74833333Y-131438152D02*
X74785714Y-131533390D01*
X74785714Y-131533390D02*
X74738095Y-131581009D01*
X74738095Y-131581009D02*
X74642857Y-131628628D01*
X74642857Y-131628628D02*
X74261905Y-131628628D01*
X75690476Y-131104819D02*
X75500000Y-131104819D01*
X75500000Y-131104819D02*
X75404762Y-131152438D01*
X75404762Y-131152438D02*
X75357143Y-131200057D01*
X75357143Y-131200057D02*
X75261905Y-131342914D01*
X75261905Y-131342914D02*
X75214286Y-131533390D01*
X75214286Y-131533390D02*
X75214286Y-131914342D01*
X75214286Y-131914342D02*
X75261905Y-132009580D01*
X75261905Y-132009580D02*
X75309524Y-132057200D01*
X75309524Y-132057200D02*
X75404762Y-132104819D01*
X75404762Y-132104819D02*
X75595238Y-132104819D01*
X75595238Y-132104819D02*
X75690476Y-132057200D01*
X75690476Y-132057200D02*
X75738095Y-132009580D01*
X75738095Y-132009580D02*
X75785714Y-131914342D01*
X75785714Y-131914342D02*
X75785714Y-131676247D01*
X75785714Y-131676247D02*
X75738095Y-131581009D01*
X75738095Y-131581009D02*
X75690476Y-131533390D01*
X75690476Y-131533390D02*
X75595238Y-131485771D01*
X75595238Y-131485771D02*
X75404762Y-131485771D01*
X75404762Y-131485771D02*
X75309524Y-131533390D01*
X75309524Y-131533390D02*
X75261905Y-131581009D01*
X75261905Y-131581009D02*
X75214286Y-131676247D01*
X120017200Y-70173332D02*
X120064819Y-70030475D01*
X120064819Y-70030475D02*
X120064819Y-69792380D01*
X120064819Y-69792380D02*
X120017200Y-69697142D01*
X120017200Y-69697142D02*
X119969580Y-69649523D01*
X119969580Y-69649523D02*
X119874342Y-69601904D01*
X119874342Y-69601904D02*
X119779104Y-69601904D01*
X119779104Y-69601904D02*
X119683866Y-69649523D01*
X119683866Y-69649523D02*
X119636247Y-69697142D01*
X119636247Y-69697142D02*
X119588628Y-69792380D01*
X119588628Y-69792380D02*
X119541009Y-69982856D01*
X119541009Y-69982856D02*
X119493390Y-70078094D01*
X119493390Y-70078094D02*
X119445771Y-70125713D01*
X119445771Y-70125713D02*
X119350533Y-70173332D01*
X119350533Y-70173332D02*
X119255295Y-70173332D01*
X119255295Y-70173332D02*
X119160057Y-70125713D01*
X119160057Y-70125713D02*
X119112438Y-70078094D01*
X119112438Y-70078094D02*
X119064819Y-69982856D01*
X119064819Y-69982856D02*
X119064819Y-69744761D01*
X119064819Y-69744761D02*
X119112438Y-69601904D01*
X119064819Y-69268570D02*
X120064819Y-69030475D01*
X120064819Y-69030475D02*
X119350533Y-68839999D01*
X119350533Y-68839999D02*
X120064819Y-68649523D01*
X120064819Y-68649523D02*
X119064819Y-68411428D01*
X120064819Y-67506666D02*
X120064819Y-68078094D01*
X120064819Y-67792380D02*
X119064819Y-67792380D01*
X119064819Y-67792380D02*
X119207676Y-67887618D01*
X119207676Y-67887618D02*
X119302914Y-67982856D01*
X119302914Y-67982856D02*
X119350533Y-68078094D01*
X83804819Y-90166666D02*
X83328628Y-90499999D01*
X83804819Y-90738094D02*
X82804819Y-90738094D01*
X82804819Y-90738094D02*
X82804819Y-90357142D01*
X82804819Y-90357142D02*
X82852438Y-90261904D01*
X82852438Y-90261904D02*
X82900057Y-90214285D01*
X82900057Y-90214285D02*
X82995295Y-90166666D01*
X82995295Y-90166666D02*
X83138152Y-90166666D01*
X83138152Y-90166666D02*
X83233390Y-90214285D01*
X83233390Y-90214285D02*
X83281009Y-90261904D01*
X83281009Y-90261904D02*
X83328628Y-90357142D01*
X83328628Y-90357142D02*
X83328628Y-90738094D01*
X82900057Y-89785713D02*
X82852438Y-89738094D01*
X82852438Y-89738094D02*
X82804819Y-89642856D01*
X82804819Y-89642856D02*
X82804819Y-89404761D01*
X82804819Y-89404761D02*
X82852438Y-89309523D01*
X82852438Y-89309523D02*
X82900057Y-89261904D01*
X82900057Y-89261904D02*
X82995295Y-89214285D01*
X82995295Y-89214285D02*
X83090533Y-89214285D01*
X83090533Y-89214285D02*
X83233390Y-89261904D01*
X83233390Y-89261904D02*
X83804819Y-89833332D01*
X83804819Y-89833332D02*
X83804819Y-89214285D01*
X98666666Y-88204819D02*
X98666666Y-88919104D01*
X98666666Y-88919104D02*
X98619047Y-89061961D01*
X98619047Y-89061961D02*
X98523809Y-89157200D01*
X98523809Y-89157200D02*
X98380952Y-89204819D01*
X98380952Y-89204819D02*
X98285714Y-89204819D01*
X99095238Y-88300057D02*
X99142857Y-88252438D01*
X99142857Y-88252438D02*
X99238095Y-88204819D01*
X99238095Y-88204819D02*
X99476190Y-88204819D01*
X99476190Y-88204819D02*
X99571428Y-88252438D01*
X99571428Y-88252438D02*
X99619047Y-88300057D01*
X99619047Y-88300057D02*
X99666666Y-88395295D01*
X99666666Y-88395295D02*
X99666666Y-88490533D01*
X99666666Y-88490533D02*
X99619047Y-88633390D01*
X99619047Y-88633390D02*
X99047619Y-89204819D01*
X99047619Y-89204819D02*
X99666666Y-89204819D01*
X121238095Y-42204819D02*
X121238095Y-41204819D01*
X121238095Y-41681009D02*
X121809523Y-41681009D01*
X121809523Y-42204819D02*
X121809523Y-41204819D01*
X122809523Y-42204819D02*
X122238095Y-42204819D01*
X122523809Y-42204819D02*
X122523809Y-41204819D01*
X122523809Y-41204819D02*
X122428571Y-41347676D01*
X122428571Y-41347676D02*
X122333333Y-41442914D01*
X122333333Y-41442914D02*
X122238095Y-41490533D01*
X73804819Y-90166666D02*
X73328628Y-90499999D01*
X73804819Y-90738094D02*
X72804819Y-90738094D01*
X72804819Y-90738094D02*
X72804819Y-90357142D01*
X72804819Y-90357142D02*
X72852438Y-90261904D01*
X72852438Y-90261904D02*
X72900057Y-90214285D01*
X72900057Y-90214285D02*
X72995295Y-90166666D01*
X72995295Y-90166666D02*
X73138152Y-90166666D01*
X73138152Y-90166666D02*
X73233390Y-90214285D01*
X73233390Y-90214285D02*
X73281009Y-90261904D01*
X73281009Y-90261904D02*
X73328628Y-90357142D01*
X73328628Y-90357142D02*
X73328628Y-90738094D01*
X73138152Y-89309523D02*
X73804819Y-89309523D01*
X72757200Y-89547618D02*
X73471485Y-89785713D01*
X73471485Y-89785713D02*
X73471485Y-89166666D01*
X74261905Y-63654819D02*
X74261905Y-62654819D01*
X74261905Y-62654819D02*
X74500000Y-62654819D01*
X74500000Y-62654819D02*
X74642857Y-62702438D01*
X74642857Y-62702438D02*
X74738095Y-62797676D01*
X74738095Y-62797676D02*
X74785714Y-62892914D01*
X74785714Y-62892914D02*
X74833333Y-63083390D01*
X74833333Y-63083390D02*
X74833333Y-63226247D01*
X74833333Y-63226247D02*
X74785714Y-63416723D01*
X74785714Y-63416723D02*
X74738095Y-63511961D01*
X74738095Y-63511961D02*
X74642857Y-63607200D01*
X74642857Y-63607200D02*
X74500000Y-63654819D01*
X74500000Y-63654819D02*
X74261905Y-63654819D01*
X75785714Y-63654819D02*
X75214286Y-63654819D01*
X75500000Y-63654819D02*
X75500000Y-62654819D01*
X75500000Y-62654819D02*
X75404762Y-62797676D01*
X75404762Y-62797676D02*
X75309524Y-62892914D01*
X75309524Y-62892914D02*
X75214286Y-62940533D01*
X121666666Y-88204819D02*
X121666666Y-88919104D01*
X121666666Y-88919104D02*
X121619047Y-89061961D01*
X121619047Y-89061961D02*
X121523809Y-89157200D01*
X121523809Y-89157200D02*
X121380952Y-89204819D01*
X121380952Y-89204819D02*
X121285714Y-89204819D01*
X122047619Y-88204819D02*
X122666666Y-88204819D01*
X122666666Y-88204819D02*
X122333333Y-88585771D01*
X122333333Y-88585771D02*
X122476190Y-88585771D01*
X122476190Y-88585771D02*
X122571428Y-88633390D01*
X122571428Y-88633390D02*
X122619047Y-88681009D01*
X122619047Y-88681009D02*
X122666666Y-88776247D01*
X122666666Y-88776247D02*
X122666666Y-89014342D01*
X122666666Y-89014342D02*
X122619047Y-89109580D01*
X122619047Y-89109580D02*
X122571428Y-89157200D01*
X122571428Y-89157200D02*
X122476190Y-89204819D01*
X122476190Y-89204819D02*
X122190476Y-89204819D01*
X122190476Y-89204819D02*
X122095238Y-89157200D01*
X122095238Y-89157200D02*
X122047619Y-89109580D01*
X91784819Y-64308333D02*
X92499104Y-64308333D01*
X92499104Y-64308333D02*
X92641961Y-64355952D01*
X92641961Y-64355952D02*
X92737200Y-64451190D01*
X92737200Y-64451190D02*
X92784819Y-64594047D01*
X92784819Y-64594047D02*
X92784819Y-64689285D01*
X92118152Y-63403571D02*
X92784819Y-63403571D01*
X91737200Y-63641666D02*
X92451485Y-63879761D01*
X92451485Y-63879761D02*
X92451485Y-63260714D01*
X74833333Y-133804819D02*
X74500000Y-133328628D01*
X74261905Y-133804819D02*
X74261905Y-132804819D01*
X74261905Y-132804819D02*
X74642857Y-132804819D01*
X74642857Y-132804819D02*
X74738095Y-132852438D01*
X74738095Y-132852438D02*
X74785714Y-132900057D01*
X74785714Y-132900057D02*
X74833333Y-132995295D01*
X74833333Y-132995295D02*
X74833333Y-133138152D01*
X74833333Y-133138152D02*
X74785714Y-133233390D01*
X74785714Y-133233390D02*
X74738095Y-133281009D01*
X74738095Y-133281009D02*
X74642857Y-133328628D01*
X74642857Y-133328628D02*
X74261905Y-133328628D01*
X75738095Y-132804819D02*
X75261905Y-132804819D01*
X75261905Y-132804819D02*
X75214286Y-133281009D01*
X75214286Y-133281009D02*
X75261905Y-133233390D01*
X75261905Y-133233390D02*
X75357143Y-133185771D01*
X75357143Y-133185771D02*
X75595238Y-133185771D01*
X75595238Y-133185771D02*
X75690476Y-133233390D01*
X75690476Y-133233390D02*
X75738095Y-133281009D01*
X75738095Y-133281009D02*
X75785714Y-133376247D01*
X75785714Y-133376247D02*
X75785714Y-133614342D01*
X75785714Y-133614342D02*
X75738095Y-133709580D01*
X75738095Y-133709580D02*
X75690476Y-133757200D01*
X75690476Y-133757200D02*
X75595238Y-133804819D01*
X75595238Y-133804819D02*
X75357143Y-133804819D01*
X75357143Y-133804819D02*
X75261905Y-133757200D01*
X75261905Y-133757200D02*
X75214286Y-133709580D01*
X74311905Y-53504819D02*
X74311905Y-52504819D01*
X74311905Y-52504819D02*
X74550000Y-52504819D01*
X74550000Y-52504819D02*
X74692857Y-52552438D01*
X74692857Y-52552438D02*
X74788095Y-52647676D01*
X74788095Y-52647676D02*
X74835714Y-52742914D01*
X74835714Y-52742914D02*
X74883333Y-52933390D01*
X74883333Y-52933390D02*
X74883333Y-53076247D01*
X74883333Y-53076247D02*
X74835714Y-53266723D01*
X74835714Y-53266723D02*
X74788095Y-53361961D01*
X74788095Y-53361961D02*
X74692857Y-53457200D01*
X74692857Y-53457200D02*
X74550000Y-53504819D01*
X74550000Y-53504819D02*
X74311905Y-53504819D01*
X75216667Y-52504819D02*
X75835714Y-52504819D01*
X75835714Y-52504819D02*
X75502381Y-52885771D01*
X75502381Y-52885771D02*
X75645238Y-52885771D01*
X75645238Y-52885771D02*
X75740476Y-52933390D01*
X75740476Y-52933390D02*
X75788095Y-52981009D01*
X75788095Y-52981009D02*
X75835714Y-53076247D01*
X75835714Y-53076247D02*
X75835714Y-53314342D01*
X75835714Y-53314342D02*
X75788095Y-53409580D01*
X75788095Y-53409580D02*
X75740476Y-53457200D01*
X75740476Y-53457200D02*
X75645238Y-53504819D01*
X75645238Y-53504819D02*
X75359524Y-53504819D01*
X75359524Y-53504819D02*
X75264286Y-53457200D01*
X75264286Y-53457200D02*
X75216667Y-53409580D01*
X74261905Y-48554819D02*
X74261905Y-47554819D01*
X74261905Y-47554819D02*
X74500000Y-47554819D01*
X74500000Y-47554819D02*
X74642857Y-47602438D01*
X74642857Y-47602438D02*
X74738095Y-47697676D01*
X74738095Y-47697676D02*
X74785714Y-47792914D01*
X74785714Y-47792914D02*
X74833333Y-47983390D01*
X74833333Y-47983390D02*
X74833333Y-48126247D01*
X74833333Y-48126247D02*
X74785714Y-48316723D01*
X74785714Y-48316723D02*
X74738095Y-48411961D01*
X74738095Y-48411961D02*
X74642857Y-48507200D01*
X74642857Y-48507200D02*
X74500000Y-48554819D01*
X74500000Y-48554819D02*
X74261905Y-48554819D01*
X75690476Y-47888152D02*
X75690476Y-48554819D01*
X75452381Y-47507200D02*
X75214286Y-48221485D01*
X75214286Y-48221485D02*
X75833333Y-48221485D01*
X82216666Y-134384819D02*
X82216666Y-135099104D01*
X82216666Y-135099104D02*
X82169047Y-135241961D01*
X82169047Y-135241961D02*
X82073809Y-135337200D01*
X82073809Y-135337200D02*
X81930952Y-135384819D01*
X81930952Y-135384819D02*
X81835714Y-135384819D01*
X83216666Y-135384819D02*
X82645238Y-135384819D01*
X82930952Y-135384819D02*
X82930952Y-134384819D01*
X82930952Y-134384819D02*
X82835714Y-134527676D01*
X82835714Y-134527676D02*
X82740476Y-134622914D01*
X82740476Y-134622914D02*
X82645238Y-134670533D01*
X88804819Y-90166666D02*
X88328628Y-90499999D01*
X88804819Y-90738094D02*
X87804819Y-90738094D01*
X87804819Y-90738094D02*
X87804819Y-90357142D01*
X87804819Y-90357142D02*
X87852438Y-90261904D01*
X87852438Y-90261904D02*
X87900057Y-90214285D01*
X87900057Y-90214285D02*
X87995295Y-90166666D01*
X87995295Y-90166666D02*
X88138152Y-90166666D01*
X88138152Y-90166666D02*
X88233390Y-90214285D01*
X88233390Y-90214285D02*
X88281009Y-90261904D01*
X88281009Y-90261904D02*
X88328628Y-90357142D01*
X88328628Y-90357142D02*
X88328628Y-90738094D01*
X88804819Y-89214285D02*
X88804819Y-89785713D01*
X88804819Y-89499999D02*
X87804819Y-89499999D01*
X87804819Y-89499999D02*
X87947676Y-89595237D01*
X87947676Y-89595237D02*
X88042914Y-89690475D01*
X88042914Y-89690475D02*
X88090533Y-89785713D01*
X78804819Y-90166666D02*
X78328628Y-90499999D01*
X78804819Y-90738094D02*
X77804819Y-90738094D01*
X77804819Y-90738094D02*
X77804819Y-90357142D01*
X77804819Y-90357142D02*
X77852438Y-90261904D01*
X77852438Y-90261904D02*
X77900057Y-90214285D01*
X77900057Y-90214285D02*
X77995295Y-90166666D01*
X77995295Y-90166666D02*
X78138152Y-90166666D01*
X78138152Y-90166666D02*
X78233390Y-90214285D01*
X78233390Y-90214285D02*
X78281009Y-90261904D01*
X78281009Y-90261904D02*
X78328628Y-90357142D01*
X78328628Y-90357142D02*
X78328628Y-90738094D01*
X77804819Y-89833332D02*
X77804819Y-89214285D01*
X77804819Y-89214285D02*
X78185771Y-89547618D01*
X78185771Y-89547618D02*
X78185771Y-89404761D01*
X78185771Y-89404761D02*
X78233390Y-89309523D01*
X78233390Y-89309523D02*
X78281009Y-89261904D01*
X78281009Y-89261904D02*
X78376247Y-89214285D01*
X78376247Y-89214285D02*
X78614342Y-89214285D01*
X78614342Y-89214285D02*
X78709580Y-89261904D01*
X78709580Y-89261904D02*
X78757200Y-89309523D01*
X78757200Y-89309523D02*
X78804819Y-89404761D01*
X78804819Y-89404761D02*
X78804819Y-89690475D01*
X78804819Y-89690475D02*
X78757200Y-89785713D01*
X78757200Y-89785713D02*
X78709580Y-89833332D01*
X74524405Y-58304819D02*
X74524405Y-57304819D01*
X74524405Y-57304819D02*
X74762500Y-57304819D01*
X74762500Y-57304819D02*
X74905357Y-57352438D01*
X74905357Y-57352438D02*
X75000595Y-57447676D01*
X75000595Y-57447676D02*
X75048214Y-57542914D01*
X75048214Y-57542914D02*
X75095833Y-57733390D01*
X75095833Y-57733390D02*
X75095833Y-57876247D01*
X75095833Y-57876247D02*
X75048214Y-58066723D01*
X75048214Y-58066723D02*
X75000595Y-58161961D01*
X75000595Y-58161961D02*
X74905357Y-58257200D01*
X74905357Y-58257200D02*
X74762500Y-58304819D01*
X74762500Y-58304819D02*
X74524405Y-58304819D01*
X75476786Y-57400057D02*
X75524405Y-57352438D01*
X75524405Y-57352438D02*
X75619643Y-57304819D01*
X75619643Y-57304819D02*
X75857738Y-57304819D01*
X75857738Y-57304819D02*
X75952976Y-57352438D01*
X75952976Y-57352438D02*
X76000595Y-57400057D01*
X76000595Y-57400057D02*
X76048214Y-57495295D01*
X76048214Y-57495295D02*
X76048214Y-57590533D01*
X76048214Y-57590533D02*
X76000595Y-57733390D01*
X76000595Y-57733390D02*
X75429167Y-58304819D01*
X75429167Y-58304819D02*
X76048214Y-58304819D01*
D11*
%TO.C,R6*%
X75227064Y-129265000D02*
X74772936Y-129265000D01*
X75227064Y-130735000D02*
X74772936Y-130735000D01*
%TO.C,SW1*%
X120790000Y-73950000D02*
X123510000Y-73950000D01*
X123510000Y-63730000D01*
X120790000Y-63730000D01*
X120790000Y-73950000D01*
%TO.C,R2*%
X84265000Y-90227064D02*
X84265000Y-89772936D01*
X85735000Y-90227064D02*
X85735000Y-89772936D01*
%TO.C,J2*%
X97670000Y-92790000D02*
X97670000Y-141110000D01*
X97670000Y-92790000D02*
X100330000Y-92790000D01*
X97670000Y-141110000D02*
X100330000Y-141110000D01*
X99000000Y-90190000D02*
X100330000Y-90190000D01*
X100330000Y-90190000D02*
X100330000Y-91520000D01*
X100330000Y-92790000D02*
X100330000Y-141110000D01*
%TO.C,R4*%
X74265000Y-90227064D02*
X74265000Y-89772936D01*
X75735000Y-90227064D02*
X75735000Y-89772936D01*
%TO.C,D1*%
X73315000Y-64040000D02*
X73315000Y-65960000D01*
X73315000Y-65960000D02*
X76000000Y-65960000D01*
X76000000Y-64040000D02*
X73315000Y-64040000D01*
%TO.C,J3*%
X120670000Y-92790000D02*
X120670000Y-141110000D01*
X120670000Y-92790000D02*
X123330000Y-92790000D01*
X120670000Y-141110000D02*
X123330000Y-141110000D01*
X122000000Y-90190000D02*
X123330000Y-90190000D01*
X123330000Y-90190000D02*
X123330000Y-91520000D01*
X123330000Y-92790000D02*
X123330000Y-141110000D01*
%TO.C,J4*%
X93770000Y-62645000D02*
X95100000Y-62645000D01*
X93770000Y-63975000D02*
X93770000Y-62645000D01*
X96370000Y-62645000D02*
X106590000Y-62645000D01*
X96370000Y-65305000D02*
X96370000Y-62645000D01*
X96370000Y-65305000D02*
X106590000Y-65305000D01*
X106590000Y-65305000D02*
X106590000Y-62645000D01*
%TO.C,R5*%
X74772936Y-134265000D02*
X75227064Y-134265000D01*
X74772936Y-135735000D02*
X75227064Y-135735000D01*
%TO.C,D3*%
X73315000Y-54040000D02*
X73315000Y-55960000D01*
X73315000Y-55960000D02*
X76000000Y-55960000D01*
X76000000Y-54040000D02*
X73315000Y-54040000D01*
%TO.C,D4*%
X73315000Y-49040000D02*
X73315000Y-50960000D01*
X73315000Y-50960000D02*
X76000000Y-50960000D01*
X76000000Y-49040000D02*
X73315000Y-49040000D01*
%TO.C,J1*%
X81220000Y-138910000D02*
X81220000Y-139030000D01*
X81220000Y-139030000D02*
X83880000Y-139030000D01*
X82550000Y-136370000D02*
X83880000Y-136370000D01*
X83880000Y-136370000D02*
X83880000Y-137700000D01*
X83880000Y-138910000D02*
X83880000Y-139030000D01*
%TO.C,R1*%
X89265000Y-90227064D02*
X89265000Y-89772936D01*
X90735000Y-90227064D02*
X90735000Y-89772936D01*
%TO.C,R3*%
X79265000Y-90227064D02*
X79265000Y-89772936D01*
X80735000Y-90227064D02*
X80735000Y-89772936D01*
%TO.C,D2*%
X73315000Y-59040000D02*
X73315000Y-60960000D01*
X73315000Y-60960000D02*
X76000000Y-60960000D01*
X76000000Y-59040000D02*
X73315000Y-59040000D01*
%TD*%
M02*
