%TF.GenerationSoftware,KiCad,Pcbnew,9.0.6*%
%TF.CreationDate,2026-09-05T08:29:44+02:00*%
%TF.ProjectId,Tiskana_plocica_za_kontroler_lego_auta,5469736b-616e-4615-9f70-6c6f63696361,rev?*%
%TF.SameCoordinates,Original*%
%TF.FileFunction,Soldermask,Bot*%
%TF.FilePolarity,Negative*%
%FSLAX46Y46*%
G04 Gerber Fmt 4.6, Leading zero omitted, Abs format (unit mm)*
G04 Created by KiCad (PCBNEW 9.0.6) date 2026-09-05 08:29:44*
%MOMM*%
%LPD*%
G01*
G04 APERTURE LIST*
%ADD10R,1.500000X1.500000*%
%ADD11C,1.600000*%
%ADD12R,1.700000X1.700000*%
%ADD13C,1.700000*%
%ADD14C,5.300000*%
G04 APERTURE END LIST*
D10*
%TO.C,SW1*%
X122150000Y-68840000D03*
D11*
X122150000Y-71380000D03*
X122150000Y-66300000D03*
%TD*%
D12*
%TO.C,J2*%
X99000000Y-91520000D03*
D13*
X99000000Y-94060000D03*
X99000000Y-96600000D03*
X99000000Y-99140000D03*
X99000000Y-101680000D03*
X99000000Y-104220000D03*
X99000000Y-106760000D03*
X99000000Y-109300000D03*
X99000000Y-111840000D03*
X99000000Y-114380000D03*
X99000000Y-116920000D03*
X99000000Y-119460000D03*
X99000000Y-122000000D03*
X99000000Y-124540000D03*
X99000000Y-127080000D03*
X99000000Y-129620000D03*
X99000000Y-132160000D03*
X99000000Y-134700000D03*
X99000000Y-137240000D03*
X99000000Y-139780000D03*
%TD*%
D14*
%TO.C,H1*%
X122000000Y-48000000D03*
%TD*%
D12*
%TO.C,J3*%
X122000000Y-91520000D03*
D13*
X122000000Y-94060000D03*
X122000000Y-96600000D03*
X122000000Y-99140000D03*
X122000000Y-101680000D03*
X122000000Y-104220000D03*
X122000000Y-106760000D03*
X122000000Y-109300000D03*
X122000000Y-111840000D03*
X122000000Y-114380000D03*
X122000000Y-116920000D03*
X122000000Y-119460000D03*
X122000000Y-122000000D03*
X122000000Y-124540000D03*
X122000000Y-127080000D03*
X122000000Y-129620000D03*
X122000000Y-132160000D03*
X122000000Y-134700000D03*
X122000000Y-137240000D03*
X122000000Y-139780000D03*
%TD*%
D12*
%TO.C,J4*%
X95100000Y-63975000D03*
D13*
X97640000Y-63975000D03*
X100180000Y-63975000D03*
X102720000Y-63975000D03*
X105260000Y-63975000D03*
%TD*%
D12*
%TO.C,J1*%
X82550000Y-137700000D03*
%TD*%
M02*
