%TF.GenerationSoftware,KiCad,Pcbnew,9.0.6*%
%TF.CreationDate,2026-09-05T08:29:44+02:00*%
%TF.ProjectId,Tiskana_plocica_za_kontroler_lego_auta,5469736b-616e-4615-9f70-6c6f63696361,rev?*%
%TF.SameCoordinates,Original*%
%TF.FileFunction,Copper,L2,Bot*%
%TF.FilePolarity,Positive*%
%FSLAX46Y46*%
G04 Gerber Fmt 4.6, Leading zero omitted, Abs format (unit mm)*
G04 Created by KiCad (PCBNEW 9.0.6) date 2026-09-05 08:29:44*
%MOMM*%
%LPD*%
G01*
G04 APERTURE LIST*
%TA.AperFunction,ComponentPad*%
%ADD10R,1.500000X1.500000*%
%TD*%
%TA.AperFunction,ComponentPad*%
%ADD11C,1.600000*%
%TD*%
%TA.AperFunction,ComponentPad*%
%ADD12R,1.700000X1.700000*%
%TD*%
%TA.AperFunction,ComponentPad*%
%ADD13C,1.700000*%
%TD*%
%TA.AperFunction,ViaPad*%
%ADD14C,0.700000*%
%TD*%
%TA.AperFunction,Conductor*%
%ADD15C,0.300000*%
%TD*%
%TA.AperFunction,Conductor*%
%ADD16C,0.200000*%
%TD*%
G04 APERTURE END LIST*
D10*
%TO.P,SW1,1,A*%
%TO.N,Net-(J2-Pin_2)*%
X122150000Y-68840000D03*
D11*
%TO.P,SW1,2,B*%
%TO.N,+3.3V*%
X122150000Y-71380000D03*
%TO.P,SW1,3,C*%
%TO.N,unconnected-(SW1-C-Pad3)*%
X122150000Y-66300000D03*
%TD*%
D12*
%TO.P,J2,1,Pin_1*%
%TO.N,+3.3V*%
X99000000Y-91520000D03*
D13*
%TO.P,J2,2,Pin_2*%
%TO.N,Net-(J2-Pin_2)*%
X99000000Y-94060000D03*
%TO.P,J2,3,Pin_3*%
%TO.N,unconnected-(J2-Pin_3-Pad3)*%
X99000000Y-96600000D03*
%TO.P,J2,4,Pin_4*%
%TO.N,unconnected-(J2-Pin_4-Pad4)*%
X99000000Y-99140000D03*
%TO.P,J2,5,Pin_5*%
%TO.N,ury*%
X99000000Y-101680000D03*
%TO.P,J2,6,Pin_6*%
%TO.N,sw*%
X99000000Y-104220000D03*
%TO.P,J2,7,Pin_7*%
%TO.N,urx*%
X99000000Y-106760000D03*
%TO.P,J2,8,Pin_8*%
%TO.N,ADC*%
X99000000Y-109300000D03*
%TO.P,J2,9,Pin_9*%
%TO.N,BAT100*%
X99000000Y-111840000D03*
%TO.P,J2,10,Pin_10*%
%TO.N,BAT75*%
X99000000Y-114380000D03*
%TO.P,J2,11,Pin_11*%
%TO.N,BAT50*%
X99000000Y-116920000D03*
%TO.P,J2,12,Pin_12*%
%TO.N,unconnected-(J2-Pin_12-Pad12)*%
X99000000Y-119460000D03*
%TO.P,J2,13,Pin_13*%
%TO.N,unconnected-(J2-Pin_13-Pad13)*%
X99000000Y-122000000D03*
%TO.P,J2,14,Pin_14*%
%TO.N,BAT25*%
X99000000Y-124540000D03*
%TO.P,J2,15,Pin_15*%
%TO.N,unconnected-(J2-Pin_15-Pad15)*%
X99000000Y-127080000D03*
%TO.P,J2,16,Pin_16*%
%TO.N,unconnected-(J2-Pin_16-Pad16)*%
X99000000Y-129620000D03*
%TO.P,J2,17,Pin_17*%
%TO.N,unconnected-(J2-Pin_17-Pad17)*%
X99000000Y-132160000D03*
%TO.P,J2,18,Pin_18*%
%TO.N,unconnected-(J2-Pin_18-Pad18)*%
X99000000Y-134700000D03*
%TO.P,J2,19,Pin_19*%
%TO.N,unconnected-(J2-Pin_19-Pad19)*%
X99000000Y-137240000D03*
%TO.P,J2,20,Pin_20*%
%TO.N,unconnected-(J2-Pin_20-Pad20)*%
X99000000Y-139780000D03*
%TD*%
D12*
%TO.P,J3,1,Pin_1*%
%TO.N,GND*%
X122000000Y-91520000D03*
D13*
%TO.P,J3,2,Pin_2*%
%TO.N,unconnected-(J3-Pin_2-Pad2)*%
X122000000Y-94060000D03*
%TO.P,J3,3,Pin_3*%
%TO.N,unconnected-(J3-Pin_3-Pad3)*%
X122000000Y-96600000D03*
%TO.P,J3,4,Pin_4*%
%TO.N,unconnected-(J3-Pin_4-Pad4)*%
X122000000Y-99140000D03*
%TO.P,J3,5,Pin_5*%
%TO.N,unconnected-(J3-Pin_5-Pad5)*%
X122000000Y-101680000D03*
%TO.P,J3,6,Pin_6*%
%TO.N,unconnected-(J3-Pin_6-Pad6)*%
X122000000Y-104220000D03*
%TO.P,J3,7,Pin_7*%
%TO.N,unconnected-(J3-Pin_7-Pad7)*%
X122000000Y-106760000D03*
%TO.P,J3,8,Pin_8*%
%TO.N,unconnected-(J3-Pin_8-Pad8)*%
X122000000Y-109300000D03*
%TO.P,J3,9,Pin_9*%
%TO.N,unconnected-(J3-Pin_9-Pad9)*%
X122000000Y-111840000D03*
%TO.P,J3,10,Pin_10*%
%TO.N,unconnected-(J3-Pin_10-Pad10)*%
X122000000Y-114380000D03*
%TO.P,J3,11,Pin_11*%
%TO.N,unconnected-(J3-Pin_11-Pad11)*%
X122000000Y-116920000D03*
%TO.P,J3,12,Pin_12*%
%TO.N,unconnected-(J3-Pin_12-Pad12)*%
X122000000Y-119460000D03*
%TO.P,J3,13,Pin_13*%
%TO.N,unconnected-(J3-Pin_13-Pad13)*%
X122000000Y-122000000D03*
%TO.P,J3,14,Pin_14*%
%TO.N,unconnected-(J3-Pin_14-Pad14)*%
X122000000Y-124540000D03*
%TO.P,J3,15,Pin_15*%
%TO.N,unconnected-(J3-Pin_15-Pad15)*%
X122000000Y-127080000D03*
%TO.P,J3,16,Pin_16*%
%TO.N,unconnected-(J3-Pin_16-Pad16)*%
X122000000Y-129620000D03*
%TO.P,J3,17,Pin_17*%
%TO.N,unconnected-(J3-Pin_17-Pad17)*%
X122000000Y-132160000D03*
%TO.P,J3,18,Pin_18*%
%TO.N,unconnected-(J3-Pin_18-Pad18)*%
X122000000Y-134700000D03*
%TO.P,J3,19,Pin_19*%
%TO.N,unconnected-(J3-Pin_19-Pad19)*%
X122000000Y-137240000D03*
%TO.P,J3,20,Pin_20*%
%TO.N,unconnected-(J3-Pin_20-Pad20)*%
X122000000Y-139780000D03*
%TD*%
D12*
%TO.P,J4,1,Pin_1*%
%TO.N,GND*%
X95100000Y-63975000D03*
D13*
%TO.P,J4,2,Pin_2*%
%TO.N,+3.3V*%
X97640000Y-63975000D03*
%TO.P,J4,3,Pin_3*%
%TO.N,urx*%
X100180000Y-63975000D03*
%TO.P,J4,4,Pin_4*%
%TO.N,ury*%
X102720000Y-63975000D03*
%TO.P,J4,5,Pin_5*%
%TO.N,sw*%
X105260000Y-63975000D03*
%TD*%
D12*
%TO.P,J1,1,Pin_1*%
%TO.N,Net-(J1-Pin_1)*%
X82550000Y-137700000D03*
%TD*%
D14*
%TO.N,GND*%
X97500000Y-58400000D03*
X95150000Y-60750000D03*
%TO.N,sw*%
X105250000Y-88800000D03*
X105250000Y-96600000D03*
%TO.N,ury*%
X102750000Y-88850000D03*
X102800000Y-96650000D03*
%TO.N,ADC*%
X92600000Y-126550000D03*
X92600000Y-110850000D03*
%TD*%
D15*
%TO.N,GND*%
X95150000Y-60750000D02*
X97500000Y-58400000D01*
D16*
%TO.N,sw*%
X105250000Y-88800000D02*
X105250000Y-96600000D01*
%TO.N,ury*%
X102750000Y-88850000D02*
X102750000Y-96600000D01*
X102750000Y-96600000D02*
X102800000Y-96650000D01*
%TO.N,ADC*%
X92600000Y-126550000D02*
X92600000Y-110850000D01*
%TD*%
M02*
