%TF.GenerationSoftware,KiCad,Pcbnew,9.0.6*%
%TF.CreationDate,2026-09-05T08:29:44+02:00*%
%TF.ProjectId,Tiskana_plocica_za_kontroler_lego_auta,5469736b-616e-4615-9f70-6c6f63696361,rev?*%
%TF.SameCoordinates,Original*%
%TF.FileFunction,Soldermask,Top*%
%TF.FilePolarity,Negative*%
%FSLAX46Y46*%
G04 Gerber Fmt 4.6, Leading zero omitted, Abs format (unit mm)*
G04 Created by KiCad (PCBNEW 9.0.6) date 2026-09-05 08:29:44*
%MOMM*%
%LPD*%
G01*
G04 APERTURE LIST*
G04 Aperture macros list*
%AMRoundRect*
0 Rectangle with rounded corners*
0 $1 Rounding radius*
0 $2 $3 $4 $5 $6 $7 $8 $9 X,Y pos of 4 corners*
0 Add a 4 corners polygon primitive as box body*
4,1,4,$2,$3,$4,$5,$6,$7,$8,$9,$2,$3,0*
0 Add four circle primitives for the rounded corners*
1,1,$1+$1,$2,$3*
1,1,$1+$1,$4,$5*
1,1,$1+$1,$6,$7*
1,1,$1+$1,$8,$9*
0 Add four rect primitives between the rounded corners*
20,1,$1+$1,$2,$3,$4,$5,0*
20,1,$1+$1,$4,$5,$6,$7,0*
20,1,$1+$1,$6,$7,$8,$9,0*
20,1,$1+$1,$8,$9,$2,$3,0*%
G04 Aperture macros list end*
%ADD10RoundRect,0.250000X0.262500X0.450000X-0.262500X0.450000X-0.262500X-0.450000X0.262500X-0.450000X0*%
%ADD11R,1.500000X1.500000*%
%ADD12C,1.600000*%
%ADD13RoundRect,0.250000X0.450000X-0.262500X0.450000X0.262500X-0.450000X0.262500X-0.450000X-0.262500X0*%
%ADD14R,1.700000X1.700000*%
%ADD15C,1.700000*%
%ADD16C,5.300000*%
%ADD17RoundRect,0.243750X-0.243750X-0.456250X0.243750X-0.456250X0.243750X0.456250X-0.243750X0.456250X0*%
%ADD18RoundRect,0.250000X-0.262500X-0.450000X0.262500X-0.450000X0.262500X0.450000X-0.262500X0.450000X0*%
G04 APERTURE END LIST*
D10*
%TO.C,R6*%
X75912500Y-130000000D03*
X74087500Y-130000000D03*
%TD*%
D11*
%TO.C,SW1*%
X122150000Y-68840000D03*
D12*
X122150000Y-71380000D03*
X122150000Y-66300000D03*
%TD*%
D13*
%TO.C,R2*%
X85000000Y-90912500D03*
X85000000Y-89087500D03*
%TD*%
D14*
%TO.C,J2*%
X99000000Y-91520000D03*
D15*
X99000000Y-94060000D03*
X99000000Y-96600000D03*
X99000000Y-99140000D03*
X99000000Y-101680000D03*
X99000000Y-104220000D03*
X99000000Y-106760000D03*
X99000000Y-109300000D03*
X99000000Y-111840000D03*
X99000000Y-114380000D03*
X99000000Y-116920000D03*
X99000000Y-119460000D03*
X99000000Y-122000000D03*
X99000000Y-124540000D03*
X99000000Y-127080000D03*
X99000000Y-129620000D03*
X99000000Y-132160000D03*
X99000000Y-134700000D03*
X99000000Y-137240000D03*
X99000000Y-139780000D03*
%TD*%
D16*
%TO.C,H1*%
X122000000Y-48000000D03*
%TD*%
D13*
%TO.C,R4*%
X75000000Y-90912500D03*
X75000000Y-89087500D03*
%TD*%
D17*
%TO.C,D1*%
X74062500Y-65000000D03*
X75937500Y-65000000D03*
%TD*%
D14*
%TO.C,J3*%
X122000000Y-91520000D03*
D15*
X122000000Y-94060000D03*
X122000000Y-96600000D03*
X122000000Y-99140000D03*
X122000000Y-101680000D03*
X122000000Y-104220000D03*
X122000000Y-106760000D03*
X122000000Y-109300000D03*
X122000000Y-111840000D03*
X122000000Y-114380000D03*
X122000000Y-116920000D03*
X122000000Y-119460000D03*
X122000000Y-122000000D03*
X122000000Y-124540000D03*
X122000000Y-127080000D03*
X122000000Y-129620000D03*
X122000000Y-132160000D03*
X122000000Y-134700000D03*
X122000000Y-137240000D03*
X122000000Y-139780000D03*
%TD*%
D14*
%TO.C,J4*%
X95100000Y-63975000D03*
D15*
X97640000Y-63975000D03*
X100180000Y-63975000D03*
X102720000Y-63975000D03*
X105260000Y-63975000D03*
%TD*%
D18*
%TO.C,R5*%
X74087500Y-135000000D03*
X75912500Y-135000000D03*
%TD*%
D17*
%TO.C,D3*%
X74062500Y-55000000D03*
X75937500Y-55000000D03*
%TD*%
%TO.C,D4*%
X74062500Y-50000000D03*
X75937500Y-50000000D03*
%TD*%
D14*
%TO.C,J1*%
X82550000Y-137700000D03*
%TD*%
D13*
%TO.C,R1*%
X90000000Y-90912500D03*
X90000000Y-89087500D03*
%TD*%
%TO.C,R3*%
X80000000Y-90912500D03*
X80000000Y-89087500D03*
%TD*%
D17*
%TO.C,D2*%
X74062500Y-60000000D03*
X75937500Y-60000000D03*
%TD*%
M02*
