M48
; DRILL file {KiCad 9.0.6} date 2026-09-05T08:29:55+0200
; FORMAT={-:-/ absolute / metric / decimal}
; #@! TF.CreationDate,2026-09-05T08:29:55+02:00
; #@! TF.GenerationSoftware,Kicad,Pcbnew,9.0.6
; #@! TF.FileFunction,Plated,1,2,PTH
FMAT,2
METRIC
; #@! TA.AperFunction,Plated,PTH,ViaDrill
T1C0.300
; #@! TA.AperFunction,Plated,PTH,ComponentDrill
T2C0.800
; #@! TA.AperFunction,Plated,PTH,ComponentDrill
T3C1.000
%
G90
G05
T1
X92.6Y-110.85
X92.6Y-126.55
X95.15Y-60.75
X97.5Y-58.4
X102.75Y-88.85
X102.8Y-96.65
X105.25Y-88.8
X105.25Y-96.6
T2
X122.15Y-66.3
X122.15Y-68.84
X122.15Y-71.38
T3
X82.55Y-137.7
X95.1Y-63.975
X97.64Y-63.975
X99.0Y-91.52
X99.0Y-94.06
X99.0Y-96.6
X99.0Y-99.14
X99.0Y-101.68
X99.0Y-104.22
X99.0Y-106.76
X99.0Y-109.3
X99.0Y-111.84
X99.0Y-114.38
X99.0Y-116.92
X99.0Y-119.46
X99.0Y-122.0
X99.0Y-124.54
X99.0Y-127.08
X99.0Y-129.62
X99.0Y-132.16
X99.0Y-134.7
X99.0Y-137.24
X99.0Y-139.78
X100.18Y-63.975
X102.72Y-63.975
X105.26Y-63.975
X122.0Y-91.52
X122.0Y-94.06
X122.0Y-96.6
X122.0Y-99.14
X122.0Y-101.68
X122.0Y-104.22
X122.0Y-106.76
X122.0Y-109.3
X122.0Y-111.84
X122.0Y-114.38
X122.0Y-116.92
X122.0Y-119.46
X122.0Y-122.0
X122.0Y-124.54
X122.0Y-127.08
X122.0Y-129.62
X122.0Y-132.16
X122.0Y-134.7
X122.0Y-137.24
X122.0Y-139.78
M30
