%TF.GenerationSoftware,KiCad,Pcbnew,9.0.6*%
%TF.CreationDate,2026-09-05T09:14:41+02:00*%
%TF.ProjectId,PTP_Seminarski_Rad_Lego_Auto_Josip_Bosnic,5054505f-5365-46d6-996e-6172736b695f,1.0*%
%TF.SameCoordinates,Original*%
%TF.FileFunction,Copper,L2,Bot*%
%TF.FilePolarity,Positive*%
%FSLAX46Y46*%
G04 Gerber Fmt 4.6, Leading zero omitted, Abs format (unit mm)*
G04 Created by KiCad (PCBNEW 9.0.6) date 2026-09-05 09:14:41*
%MOMM*%
%LPD*%
G01*
G04 APERTURE LIST*
G04 Aperture macros list*
%AMRoundRect*
0 Rectangle with rounded corners*
0 $1 Rounding radius*
0 $2 $3 $4 $5 $6 $7 $8 $9 X,Y pos of 4 corners*
0 Add a 4 corners polygon primitive as box body*
4,1,4,$2,$3,$4,$5,$6,$7,$8,$9,$2,$3,0*
0 Add four circle primitives for the rounded corners*
1,1,$1+$1,$2,$3*
1,1,$1+$1,$4,$5*
1,1,$1+$1,$6,$7*
1,1,$1+$1,$8,$9*
0 Add four rect primitives between the rounded corners*
20,1,$1+$1,$2,$3,$4,$5,0*
20,1,$1+$1,$4,$5,$6,$7,0*
20,1,$1+$1,$6,$7,$8,$9,0*
20,1,$1+$1,$8,$9,$2,$3,0*%
G04 Aperture macros list end*
%TA.AperFunction,NonConductor*%
%ADD10C,0.200000*%
%TD*%
%TA.AperFunction,ComponentPad*%
%ADD11R,1.700000X1.700000*%
%TD*%
%TA.AperFunction,ComponentPad*%
%ADD12C,1.700000*%
%TD*%
%TA.AperFunction,ComponentPad*%
%ADD13RoundRect,0.250000X0.550000X-0.550000X0.550000X0.550000X-0.550000X0.550000X-0.550000X-0.550000X0*%
%TD*%
%TA.AperFunction,ComponentPad*%
%ADD14C,1.600000*%
%TD*%
%TA.AperFunction,ComponentPad*%
%ADD15R,2.000000X1.905000*%
%TD*%
%TA.AperFunction,ComponentPad*%
%ADD16O,2.000000X1.905000*%
%TD*%
%TA.AperFunction,ViaPad*%
%ADD17C,0.700000*%
%TD*%
%TA.AperFunction,Conductor*%
%ADD18C,0.500000*%
%TD*%
%TA.AperFunction,Conductor*%
%ADD19C,0.200000*%
%TD*%
G04 APERTURE END LIST*
D10*
X165200000Y-60050000D02*
G75*
G02*
X154324340Y-60050000I-5437830J0D01*
G01*
X154324340Y-60050000D02*
G75*
G02*
X165200000Y-60050000I5437830J0D01*
G01*
X100370244Y-96950000D02*
G75*
G02*
X89729756Y-96950000I-5320244J0D01*
G01*
X89729756Y-96950000D02*
G75*
G02*
X100370244Y-96950000I5320244J0D01*
G01*
X85912592Y-119900000D02*
G75*
G02*
X73987408Y-119900000I-5962592J0D01*
G01*
X73987408Y-119900000D02*
G75*
G02*
X85912592Y-119900000I5962592J0D01*
G01*
X138544126Y-59950000D02*
G75*
G02*
X125355874Y-59950000I-6594126J0D01*
G01*
X125355874Y-59950000D02*
G75*
G02*
X138544126Y-59950000I6594126J0D01*
G01*
X86400000Y-79950000D02*
G75*
G02*
X73723644Y-79950000I-6338178J0D01*
G01*
X73723644Y-79950000D02*
G75*
G02*
X86400000Y-79950000I6338178J0D01*
G01*
X147650000Y-94900000D02*
G75*
G02*
X136097512Y-94900000I-5776244J0D01*
G01*
X136097512Y-94900000D02*
G75*
G02*
X147650000Y-94900000I5776244J0D01*
G01*
D11*
%TO.P,J7,1,Pin_1*%
%TO.N,unconnected-(J7-Pin_1-Pad1)*%
X144600000Y-155400000D03*
D12*
%TO.P,J7,2,Pin_2*%
%TO.N,unconnected-(J7-Pin_2-Pad2)*%
X142060000Y-155400000D03*
%TO.P,J7,3,Pin_3*%
%TO.N,unconnected-(J7-Pin_3-Pad3)*%
X139520000Y-155400000D03*
%TO.P,J7,4,Pin_4*%
%TO.N,unconnected-(J7-Pin_4-Pad4)*%
X136980000Y-155400000D03*
%TO.P,J7,5,Pin_5*%
%TO.N,unconnected-(J7-Pin_5-Pad5)*%
X134440000Y-155400000D03*
%TO.P,J7,6,Pin_6*%
%TO.N,/servosignal*%
X131900000Y-155400000D03*
%TO.P,J7,7,Pin_7*%
%TO.N,/IN1*%
X129360000Y-155400000D03*
%TO.P,J7,8,Pin_8*%
%TO.N,unconnected-(J7-Pin_8-Pad8)*%
X126820000Y-155400000D03*
%TO.P,J7,9,Pin_9*%
%TO.N,unconnected-(J7-Pin_9-Pad9)*%
X124280000Y-155400000D03*
%TO.P,J7,10,Pin_10*%
%TO.N,/IN2*%
X121740000Y-155400000D03*
%TO.P,J7,11,Pin_11*%
%TO.N,unconnected-(J7-Pin_11-Pad11)*%
X119200000Y-155400000D03*
%TO.P,J7,12,Pin_12*%
%TO.N,unconnected-(J7-Pin_12-Pad12)*%
X116660000Y-155400000D03*
%TO.P,J7,13,Pin_13*%
%TO.N,unconnected-(J7-Pin_13-Pad13)*%
X114120000Y-155400000D03*
%TO.P,J7,14,Pin_14*%
%TO.N,unconnected-(J7-Pin_14-Pad14)*%
X111580000Y-155400000D03*
%TO.P,J7,15,Pin_15*%
%TO.N,Q2*%
X109040000Y-155400000D03*
%TO.P,J7,16,Pin_16*%
%TO.N,Q1*%
X106500000Y-155400000D03*
%TO.P,J7,17,Pin_17*%
%TO.N,unconnected-(J7-Pin_17-Pad17)*%
X103960000Y-155400000D03*
%TO.P,J7,18,Pin_18*%
%TO.N,unconnected-(J7-Pin_18-Pad18)*%
X101420000Y-155400000D03*
%TO.P,J7,19,Pin_19*%
%TO.N,unconnected-(J7-Pin_19-Pad19)*%
X98880000Y-155400000D03*
%TO.P,J7,20,Pin_20*%
%TO.N,-BATT*%
X96340000Y-155400000D03*
%TD*%
D11*
%TO.P,J2,1,Pin_1*%
%TO.N,unconnected-(J2-Pin_1-Pad1)*%
X144600000Y-130000000D03*
D12*
%TO.P,J2,2,Pin_2*%
%TO.N,unconnected-(J2-Pin_2-Pad2)*%
X142060000Y-130000000D03*
%TO.P,J2,3,Pin_3*%
%TO.N,unconnected-(J2-Pin_3-Pad3)*%
X139520000Y-130000000D03*
%TO.P,J2,4,Pin_4*%
%TO.N,unconnected-(J2-Pin_4-Pad4)*%
X136980000Y-130000000D03*
%TO.P,J2,5,Pin_5*%
%TO.N,unconnected-(J2-Pin_5-Pad5)*%
X134440000Y-130000000D03*
%TO.P,J2,6,Pin_6*%
%TO.N,unconnected-(J2-Pin_6-Pad6)*%
X131900000Y-130000000D03*
%TO.P,J2,7,Pin_7*%
%TO.N,unconnected-(J2-Pin_7-Pad7)*%
X129360000Y-130000000D03*
%TO.P,J2,8,Pin_8*%
%TO.N,unconnected-(J2-Pin_8-Pad8)*%
X126820000Y-130000000D03*
%TO.P,J2,9,Pin_9*%
%TO.N,unconnected-(J2-Pin_9-Pad9)*%
X124280000Y-130000000D03*
%TO.P,J2,10,Pin_10*%
%TO.N,unconnected-(J2-Pin_10-Pad10)*%
X121740000Y-130000000D03*
%TO.P,J2,11,Pin_11*%
%TO.N,unconnected-(J2-Pin_11-Pad11)*%
X119200000Y-130000000D03*
%TO.P,J2,12,Pin_12*%
%TO.N,unconnected-(J2-Pin_12-Pad12)*%
X116660000Y-130000000D03*
%TO.P,J2,13,Pin_13*%
%TO.N,unconnected-(J2-Pin_13-Pad13)*%
X114120000Y-130000000D03*
%TO.P,J2,14,Pin_14*%
%TO.N,unconnected-(J2-Pin_14-Pad14)*%
X111580000Y-130000000D03*
%TO.P,J2,15,Pin_15*%
%TO.N,+5V*%
X109040000Y-130000000D03*
%TO.P,J2,16,Pin_16*%
%TO.N,unconnected-(J2-Pin_16-Pad16)*%
X106500000Y-130000000D03*
%TO.P,J2,17,Pin_17*%
%TO.N,unconnected-(J2-Pin_17-Pad17)*%
X103960000Y-130000000D03*
%TO.P,J2,18,Pin_18*%
%TO.N,unconnected-(J2-Pin_18-Pad18)*%
X101420000Y-130000000D03*
%TO.P,J2,19,Pin_19*%
%TO.N,unconnected-(J2-Pin_19-Pad19)*%
X98880000Y-130000000D03*
%TO.P,J2,20,Pin_20*%
%TO.N,unconnected-(J2-Pin_20-Pad20)*%
X96340000Y-130000000D03*
%TD*%
D11*
%TO.P,J3,1,Pin_1*%
%TO.N,+5V*%
X156100000Y-108000000D03*
D12*
%TO.P,J3,2,Pin_2*%
%TO.N,-BATT*%
X153560000Y-108000000D03*
%TD*%
D13*
%TO.P,SW1,1,A*%
%TO.N,Net-(BT1-+)*%
X82012500Y-61000000D03*
D14*
%TO.P,SW1,2,B*%
%TO.N,+BATT*%
X82012500Y-53380000D03*
%TD*%
D11*
%TO.P,J4,1,Pin_1*%
%TO.N,/IN1*%
X132650000Y-107850000D03*
D12*
%TO.P,J4,2,Pin_2*%
%TO.N,/IN2*%
X130110000Y-107850000D03*
%TD*%
D11*
%TO.P,J1,1,Pin_1*%
%TO.N,+BATT*%
X145600000Y-47250000D03*
D12*
%TO.P,J1,2,Pin_2*%
%TO.N,-BATT*%
X143060000Y-47250000D03*
%TD*%
D15*
%TO.P,Q1,1,G*%
%TO.N,+5V*%
X160000000Y-137000000D03*
D16*
%TO.P,Q1,2,D*%
%TO.N,Net-(Q1-D)*%
X160000000Y-139540000D03*
%TO.P,Q1,3,S*%
%TO.N,-BATT*%
X160000000Y-142080000D03*
%TD*%
D11*
%TO.P,BT1,1,+*%
%TO.N,Net-(BT1-+)*%
X81460000Y-66000000D03*
D12*
%TO.P,BT1,2,-*%
%TO.N,-BATT*%
X84000000Y-66000000D03*
%TD*%
D11*
%TO.P,M1,1,PWM*%
%TO.N,/servosignal*%
X123680000Y-121150000D03*
D12*
%TO.P,M1,2,+*%
%TO.N,+5V*%
X121140000Y-121150000D03*
%TO.P,M1,3,-*%
%TO.N,-BATT*%
X118600000Y-121150000D03*
%TD*%
D11*
%TO.P,J6,1,Pin_1*%
%TO.N,-BATT*%
X102810000Y-107700000D03*
D12*
%TO.P,J6,2,Pin_2*%
%TO.N,+BATT*%
X105350000Y-107700000D03*
%TO.P,J6,3,Pin_3*%
%TO.N,+5V*%
X107890000Y-107700000D03*
%TD*%
D17*
%TO.N,-BATT*%
X156000000Y-142000000D03*
X93000000Y-33000000D03*
X84000000Y-63500000D03*
X102800000Y-110250000D03*
X139350000Y-47250000D03*
X147000000Y-33000000D03*
X115500000Y-121100000D03*
X96340000Y-158660000D03*
X99000000Y-38000000D03*
X153550000Y-110700000D03*
%TO.N,+BATT*%
X92400000Y-103650000D03*
X88000000Y-54000000D03*
X88750000Y-103600000D03*
X92500000Y-54000000D03*
%TO.N,+5V*%
X151200000Y-125100000D03*
X144900000Y-125050000D03*
X154950000Y-134000000D03*
X157050000Y-136000000D03*
%TO.N,/servosignal*%
X132350000Y-135000000D03*
X135100000Y-132300000D03*
%TD*%
D18*
%TO.N,+BATT*%
X92500000Y-54000000D02*
X88000000Y-54000000D01*
X92400000Y-103650000D02*
X88800000Y-103650000D01*
D19*
X88800000Y-103650000D02*
X88750000Y-103600000D01*
D18*
%TO.N,+5V*%
X157050000Y-136000000D02*
X155050000Y-134000000D01*
D19*
X155050000Y-134000000D02*
X154950000Y-134000000D01*
D18*
X144900000Y-125050000D02*
X151150000Y-125050000D01*
D19*
X151150000Y-125050000D02*
X151200000Y-125100000D01*
%TO.N,/servosignal*%
X135050000Y-132300000D02*
X135100000Y-132300000D01*
X132350000Y-135000000D02*
X135050000Y-132300000D01*
%TD*%
%TA.AperFunction,Conductor*%
%TO.N,-BATT*%
G36*
X163029495Y-32019685D02*
G01*
X163031239Y-32020826D01*
X168944784Y-35963189D01*
X168989644Y-36016753D01*
X169000000Y-36066362D01*
X169000000Y-162937768D01*
X168980315Y-163004807D01*
X168950103Y-163037190D01*
X160982975Y-168975422D01*
X160917460Y-168999702D01*
X160908872Y-169000000D01*
X78045871Y-169000000D01*
X77978832Y-168980315D01*
X77965173Y-168970148D01*
X71043302Y-163037116D01*
X71005212Y-162978541D01*
X71000000Y-162942968D01*
X71000000Y-159805683D01*
X75149500Y-159805683D01*
X75149500Y-160194316D01*
X75183371Y-160581462D01*
X75183371Y-160581466D01*
X75250853Y-160964172D01*
X75250857Y-160964189D01*
X75351435Y-161339555D01*
X75484362Y-161704768D01*
X75648587Y-162056952D01*
X75648600Y-162056976D01*
X75842905Y-162393521D01*
X75842914Y-162393536D01*
X76065821Y-162711880D01*
X76255364Y-162937768D01*
X76315621Y-163009579D01*
X76590421Y-163284379D01*
X76649769Y-163334178D01*
X76888119Y-163534178D01*
X76888125Y-163534182D01*
X76888126Y-163534183D01*
X77206470Y-163757090D01*
X77481092Y-163915643D01*
X77543023Y-163951399D01*
X77543047Y-163951412D01*
X77895231Y-164115637D01*
X77895236Y-164115638D01*
X77895245Y-164115643D01*
X78260434Y-164248561D01*
X78260440Y-164248562D01*
X78260444Y-164248564D01*
X78362666Y-164275954D01*
X78635818Y-164349145D01*
X79018540Y-164416629D01*
X79405685Y-164450499D01*
X79405686Y-164450500D01*
X79405687Y-164450500D01*
X79794314Y-164450500D01*
X79794314Y-164450499D01*
X80181460Y-164416629D01*
X80564182Y-164349145D01*
X80939566Y-164248561D01*
X81304755Y-164115643D01*
X81448607Y-164048564D01*
X81656952Y-163951412D01*
X81656960Y-163951407D01*
X81656970Y-163951403D01*
X81993530Y-163757090D01*
X82311874Y-163534183D01*
X82609579Y-163284379D01*
X82884379Y-163009579D01*
X83134183Y-162711874D01*
X83357090Y-162393530D01*
X83551403Y-162056970D01*
X83551407Y-162056960D01*
X83551412Y-162056952D01*
X83715637Y-161704768D01*
X83715637Y-161704767D01*
X83715643Y-161704755D01*
X83848561Y-161339566D01*
X83949145Y-160964182D01*
X84016629Y-160581460D01*
X84050500Y-160194313D01*
X84050500Y-159805687D01*
X84033002Y-159605683D01*
X154899500Y-159605683D01*
X154899500Y-159994316D01*
X154933371Y-160381462D01*
X154933371Y-160381466D01*
X155000853Y-160764172D01*
X155000857Y-160764189D01*
X155101435Y-161139555D01*
X155234362Y-161504768D01*
X155398587Y-161856952D01*
X155398600Y-161856976D01*
X155592905Y-162193521D01*
X155592914Y-162193536D01*
X155815821Y-162511880D01*
X155970615Y-162696355D01*
X156065621Y-162809579D01*
X156340421Y-163084379D01*
X156446361Y-163173273D01*
X156638119Y-163334178D01*
X156638125Y-163334182D01*
X156638126Y-163334183D01*
X156956470Y-163557090D01*
X157271894Y-163739200D01*
X157293023Y-163751399D01*
X157293047Y-163751412D01*
X157645231Y-163915637D01*
X157645236Y-163915638D01*
X157645245Y-163915643D01*
X158010434Y-164048561D01*
X158010440Y-164048562D01*
X158010444Y-164048564D01*
X158112666Y-164075954D01*
X158385818Y-164149145D01*
X158768540Y-164216629D01*
X159155685Y-164250499D01*
X159155686Y-164250500D01*
X159155687Y-164250500D01*
X159544314Y-164250500D01*
X159544314Y-164250499D01*
X159931460Y-164216629D01*
X160314182Y-164149145D01*
X160689566Y-164048561D01*
X161054755Y-163915643D01*
X161054768Y-163915637D01*
X161406952Y-163751412D01*
X161406960Y-163751407D01*
X161406970Y-163751403D01*
X161743530Y-163557090D01*
X162061874Y-163334183D01*
X162359579Y-163084379D01*
X162634379Y-162809579D01*
X162884183Y-162511874D01*
X163107090Y-162193530D01*
X163301403Y-161856970D01*
X163301407Y-161856960D01*
X163301412Y-161856952D01*
X163465637Y-161504768D01*
X163465637Y-161504767D01*
X163465643Y-161504755D01*
X163598561Y-161139566D01*
X163699145Y-160764182D01*
X163766629Y-160381460D01*
X163800500Y-159994313D01*
X163800500Y-159605687D01*
X163766629Y-159218540D01*
X163699145Y-158835818D01*
X163598561Y-158460434D01*
X163465643Y-158095245D01*
X163465638Y-158095236D01*
X163465637Y-158095231D01*
X163301412Y-157743047D01*
X163301399Y-157743023D01*
X163289200Y-157721894D01*
X163107090Y-157406470D01*
X162884183Y-157088126D01*
X162884182Y-157088125D01*
X162884178Y-157088119D01*
X162634376Y-156790418D01*
X162359581Y-156515623D01*
X162359160Y-156515270D01*
X162175210Y-156360917D01*
X162061880Y-156265821D01*
X161743536Y-156042914D01*
X161743533Y-156042912D01*
X161743530Y-156042910D01*
X161643538Y-155985179D01*
X161406976Y-155848600D01*
X161406952Y-155848587D01*
X161054768Y-155684362D01*
X161054757Y-155684358D01*
X161054755Y-155684357D01*
X160689566Y-155551439D01*
X160689565Y-155551438D01*
X160689555Y-155551435D01*
X160314189Y-155450857D01*
X160314192Y-155450857D01*
X160314182Y-155450855D01*
X160314176Y-155450853D01*
X160314172Y-155450853D01*
X159931464Y-155383371D01*
X159544316Y-155349500D01*
X159544313Y-155349500D01*
X159155687Y-155349500D01*
X159155683Y-155349500D01*
X158768537Y-155383371D01*
X158768533Y-155383371D01*
X158385827Y-155450853D01*
X158385810Y-155450857D01*
X158010444Y-155551435D01*
X157645231Y-155684362D01*
X157293047Y-155848587D01*
X157293023Y-155848600D01*
X156956478Y-156042905D01*
X156956463Y-156042914D01*
X156638119Y-156265821D01*
X156340418Y-156515623D01*
X156065623Y-156790418D01*
X155815821Y-157088119D01*
X155592914Y-157406463D01*
X155592905Y-157406478D01*
X155398600Y-157743023D01*
X155398587Y-157743047D01*
X155234362Y-158095231D01*
X155101435Y-158460444D01*
X155000857Y-158835810D01*
X155000853Y-158835827D01*
X154933371Y-159218533D01*
X154933371Y-159218537D01*
X154899500Y-159605683D01*
X84033002Y-159605683D01*
X84016629Y-159418540D01*
X83949145Y-159035818D01*
X83848561Y-158660434D01*
X83715643Y-158295245D01*
X83715638Y-158295236D01*
X83715637Y-158295231D01*
X83551412Y-157943047D01*
X83551399Y-157943023D01*
X83539200Y-157921894D01*
X83357090Y-157606470D01*
X83134183Y-157288126D01*
X83134182Y-157288125D01*
X83134178Y-157288119D01*
X82884376Y-156990418D01*
X82609581Y-156715623D01*
X82480777Y-156607544D01*
X82371231Y-156515623D01*
X82311880Y-156465821D01*
X81993536Y-156242914D01*
X81993533Y-156242912D01*
X81993530Y-156242910D01*
X81852898Y-156161716D01*
X81656976Y-156048600D01*
X81656952Y-156048587D01*
X81304768Y-155884362D01*
X81304757Y-155884358D01*
X81304755Y-155884357D01*
X80939566Y-155751439D01*
X80939565Y-155751438D01*
X80939555Y-155751435D01*
X80564189Y-155650857D01*
X80564192Y-155650857D01*
X80564182Y-155650855D01*
X80564176Y-155650853D01*
X80564172Y-155650853D01*
X80181464Y-155583371D01*
X79794316Y-155549500D01*
X79794313Y-155549500D01*
X79405687Y-155549500D01*
X79405683Y-155549500D01*
X79018537Y-155583371D01*
X79018533Y-155583371D01*
X78635827Y-155650853D01*
X78635810Y-155650857D01*
X78260444Y-155751435D01*
X77895231Y-155884362D01*
X77543047Y-156048587D01*
X77543023Y-156048600D01*
X77206478Y-156242905D01*
X77206463Y-156242914D01*
X76888119Y-156465821D01*
X76590418Y-156715623D01*
X76315623Y-156990418D01*
X76065821Y-157288119D01*
X75842914Y-157606463D01*
X75842905Y-157606478D01*
X75648600Y-157943023D01*
X75648587Y-157943047D01*
X75484362Y-158295231D01*
X75351435Y-158660444D01*
X75250857Y-159035810D01*
X75250853Y-159035827D01*
X75183371Y-159418533D01*
X75183371Y-159418537D01*
X75149500Y-159805683D01*
X71000000Y-159805683D01*
X71000000Y-155293753D01*
X94990000Y-155293753D01*
X94990000Y-155506246D01*
X95023242Y-155716127D01*
X95023242Y-155716130D01*
X95088904Y-155918217D01*
X95185375Y-156107550D01*
X95224728Y-156161716D01*
X95857037Y-155529408D01*
X95874075Y-155592993D01*
X95939901Y-155707007D01*
X96032993Y-155800099D01*
X96147007Y-155865925D01*
X96210590Y-155882962D01*
X95578282Y-156515269D01*
X95578282Y-156515270D01*
X95632449Y-156554624D01*
X95821782Y-156651095D01*
X96023870Y-156716757D01*
X96233754Y-156750000D01*
X96446246Y-156750000D01*
X96656127Y-156716757D01*
X96656130Y-156716757D01*
X96858217Y-156651095D01*
X97047554Y-156554622D01*
X97101716Y-156515270D01*
X97101717Y-156515270D01*
X96469408Y-155882962D01*
X96532993Y-155865925D01*
X96647007Y-155800099D01*
X96740099Y-155707007D01*
X96805925Y-155592993D01*
X96822962Y-155529408D01*
X97455270Y-156161717D01*
X97455270Y-156161716D01*
X97494622Y-156107555D01*
X97499232Y-156098507D01*
X97547205Y-156047709D01*
X97615025Y-156030912D01*
X97681161Y-156053447D01*
X97720204Y-156098504D01*
X97724949Y-156107817D01*
X97849890Y-156279786D01*
X98000213Y-156430109D01*
X98172179Y-156555048D01*
X98172181Y-156555049D01*
X98172184Y-156555051D01*
X98361588Y-156651557D01*
X98563757Y-156717246D01*
X98773713Y-156750500D01*
X98773714Y-156750500D01*
X98986286Y-156750500D01*
X98986287Y-156750500D01*
X99196243Y-156717246D01*
X99398412Y-156651557D01*
X99587816Y-156555051D01*
X99609789Y-156539086D01*
X99759786Y-156430109D01*
X99759788Y-156430106D01*
X99759792Y-156430104D01*
X99910104Y-156279792D01*
X99910106Y-156279788D01*
X99910109Y-156279786D01*
X100035048Y-156107820D01*
X100035050Y-156107817D01*
X100035051Y-156107816D01*
X100039514Y-156099054D01*
X100087488Y-156048259D01*
X100155308Y-156031463D01*
X100221444Y-156053999D01*
X100260486Y-156099056D01*
X100264951Y-156107820D01*
X100389890Y-156279786D01*
X100540213Y-156430109D01*
X100712179Y-156555048D01*
X100712181Y-156555049D01*
X100712184Y-156555051D01*
X100901588Y-156651557D01*
X101103757Y-156717246D01*
X101313713Y-156750500D01*
X101313714Y-156750500D01*
X101526286Y-156750500D01*
X101526287Y-156750500D01*
X101736243Y-156717246D01*
X101938412Y-156651557D01*
X102127816Y-156555051D01*
X102149789Y-156539086D01*
X102299786Y-156430109D01*
X102299788Y-156430106D01*
X102299792Y-156430104D01*
X102450104Y-156279792D01*
X102450106Y-156279788D01*
X102450109Y-156279786D01*
X102575048Y-156107820D01*
X102575050Y-156107817D01*
X102575051Y-156107816D01*
X102579514Y-156099054D01*
X102627488Y-156048259D01*
X102695308Y-156031463D01*
X102761444Y-156053999D01*
X102800486Y-156099056D01*
X102804951Y-156107820D01*
X102929890Y-156279786D01*
X103080213Y-156430109D01*
X103252179Y-156555048D01*
X103252181Y-156555049D01*
X103252184Y-156555051D01*
X103441588Y-156651557D01*
X103643757Y-156717246D01*
X103853713Y-156750500D01*
X103853714Y-156750500D01*
X104066286Y-156750500D01*
X104066287Y-156750500D01*
X104276243Y-156717246D01*
X104478412Y-156651557D01*
X104667816Y-156555051D01*
X104689789Y-156539086D01*
X104839786Y-156430109D01*
X104839788Y-156430106D01*
X104839792Y-156430104D01*
X104990104Y-156279792D01*
X104990106Y-156279788D01*
X104990109Y-156279786D01*
X105115048Y-156107820D01*
X105115050Y-156107817D01*
X105115051Y-156107816D01*
X105119514Y-156099054D01*
X105167488Y-156048259D01*
X105235308Y-156031463D01*
X105301444Y-156053999D01*
X105340486Y-156099056D01*
X105344951Y-156107820D01*
X105469890Y-156279786D01*
X105620213Y-156430109D01*
X105792179Y-156555048D01*
X105792181Y-156555049D01*
X105792184Y-156555051D01*
X105981588Y-156651557D01*
X106183757Y-156717246D01*
X106393713Y-156750500D01*
X106393714Y-156750500D01*
X106606286Y-156750500D01*
X106606287Y-156750500D01*
X106816243Y-156717246D01*
X107018412Y-156651557D01*
X107207816Y-156555051D01*
X107229789Y-156539086D01*
X107379786Y-156430109D01*
X107379788Y-156430106D01*
X107379792Y-156430104D01*
X107530104Y-156279792D01*
X107530106Y-156279788D01*
X107530109Y-156279786D01*
X107655048Y-156107820D01*
X107655050Y-156107817D01*
X107655051Y-156107816D01*
X107659514Y-156099054D01*
X107707488Y-156048259D01*
X107775308Y-156031463D01*
X107841444Y-156053999D01*
X107880486Y-156099056D01*
X107884951Y-156107820D01*
X108009890Y-156279786D01*
X108160213Y-156430109D01*
X108332179Y-156555048D01*
X108332181Y-156555049D01*
X108332184Y-156555051D01*
X108521588Y-156651557D01*
X108723757Y-156717246D01*
X108933713Y-156750500D01*
X108933714Y-156750500D01*
X109146286Y-156750500D01*
X109146287Y-156750500D01*
X109356243Y-156717246D01*
X109558412Y-156651557D01*
X109747816Y-156555051D01*
X109769789Y-156539086D01*
X109919786Y-156430109D01*
X109919788Y-156430106D01*
X109919792Y-156430104D01*
X110070104Y-156279792D01*
X110070106Y-156279788D01*
X110070109Y-156279786D01*
X110195048Y-156107820D01*
X110195050Y-156107817D01*
X110195051Y-156107816D01*
X110199514Y-156099054D01*
X110247488Y-156048259D01*
X110315308Y-156031463D01*
X110381444Y-156053999D01*
X110420486Y-156099056D01*
X110424951Y-156107820D01*
X110549890Y-156279786D01*
X110700213Y-156430109D01*
X110872179Y-156555048D01*
X110872181Y-156555049D01*
X110872184Y-156555051D01*
X111061588Y-156651557D01*
X111263757Y-156717246D01*
X111473713Y-156750500D01*
X111473714Y-156750500D01*
X111686286Y-156750500D01*
X111686287Y-156750500D01*
X111896243Y-156717246D01*
X112098412Y-156651557D01*
X112287816Y-156555051D01*
X112309789Y-156539086D01*
X112459786Y-156430109D01*
X112459788Y-156430106D01*
X112459792Y-156430104D01*
X112610104Y-156279792D01*
X112610106Y-156279788D01*
X112610109Y-156279786D01*
X112735048Y-156107820D01*
X112735050Y-156107817D01*
X112735051Y-156107816D01*
X112739514Y-156099054D01*
X112787488Y-156048259D01*
X112855308Y-156031463D01*
X112921444Y-156053999D01*
X112960486Y-156099056D01*
X112964951Y-156107820D01*
X113089890Y-156279786D01*
X113240213Y-156430109D01*
X113412179Y-156555048D01*
X113412181Y-156555049D01*
X113412184Y-156555051D01*
X113601588Y-156651557D01*
X113803757Y-156717246D01*
X114013713Y-156750500D01*
X114013714Y-156750500D01*
X114226286Y-156750500D01*
X114226287Y-156750500D01*
X114436243Y-156717246D01*
X114638412Y-156651557D01*
X114827816Y-156555051D01*
X114849789Y-156539086D01*
X114999786Y-156430109D01*
X114999788Y-156430106D01*
X114999792Y-156430104D01*
X115150104Y-156279792D01*
X115150106Y-156279788D01*
X115150109Y-156279786D01*
X115275048Y-156107820D01*
X115275050Y-156107817D01*
X115275051Y-156107816D01*
X115279514Y-156099054D01*
X115327488Y-156048259D01*
X115395308Y-156031463D01*
X115461444Y-156053999D01*
X115500486Y-156099056D01*
X115504951Y-156107820D01*
X115629890Y-156279786D01*
X115780213Y-156430109D01*
X115952179Y-156555048D01*
X115952181Y-156555049D01*
X115952184Y-156555051D01*
X116141588Y-156651557D01*
X116343757Y-156717246D01*
X116553713Y-156750500D01*
X116553714Y-156750500D01*
X116766286Y-156750500D01*
X116766287Y-156750500D01*
X116976243Y-156717246D01*
X117178412Y-156651557D01*
X117367816Y-156555051D01*
X117389789Y-156539086D01*
X117539786Y-156430109D01*
X117539788Y-156430106D01*
X117539792Y-156430104D01*
X117690104Y-156279792D01*
X117690106Y-156279788D01*
X117690109Y-156279786D01*
X117815048Y-156107820D01*
X117815050Y-156107817D01*
X117815051Y-156107816D01*
X117819514Y-156099054D01*
X117867488Y-156048259D01*
X117935308Y-156031463D01*
X118001444Y-156053999D01*
X118040486Y-156099056D01*
X118044951Y-156107820D01*
X118169890Y-156279786D01*
X118320213Y-156430109D01*
X118492179Y-156555048D01*
X118492181Y-156555049D01*
X118492184Y-156555051D01*
X118681588Y-156651557D01*
X118883757Y-156717246D01*
X119093713Y-156750500D01*
X119093714Y-156750500D01*
X119306286Y-156750500D01*
X119306287Y-156750500D01*
X119516243Y-156717246D01*
X119718412Y-156651557D01*
X119907816Y-156555051D01*
X119929789Y-156539086D01*
X120079786Y-156430109D01*
X120079788Y-156430106D01*
X120079792Y-156430104D01*
X120230104Y-156279792D01*
X120230106Y-156279788D01*
X120230109Y-156279786D01*
X120355048Y-156107820D01*
X120355050Y-156107817D01*
X120355051Y-156107816D01*
X120359514Y-156099054D01*
X120407488Y-156048259D01*
X120475308Y-156031463D01*
X120541444Y-156053999D01*
X120580486Y-156099056D01*
X120584951Y-156107820D01*
X120709890Y-156279786D01*
X120860213Y-156430109D01*
X121032179Y-156555048D01*
X121032181Y-156555049D01*
X121032184Y-156555051D01*
X121221588Y-156651557D01*
X121423757Y-156717246D01*
X121633713Y-156750500D01*
X121633714Y-156750500D01*
X121846286Y-156750500D01*
X121846287Y-156750500D01*
X122056243Y-156717246D01*
X122258412Y-156651557D01*
X122447816Y-156555051D01*
X122469789Y-156539086D01*
X122619786Y-156430109D01*
X122619788Y-156430106D01*
X122619792Y-156430104D01*
X122770104Y-156279792D01*
X122770106Y-156279788D01*
X122770109Y-156279786D01*
X122895048Y-156107820D01*
X122895050Y-156107817D01*
X122895051Y-156107816D01*
X122899514Y-156099054D01*
X122947488Y-156048259D01*
X123015308Y-156031463D01*
X123081444Y-156053999D01*
X123120486Y-156099056D01*
X123124951Y-156107820D01*
X123249890Y-156279786D01*
X123400213Y-156430109D01*
X123572179Y-156555048D01*
X123572181Y-156555049D01*
X123572184Y-156555051D01*
X123761588Y-156651557D01*
X123963757Y-156717246D01*
X124173713Y-156750500D01*
X124173714Y-156750500D01*
X124386286Y-156750500D01*
X124386287Y-156750500D01*
X124596243Y-156717246D01*
X124798412Y-156651557D01*
X124987816Y-156555051D01*
X125009789Y-156539086D01*
X125159786Y-156430109D01*
X125159788Y-156430106D01*
X125159792Y-156430104D01*
X125310104Y-156279792D01*
X125310106Y-156279788D01*
X125310109Y-156279786D01*
X125435048Y-156107820D01*
X125435050Y-156107817D01*
X125435051Y-156107816D01*
X125439514Y-156099054D01*
X125487488Y-156048259D01*
X125555308Y-156031463D01*
X125621444Y-156053999D01*
X125660486Y-156099056D01*
X125664951Y-156107820D01*
X125789890Y-156279786D01*
X125940213Y-156430109D01*
X126112179Y-156555048D01*
X126112181Y-156555049D01*
X126112184Y-156555051D01*
X126301588Y-156651557D01*
X126503757Y-156717246D01*
X126713713Y-156750500D01*
X126713714Y-156750500D01*
X126926286Y-156750500D01*
X126926287Y-156750500D01*
X127136243Y-156717246D01*
X127338412Y-156651557D01*
X127527816Y-156555051D01*
X127549789Y-156539086D01*
X127699786Y-156430109D01*
X127699788Y-156430106D01*
X127699792Y-156430104D01*
X127850104Y-156279792D01*
X127850106Y-156279788D01*
X127850109Y-156279786D01*
X127975048Y-156107820D01*
X127975050Y-156107817D01*
X127975051Y-156107816D01*
X127979514Y-156099054D01*
X128027488Y-156048259D01*
X128095308Y-156031463D01*
X128161444Y-156053999D01*
X128200486Y-156099056D01*
X128204951Y-156107820D01*
X128329890Y-156279786D01*
X128480213Y-156430109D01*
X128652179Y-156555048D01*
X128652181Y-156555049D01*
X128652184Y-156555051D01*
X128841588Y-156651557D01*
X129043757Y-156717246D01*
X129253713Y-156750500D01*
X129253714Y-156750500D01*
X129466286Y-156750500D01*
X129466287Y-156750500D01*
X129676243Y-156717246D01*
X129878412Y-156651557D01*
X130067816Y-156555051D01*
X130089789Y-156539086D01*
X130239786Y-156430109D01*
X130239788Y-156430106D01*
X130239792Y-156430104D01*
X130390104Y-156279792D01*
X130390106Y-156279788D01*
X130390109Y-156279786D01*
X130515048Y-156107820D01*
X130515050Y-156107817D01*
X130515051Y-156107816D01*
X130519514Y-156099054D01*
X130567488Y-156048259D01*
X130635308Y-156031463D01*
X130701444Y-156053999D01*
X130740486Y-156099056D01*
X130744951Y-156107820D01*
X130869890Y-156279786D01*
X131020213Y-156430109D01*
X131192179Y-156555048D01*
X131192181Y-156555049D01*
X131192184Y-156555051D01*
X131381588Y-156651557D01*
X131583757Y-156717246D01*
X131793713Y-156750500D01*
X131793714Y-156750500D01*
X132006286Y-156750500D01*
X132006287Y-156750500D01*
X132216243Y-156717246D01*
X132418412Y-156651557D01*
X132607816Y-156555051D01*
X132629789Y-156539086D01*
X132779786Y-156430109D01*
X132779788Y-156430106D01*
X132779792Y-156430104D01*
X132930104Y-156279792D01*
X132930106Y-156279788D01*
X132930109Y-156279786D01*
X133055048Y-156107820D01*
X133055050Y-156107817D01*
X133055051Y-156107816D01*
X133059514Y-156099054D01*
X133107488Y-156048259D01*
X133175308Y-156031463D01*
X133241444Y-156053999D01*
X133280486Y-156099056D01*
X133284951Y-156107820D01*
X133409890Y-156279786D01*
X133560213Y-156430109D01*
X133732179Y-156555048D01*
X133732181Y-156555049D01*
X133732184Y-156555051D01*
X133921588Y-156651557D01*
X134123757Y-156717246D01*
X134333713Y-156750500D01*
X134333714Y-156750500D01*
X134546286Y-156750500D01*
X134546287Y-156750500D01*
X134756243Y-156717246D01*
X134958412Y-156651557D01*
X135147816Y-156555051D01*
X135169789Y-156539086D01*
X135319786Y-156430109D01*
X135319788Y-156430106D01*
X135319792Y-156430104D01*
X135470104Y-156279792D01*
X135470106Y-156279788D01*
X135470109Y-156279786D01*
X135595048Y-156107820D01*
X135595050Y-156107817D01*
X135595051Y-156107816D01*
X135599514Y-156099054D01*
X135647488Y-156048259D01*
X135715308Y-156031463D01*
X135781444Y-156053999D01*
X135820486Y-156099056D01*
X135824951Y-156107820D01*
X135949890Y-156279786D01*
X136100213Y-156430109D01*
X136272179Y-156555048D01*
X136272181Y-156555049D01*
X136272184Y-156555051D01*
X136461588Y-156651557D01*
X136663757Y-156717246D01*
X136873713Y-156750500D01*
X136873714Y-156750500D01*
X137086286Y-156750500D01*
X137086287Y-156750500D01*
X137296243Y-156717246D01*
X137498412Y-156651557D01*
X137687816Y-156555051D01*
X137709789Y-156539086D01*
X137859786Y-156430109D01*
X137859788Y-156430106D01*
X137859792Y-156430104D01*
X138010104Y-156279792D01*
X138010106Y-156279788D01*
X138010109Y-156279786D01*
X138135048Y-156107820D01*
X138135050Y-156107817D01*
X138135051Y-156107816D01*
X138139514Y-156099054D01*
X138187488Y-156048259D01*
X138255308Y-156031463D01*
X138321444Y-156053999D01*
X138360486Y-156099056D01*
X138364951Y-156107820D01*
X138489890Y-156279786D01*
X138640213Y-156430109D01*
X138812179Y-156555048D01*
X138812181Y-156555049D01*
X138812184Y-156555051D01*
X139001588Y-156651557D01*
X139203757Y-156717246D01*
X139413713Y-156750500D01*
X139413714Y-156750500D01*
X139626286Y-156750500D01*
X139626287Y-156750500D01*
X139836243Y-156717246D01*
X140038412Y-156651557D01*
X140227816Y-156555051D01*
X140249789Y-156539086D01*
X140399786Y-156430109D01*
X140399788Y-156430106D01*
X140399792Y-156430104D01*
X140550104Y-156279792D01*
X140550106Y-156279788D01*
X140550109Y-156279786D01*
X140675048Y-156107820D01*
X140675050Y-156107817D01*
X140675051Y-156107816D01*
X140679514Y-156099054D01*
X140727488Y-156048259D01*
X140795308Y-156031463D01*
X140861444Y-156053999D01*
X140900486Y-156099056D01*
X140904951Y-156107820D01*
X141029890Y-156279786D01*
X141180213Y-156430109D01*
X141352179Y-156555048D01*
X141352181Y-156555049D01*
X141352184Y-156555051D01*
X141541588Y-156651557D01*
X141743757Y-156717246D01*
X141953713Y-156750500D01*
X141953714Y-156750500D01*
X142166286Y-156750500D01*
X142166287Y-156750500D01*
X142376243Y-156717246D01*
X142578412Y-156651557D01*
X142767816Y-156555051D01*
X142854147Y-156492328D01*
X142939784Y-156430110D01*
X142939784Y-156430109D01*
X142939792Y-156430104D01*
X143053329Y-156316566D01*
X143114648Y-156283084D01*
X143184340Y-156288068D01*
X143240274Y-156329939D01*
X143257189Y-156360917D01*
X143306202Y-156492328D01*
X143306206Y-156492335D01*
X143392452Y-156607544D01*
X143392455Y-156607547D01*
X143507664Y-156693793D01*
X143507671Y-156693797D01*
X143642517Y-156744091D01*
X143642516Y-156744091D01*
X143649444Y-156744835D01*
X143702127Y-156750500D01*
X145497872Y-156750499D01*
X145557483Y-156744091D01*
X145692331Y-156693796D01*
X145807546Y-156607546D01*
X145893796Y-156492331D01*
X145944091Y-156357483D01*
X145950500Y-156297873D01*
X145950499Y-154502128D01*
X145944091Y-154442517D01*
X145942810Y-154439083D01*
X145893797Y-154307671D01*
X145893793Y-154307664D01*
X145807547Y-154192455D01*
X145807544Y-154192452D01*
X145692335Y-154106206D01*
X145692328Y-154106202D01*
X145557482Y-154055908D01*
X145557483Y-154055908D01*
X145497883Y-154049501D01*
X145497881Y-154049500D01*
X145497873Y-154049500D01*
X145497864Y-154049500D01*
X143702129Y-154049500D01*
X143702123Y-154049501D01*
X143642516Y-154055908D01*
X143507671Y-154106202D01*
X143507664Y-154106206D01*
X143392455Y-154192452D01*
X143392452Y-154192455D01*
X143306206Y-154307664D01*
X143306203Y-154307669D01*
X143257189Y-154439083D01*
X143215317Y-154495016D01*
X143149853Y-154519433D01*
X143081580Y-154504581D01*
X143053326Y-154483430D01*
X142939786Y-154369890D01*
X142767820Y-154244951D01*
X142578414Y-154148444D01*
X142578413Y-154148443D01*
X142578412Y-154148443D01*
X142376243Y-154082754D01*
X142376241Y-154082753D01*
X142376240Y-154082753D01*
X142214957Y-154057208D01*
X142166287Y-154049500D01*
X141953713Y-154049500D01*
X141905042Y-154057208D01*
X141743760Y-154082753D01*
X141541585Y-154148444D01*
X141352179Y-154244951D01*
X141180213Y-154369890D01*
X141029890Y-154520213D01*
X140904949Y-154692182D01*
X140900484Y-154700946D01*
X140852509Y-154751742D01*
X140784688Y-154768536D01*
X140718553Y-154745998D01*
X140679516Y-154700946D01*
X140675050Y-154692182D01*
X140550109Y-154520213D01*
X140399786Y-154369890D01*
X140227820Y-154244951D01*
X140038414Y-154148444D01*
X140038413Y-154148443D01*
X140038412Y-154148443D01*
X139836243Y-154082754D01*
X139836241Y-154082753D01*
X139836240Y-154082753D01*
X139674957Y-154057208D01*
X139626287Y-154049500D01*
X139413713Y-154049500D01*
X139365042Y-154057208D01*
X139203760Y-154082753D01*
X139001585Y-154148444D01*
X138812179Y-154244951D01*
X138640213Y-154369890D01*
X138489890Y-154520213D01*
X138364949Y-154692182D01*
X138360484Y-154700946D01*
X138312509Y-154751742D01*
X138244688Y-154768536D01*
X138178553Y-154745998D01*
X138139516Y-154700946D01*
X138135050Y-154692182D01*
X138010109Y-154520213D01*
X137859786Y-154369890D01*
X137687820Y-154244951D01*
X137498414Y-154148444D01*
X137498413Y-154148443D01*
X137498412Y-154148443D01*
X137296243Y-154082754D01*
X137296241Y-154082753D01*
X137296240Y-154082753D01*
X137134957Y-154057208D01*
X137086287Y-154049500D01*
X136873713Y-154049500D01*
X136825042Y-154057208D01*
X136663760Y-154082753D01*
X136461585Y-154148444D01*
X136272179Y-154244951D01*
X136100213Y-154369890D01*
X135949890Y-154520213D01*
X135824949Y-154692182D01*
X135820484Y-154700946D01*
X135772509Y-154751742D01*
X135704688Y-154768536D01*
X135638553Y-154745998D01*
X135599516Y-154700946D01*
X135595050Y-154692182D01*
X135470109Y-154520213D01*
X135319786Y-154369890D01*
X135147820Y-154244951D01*
X134958414Y-154148444D01*
X134958413Y-154148443D01*
X134958412Y-154148443D01*
X134756243Y-154082754D01*
X134756241Y-154082753D01*
X134756240Y-154082753D01*
X134594957Y-154057208D01*
X134546287Y-154049500D01*
X134333713Y-154049500D01*
X134285042Y-154057208D01*
X134123760Y-154082753D01*
X133921585Y-154148444D01*
X133732179Y-154244951D01*
X133560213Y-154369890D01*
X133409890Y-154520213D01*
X133284949Y-154692182D01*
X133280484Y-154700946D01*
X133232509Y-154751742D01*
X133164688Y-154768536D01*
X133098553Y-154745998D01*
X133059516Y-154700946D01*
X133055050Y-154692182D01*
X132930109Y-154520213D01*
X132779786Y-154369890D01*
X132607820Y-154244951D01*
X132418414Y-154148444D01*
X132418413Y-154148443D01*
X132418412Y-154148443D01*
X132216243Y-154082754D01*
X132216241Y-154082753D01*
X132216240Y-154082753D01*
X132054957Y-154057208D01*
X132006287Y-154049500D01*
X131793713Y-154049500D01*
X131745042Y-154057208D01*
X131583760Y-154082753D01*
X131381585Y-154148444D01*
X131192179Y-154244951D01*
X131020213Y-154369890D01*
X130869890Y-154520213D01*
X130744949Y-154692182D01*
X130740484Y-154700946D01*
X130692509Y-154751742D01*
X130624688Y-154768536D01*
X130558553Y-154745998D01*
X130519516Y-154700946D01*
X130515050Y-154692182D01*
X130390109Y-154520213D01*
X130239786Y-154369890D01*
X130067820Y-154244951D01*
X129878414Y-154148444D01*
X129878413Y-154148443D01*
X129878412Y-154148443D01*
X129676243Y-154082754D01*
X129676241Y-154082753D01*
X129676240Y-154082753D01*
X129514957Y-154057208D01*
X129466287Y-154049500D01*
X129253713Y-154049500D01*
X129205042Y-154057208D01*
X129043760Y-154082753D01*
X128841585Y-154148444D01*
X128652179Y-154244951D01*
X128480213Y-154369890D01*
X128329890Y-154520213D01*
X128204949Y-154692182D01*
X128200484Y-154700946D01*
X128152509Y-154751742D01*
X128084688Y-154768536D01*
X128018553Y-154745998D01*
X127979516Y-154700946D01*
X127975050Y-154692182D01*
X127850109Y-154520213D01*
X127699786Y-154369890D01*
X127527820Y-154244951D01*
X127338414Y-154148444D01*
X127338413Y-154148443D01*
X127338412Y-154148443D01*
X127136243Y-154082754D01*
X127136241Y-154082753D01*
X127136240Y-154082753D01*
X126974957Y-154057208D01*
X126926287Y-154049500D01*
X126713713Y-154049500D01*
X126665042Y-154057208D01*
X126503760Y-154082753D01*
X126301585Y-154148444D01*
X126112179Y-154244951D01*
X125940213Y-154369890D01*
X125789890Y-154520213D01*
X125664949Y-154692182D01*
X125660484Y-154700946D01*
X125612509Y-154751742D01*
X125544688Y-154768536D01*
X125478553Y-154745998D01*
X125439516Y-154700946D01*
X125435050Y-154692182D01*
X125310109Y-154520213D01*
X125159786Y-154369890D01*
X124987820Y-154244951D01*
X124798414Y-154148444D01*
X124798413Y-154148443D01*
X124798412Y-154148443D01*
X124596243Y-154082754D01*
X124596241Y-154082753D01*
X124596240Y-154082753D01*
X124434957Y-154057208D01*
X124386287Y-154049500D01*
X124173713Y-154049500D01*
X124125042Y-154057208D01*
X123963760Y-154082753D01*
X123761585Y-154148444D01*
X123572179Y-154244951D01*
X123400213Y-154369890D01*
X123249890Y-154520213D01*
X123124949Y-154692182D01*
X123120484Y-154700946D01*
X123072509Y-154751742D01*
X123004688Y-154768536D01*
X122938553Y-154745998D01*
X122899516Y-154700946D01*
X122895050Y-154692182D01*
X122770109Y-154520213D01*
X122619786Y-154369890D01*
X122447820Y-154244951D01*
X122258414Y-154148444D01*
X122258413Y-154148443D01*
X122258412Y-154148443D01*
X122056243Y-154082754D01*
X122056241Y-154082753D01*
X122056240Y-154082753D01*
X121894957Y-154057208D01*
X121846287Y-154049500D01*
X121633713Y-154049500D01*
X121585042Y-154057208D01*
X121423760Y-154082753D01*
X121221585Y-154148444D01*
X121032179Y-154244951D01*
X120860213Y-154369890D01*
X120709890Y-154520213D01*
X120584949Y-154692182D01*
X120580484Y-154700946D01*
X120532509Y-154751742D01*
X120464688Y-154768536D01*
X120398553Y-154745998D01*
X120359516Y-154700946D01*
X120355050Y-154692182D01*
X120230109Y-154520213D01*
X120079786Y-154369890D01*
X119907820Y-154244951D01*
X119718414Y-154148444D01*
X119718413Y-154148443D01*
X119718412Y-154148443D01*
X119516243Y-154082754D01*
X119516241Y-154082753D01*
X119516240Y-154082753D01*
X119354957Y-154057208D01*
X119306287Y-154049500D01*
X119093713Y-154049500D01*
X119045042Y-154057208D01*
X118883760Y-154082753D01*
X118681585Y-154148444D01*
X118492179Y-154244951D01*
X118320213Y-154369890D01*
X118169890Y-154520213D01*
X118044949Y-154692182D01*
X118040484Y-154700946D01*
X117992509Y-154751742D01*
X117924688Y-154768536D01*
X117858553Y-154745998D01*
X117819516Y-154700946D01*
X117815050Y-154692182D01*
X117690109Y-154520213D01*
X117539786Y-154369890D01*
X117367820Y-154244951D01*
X117178414Y-154148444D01*
X117178413Y-154148443D01*
X117178412Y-154148443D01*
X116976243Y-154082754D01*
X116976241Y-154082753D01*
X116976240Y-154082753D01*
X116814957Y-154057208D01*
X116766287Y-154049500D01*
X116553713Y-154049500D01*
X116505042Y-154057208D01*
X116343760Y-154082753D01*
X116141585Y-154148444D01*
X115952179Y-154244951D01*
X115780213Y-154369890D01*
X115629890Y-154520213D01*
X115504949Y-154692182D01*
X115500484Y-154700946D01*
X115452509Y-154751742D01*
X115384688Y-154768536D01*
X115318553Y-154745998D01*
X115279516Y-154700946D01*
X115275050Y-154692182D01*
X115150109Y-154520213D01*
X114999786Y-154369890D01*
X114827820Y-154244951D01*
X114638414Y-154148444D01*
X114638413Y-154148443D01*
X114638412Y-154148443D01*
X114436243Y-154082754D01*
X114436241Y-154082753D01*
X114436240Y-154082753D01*
X114274957Y-154057208D01*
X114226287Y-154049500D01*
X114013713Y-154049500D01*
X113965042Y-154057208D01*
X113803760Y-154082753D01*
X113601585Y-154148444D01*
X113412179Y-154244951D01*
X113240213Y-154369890D01*
X113089890Y-154520213D01*
X112964949Y-154692182D01*
X112960484Y-154700946D01*
X112912509Y-154751742D01*
X112844688Y-154768536D01*
X112778553Y-154745998D01*
X112739516Y-154700946D01*
X112735050Y-154692182D01*
X112610109Y-154520213D01*
X112459786Y-154369890D01*
X112287820Y-154244951D01*
X112098414Y-154148444D01*
X112098413Y-154148443D01*
X112098412Y-154148443D01*
X111896243Y-154082754D01*
X111896241Y-154082753D01*
X111896240Y-154082753D01*
X111734957Y-154057208D01*
X111686287Y-154049500D01*
X111473713Y-154049500D01*
X111425042Y-154057208D01*
X111263760Y-154082753D01*
X111061585Y-154148444D01*
X110872179Y-154244951D01*
X110700213Y-154369890D01*
X110549890Y-154520213D01*
X110424949Y-154692182D01*
X110420484Y-154700946D01*
X110372509Y-154751742D01*
X110304688Y-154768536D01*
X110238553Y-154745998D01*
X110199516Y-154700946D01*
X110195050Y-154692182D01*
X110070109Y-154520213D01*
X109919786Y-154369890D01*
X109747820Y-154244951D01*
X109558414Y-154148444D01*
X109558413Y-154148443D01*
X109558412Y-154148443D01*
X109356243Y-154082754D01*
X109356241Y-154082753D01*
X109356240Y-154082753D01*
X109194957Y-154057208D01*
X109146287Y-154049500D01*
X108933713Y-154049500D01*
X108885042Y-154057208D01*
X108723760Y-154082753D01*
X108521585Y-154148444D01*
X108332179Y-154244951D01*
X108160213Y-154369890D01*
X108009890Y-154520213D01*
X107884949Y-154692182D01*
X107880484Y-154700946D01*
X107832509Y-154751742D01*
X107764688Y-154768536D01*
X107698553Y-154745998D01*
X107659516Y-154700946D01*
X107655050Y-154692182D01*
X107530109Y-154520213D01*
X107379786Y-154369890D01*
X107207820Y-154244951D01*
X107018414Y-154148444D01*
X107018413Y-154148443D01*
X107018412Y-154148443D01*
X106816243Y-154082754D01*
X106816241Y-154082753D01*
X106816240Y-154082753D01*
X106654957Y-154057208D01*
X106606287Y-154049500D01*
X106393713Y-154049500D01*
X106345042Y-154057208D01*
X106183760Y-154082753D01*
X105981585Y-154148444D01*
X105792179Y-154244951D01*
X105620213Y-154369890D01*
X105469890Y-154520213D01*
X105344949Y-154692182D01*
X105340484Y-154700946D01*
X105292509Y-154751742D01*
X105224688Y-154768536D01*
X105158553Y-154745998D01*
X105119516Y-154700946D01*
X105115050Y-154692182D01*
X104990109Y-154520213D01*
X104839786Y-154369890D01*
X104667820Y-154244951D01*
X104478414Y-154148444D01*
X104478413Y-154148443D01*
X104478412Y-154148443D01*
X104276243Y-154082754D01*
X104276241Y-154082753D01*
X104276240Y-154082753D01*
X104114957Y-154057208D01*
X104066287Y-154049500D01*
X103853713Y-154049500D01*
X103805042Y-154057208D01*
X103643760Y-154082753D01*
X103441585Y-154148444D01*
X103252179Y-154244951D01*
X103080213Y-154369890D01*
X102929890Y-154520213D01*
X102804949Y-154692182D01*
X102800484Y-154700946D01*
X102752509Y-154751742D01*
X102684688Y-154768536D01*
X102618553Y-154745998D01*
X102579516Y-154700946D01*
X102575050Y-154692182D01*
X102450109Y-154520213D01*
X102299786Y-154369890D01*
X102127820Y-154244951D01*
X101938414Y-154148444D01*
X101938413Y-154148443D01*
X101938412Y-154148443D01*
X101736243Y-154082754D01*
X101736241Y-154082753D01*
X101736240Y-154082753D01*
X101574957Y-154057208D01*
X101526287Y-154049500D01*
X101313713Y-154049500D01*
X101265042Y-154057208D01*
X101103760Y-154082753D01*
X100901585Y-154148444D01*
X100712179Y-154244951D01*
X100540213Y-154369890D01*
X100389890Y-154520213D01*
X100264949Y-154692182D01*
X100260484Y-154700946D01*
X100212509Y-154751742D01*
X100144688Y-154768536D01*
X100078553Y-154745998D01*
X100039516Y-154700946D01*
X100035050Y-154692182D01*
X99910109Y-154520213D01*
X99759786Y-154369890D01*
X99587820Y-154244951D01*
X99398414Y-154148444D01*
X99398413Y-154148443D01*
X99398412Y-154148443D01*
X99196243Y-154082754D01*
X99196241Y-154082753D01*
X99196240Y-154082753D01*
X99034957Y-154057208D01*
X98986287Y-154049500D01*
X98773713Y-154049500D01*
X98725042Y-154057208D01*
X98563760Y-154082753D01*
X98361585Y-154148444D01*
X98172179Y-154244951D01*
X98000213Y-154369890D01*
X97849890Y-154520213D01*
X97724949Y-154692182D01*
X97720202Y-154701499D01*
X97672227Y-154752293D01*
X97604405Y-154769087D01*
X97538271Y-154746548D01*
X97499234Y-154701495D01*
X97494626Y-154692452D01*
X97455270Y-154638282D01*
X97455269Y-154638282D01*
X96822962Y-155270590D01*
X96805925Y-155207007D01*
X96740099Y-155092993D01*
X96647007Y-154999901D01*
X96532993Y-154934075D01*
X96469409Y-154917037D01*
X97101716Y-154284728D01*
X97047550Y-154245375D01*
X96858217Y-154148904D01*
X96656129Y-154083242D01*
X96446246Y-154050000D01*
X96233754Y-154050000D01*
X96023872Y-154083242D01*
X96023869Y-154083242D01*
X95821782Y-154148904D01*
X95632439Y-154245380D01*
X95578282Y-154284727D01*
X95578282Y-154284728D01*
X96210591Y-154917037D01*
X96147007Y-154934075D01*
X96032993Y-154999901D01*
X95939901Y-155092993D01*
X95874075Y-155207007D01*
X95857037Y-155270591D01*
X95224728Y-154638282D01*
X95224727Y-154638282D01*
X95185380Y-154692439D01*
X95088904Y-154881782D01*
X95023242Y-155083869D01*
X95023242Y-155083872D01*
X94990000Y-155293753D01*
X71000000Y-155293753D01*
X71000000Y-153999993D01*
X70906415Y-143518531D01*
X70784765Y-129893713D01*
X94989500Y-129893713D01*
X94989500Y-130106286D01*
X95022753Y-130316239D01*
X95088444Y-130518414D01*
X95184951Y-130707820D01*
X95309890Y-130879786D01*
X95460213Y-131030109D01*
X95632179Y-131155048D01*
X95632181Y-131155049D01*
X95632184Y-131155051D01*
X95821588Y-131251557D01*
X96023757Y-131317246D01*
X96233713Y-131350500D01*
X96233714Y-131350500D01*
X96446286Y-131350500D01*
X96446287Y-131350500D01*
X96656243Y-131317246D01*
X96858412Y-131251557D01*
X97047816Y-131155051D01*
X97134138Y-131092335D01*
X97219786Y-131030109D01*
X97219788Y-131030106D01*
X97219792Y-131030104D01*
X97370104Y-130879792D01*
X97370106Y-130879788D01*
X97370109Y-130879786D01*
X97495048Y-130707820D01*
X97495047Y-130707820D01*
X97495051Y-130707816D01*
X97499514Y-130699054D01*
X97547488Y-130648259D01*
X97615308Y-130631463D01*
X97681444Y-130653999D01*
X97720486Y-130699056D01*
X97724951Y-130707820D01*
X97849890Y-130879786D01*
X98000213Y-131030109D01*
X98172179Y-131155048D01*
X98172181Y-131155049D01*
X98172184Y-131155051D01*
X98361588Y-131251557D01*
X98563757Y-131317246D01*
X98773713Y-131350500D01*
X98773714Y-131350500D01*
X98986286Y-131350500D01*
X98986287Y-131350500D01*
X99196243Y-131317246D01*
X99398412Y-131251557D01*
X99587816Y-131155051D01*
X99674138Y-131092335D01*
X99759786Y-131030109D01*
X99759788Y-131030106D01*
X99759792Y-131030104D01*
X99910104Y-130879792D01*
X99910106Y-130879788D01*
X99910109Y-130879786D01*
X100035048Y-130707820D01*
X100035047Y-130707820D01*
X100035051Y-130707816D01*
X100039514Y-130699054D01*
X100087488Y-130648259D01*
X100155308Y-130631463D01*
X100221444Y-130653999D01*
X100260486Y-130699056D01*
X100264951Y-130707820D01*
X100389890Y-130879786D01*
X100540213Y-131030109D01*
X100712179Y-131155048D01*
X100712181Y-131155049D01*
X100712184Y-131155051D01*
X100901588Y-131251557D01*
X101103757Y-131317246D01*
X101313713Y-131350500D01*
X101313714Y-131350500D01*
X101526286Y-131350500D01*
X101526287Y-131350500D01*
X101736243Y-131317246D01*
X101938412Y-131251557D01*
X102127816Y-131155051D01*
X102214138Y-131092335D01*
X102299786Y-131030109D01*
X102299788Y-131030106D01*
X102299792Y-131030104D01*
X102450104Y-130879792D01*
X102450106Y-130879788D01*
X102450109Y-130879786D01*
X102575048Y-130707820D01*
X102575047Y-130707820D01*
X102575051Y-130707816D01*
X102579514Y-130699054D01*
X102627488Y-130648259D01*
X102695308Y-130631463D01*
X102761444Y-130653999D01*
X102800486Y-130699056D01*
X102804951Y-130707820D01*
X102929890Y-130879786D01*
X103080213Y-131030109D01*
X103252179Y-131155048D01*
X103252181Y-131155049D01*
X103252184Y-131155051D01*
X103441588Y-131251557D01*
X103643757Y-131317246D01*
X103853713Y-131350500D01*
X103853714Y-131350500D01*
X104066286Y-131350500D01*
X104066287Y-131350500D01*
X104276243Y-131317246D01*
X104478412Y-131251557D01*
X104667816Y-131155051D01*
X104754138Y-131092335D01*
X104839786Y-131030109D01*
X104839788Y-131030106D01*
X104839792Y-131030104D01*
X104990104Y-130879792D01*
X104990106Y-130879788D01*
X104990109Y-130879786D01*
X105115048Y-130707820D01*
X105115047Y-130707820D01*
X105115051Y-130707816D01*
X105119514Y-130699054D01*
X105167488Y-130648259D01*
X105235308Y-130631463D01*
X105301444Y-130653999D01*
X105340486Y-130699056D01*
X105344951Y-130707820D01*
X105469890Y-130879786D01*
X105620213Y-131030109D01*
X105792179Y-131155048D01*
X105792181Y-131155049D01*
X105792184Y-131155051D01*
X105981588Y-131251557D01*
X106183757Y-131317246D01*
X106393713Y-131350500D01*
X106393714Y-131350500D01*
X106606286Y-131350500D01*
X106606287Y-131350500D01*
X106816243Y-131317246D01*
X107018412Y-131251557D01*
X107207816Y-131155051D01*
X107294138Y-131092335D01*
X107379786Y-131030109D01*
X107379788Y-131030106D01*
X107379792Y-131030104D01*
X107530104Y-130879792D01*
X107530106Y-130879788D01*
X107530109Y-130879786D01*
X107655048Y-130707820D01*
X107655047Y-130707820D01*
X107655051Y-130707816D01*
X107659514Y-130699054D01*
X107707488Y-130648259D01*
X107775308Y-130631463D01*
X107841444Y-130653999D01*
X107880486Y-130699056D01*
X107884951Y-130707820D01*
X108009890Y-130879786D01*
X108160213Y-131030109D01*
X108332179Y-131155048D01*
X108332181Y-131155049D01*
X108332184Y-131155051D01*
X108521588Y-131251557D01*
X108723757Y-131317246D01*
X108933713Y-131350500D01*
X108933714Y-131350500D01*
X109146286Y-131350500D01*
X109146287Y-131350500D01*
X109356243Y-131317246D01*
X109558412Y-131251557D01*
X109747816Y-131155051D01*
X109834138Y-131092335D01*
X109919786Y-131030109D01*
X109919788Y-131030106D01*
X109919792Y-131030104D01*
X110070104Y-130879792D01*
X110070106Y-130879788D01*
X110070109Y-130879786D01*
X110195048Y-130707820D01*
X110195047Y-130707820D01*
X110195051Y-130707816D01*
X110199514Y-130699054D01*
X110247488Y-130648259D01*
X110315308Y-130631463D01*
X110381444Y-130653999D01*
X110420486Y-130699056D01*
X110424951Y-130707820D01*
X110549890Y-130879786D01*
X110700213Y-131030109D01*
X110872179Y-131155048D01*
X110872181Y-131155049D01*
X110872184Y-131155051D01*
X111061588Y-131251557D01*
X111263757Y-131317246D01*
X111473713Y-131350500D01*
X111473714Y-131350500D01*
X111686286Y-131350500D01*
X111686287Y-131350500D01*
X111896243Y-131317246D01*
X112098412Y-131251557D01*
X112287816Y-131155051D01*
X112374138Y-131092335D01*
X112459786Y-131030109D01*
X112459788Y-131030106D01*
X112459792Y-131030104D01*
X112610104Y-130879792D01*
X112610106Y-130879788D01*
X112610109Y-130879786D01*
X112735048Y-130707820D01*
X112735047Y-130707820D01*
X112735051Y-130707816D01*
X112739514Y-130699054D01*
X112787488Y-130648259D01*
X112855308Y-130631463D01*
X112921444Y-130653999D01*
X112960486Y-130699056D01*
X112964951Y-130707820D01*
X113089890Y-130879786D01*
X113240213Y-131030109D01*
X113412179Y-131155048D01*
X113412181Y-131155049D01*
X113412184Y-131155051D01*
X113601588Y-131251557D01*
X113803757Y-131317246D01*
X114013713Y-131350500D01*
X114013714Y-131350500D01*
X114226286Y-131350500D01*
X114226287Y-131350500D01*
X114436243Y-131317246D01*
X114638412Y-131251557D01*
X114827816Y-131155051D01*
X114914138Y-131092335D01*
X114999786Y-131030109D01*
X114999788Y-131030106D01*
X114999792Y-131030104D01*
X115150104Y-130879792D01*
X115150106Y-130879788D01*
X115150109Y-130879786D01*
X115275048Y-130707820D01*
X115275047Y-130707820D01*
X115275051Y-130707816D01*
X115279514Y-130699054D01*
X115327488Y-130648259D01*
X115395308Y-130631463D01*
X115461444Y-130653999D01*
X115500486Y-130699056D01*
X115504951Y-130707820D01*
X115629890Y-130879786D01*
X115780213Y-131030109D01*
X115952179Y-131155048D01*
X115952181Y-131155049D01*
X115952184Y-131155051D01*
X116141588Y-131251557D01*
X116343757Y-131317246D01*
X116553713Y-131350500D01*
X116553714Y-131350500D01*
X116766286Y-131350500D01*
X116766287Y-131350500D01*
X116976243Y-131317246D01*
X117178412Y-131251557D01*
X117367816Y-131155051D01*
X117454138Y-131092335D01*
X117539786Y-131030109D01*
X117539788Y-131030106D01*
X117539792Y-131030104D01*
X117690104Y-130879792D01*
X117690106Y-130879788D01*
X117690109Y-130879786D01*
X117815048Y-130707820D01*
X117815047Y-130707820D01*
X117815051Y-130707816D01*
X117819514Y-130699054D01*
X117867488Y-130648259D01*
X117935308Y-130631463D01*
X118001444Y-130653999D01*
X118040486Y-130699056D01*
X118044951Y-130707820D01*
X118169890Y-130879786D01*
X118320213Y-131030109D01*
X118492179Y-131155048D01*
X118492181Y-131155049D01*
X118492184Y-131155051D01*
X118681588Y-131251557D01*
X118883757Y-131317246D01*
X119093713Y-131350500D01*
X119093714Y-131350500D01*
X119306286Y-131350500D01*
X119306287Y-131350500D01*
X119516243Y-131317246D01*
X119718412Y-131251557D01*
X119907816Y-131155051D01*
X119994138Y-131092335D01*
X120079786Y-131030109D01*
X120079788Y-131030106D01*
X120079792Y-131030104D01*
X120230104Y-130879792D01*
X120230106Y-130879788D01*
X120230109Y-130879786D01*
X120355048Y-130707820D01*
X120355047Y-130707820D01*
X120355051Y-130707816D01*
X120359514Y-130699054D01*
X120407488Y-130648259D01*
X120475308Y-130631463D01*
X120541444Y-130653999D01*
X120580486Y-130699056D01*
X120584951Y-130707820D01*
X120709890Y-130879786D01*
X120860213Y-131030109D01*
X121032179Y-131155048D01*
X121032181Y-131155049D01*
X121032184Y-131155051D01*
X121221588Y-131251557D01*
X121423757Y-131317246D01*
X121633713Y-131350500D01*
X121633714Y-131350500D01*
X121846286Y-131350500D01*
X121846287Y-131350500D01*
X122056243Y-131317246D01*
X122258412Y-131251557D01*
X122447816Y-131155051D01*
X122534138Y-131092335D01*
X122619786Y-131030109D01*
X122619788Y-131030106D01*
X122619792Y-131030104D01*
X122770104Y-130879792D01*
X122770106Y-130879788D01*
X122770109Y-130879786D01*
X122895048Y-130707820D01*
X122895047Y-130707820D01*
X122895051Y-130707816D01*
X122899514Y-130699054D01*
X122947488Y-130648259D01*
X123015308Y-130631463D01*
X123081444Y-130653999D01*
X123120486Y-130699056D01*
X123124951Y-130707820D01*
X123249890Y-130879786D01*
X123400213Y-131030109D01*
X123572179Y-131155048D01*
X123572181Y-131155049D01*
X123572184Y-131155051D01*
X123761588Y-131251557D01*
X123963757Y-131317246D01*
X124173713Y-131350500D01*
X124173714Y-131350500D01*
X124386286Y-131350500D01*
X124386287Y-131350500D01*
X124596243Y-131317246D01*
X124798412Y-131251557D01*
X124987816Y-131155051D01*
X125074138Y-131092335D01*
X125159786Y-131030109D01*
X125159788Y-131030106D01*
X125159792Y-131030104D01*
X125310104Y-130879792D01*
X125310106Y-130879788D01*
X125310109Y-130879786D01*
X125435048Y-130707820D01*
X125435047Y-130707820D01*
X125435051Y-130707816D01*
X125439514Y-130699054D01*
X125487488Y-130648259D01*
X125555308Y-130631463D01*
X125621444Y-130653999D01*
X125660486Y-130699056D01*
X125664951Y-130707820D01*
X125789890Y-130879786D01*
X125940213Y-131030109D01*
X126112179Y-131155048D01*
X126112181Y-131155049D01*
X126112184Y-131155051D01*
X126301588Y-131251557D01*
X126503757Y-131317246D01*
X126713713Y-131350500D01*
X126713714Y-131350500D01*
X126926286Y-131350500D01*
X126926287Y-131350500D01*
X127136243Y-131317246D01*
X127338412Y-131251557D01*
X127527816Y-131155051D01*
X127614138Y-131092335D01*
X127699786Y-131030109D01*
X127699788Y-131030106D01*
X127699792Y-131030104D01*
X127850104Y-130879792D01*
X127850106Y-130879788D01*
X127850109Y-130879786D01*
X127975048Y-130707820D01*
X127975047Y-130707820D01*
X127975051Y-130707816D01*
X127979514Y-130699054D01*
X128027488Y-130648259D01*
X128095308Y-130631463D01*
X128161444Y-130653999D01*
X128200486Y-130699056D01*
X128204951Y-130707820D01*
X128329890Y-130879786D01*
X128480213Y-131030109D01*
X128652179Y-131155048D01*
X128652181Y-131155049D01*
X128652184Y-131155051D01*
X128841588Y-131251557D01*
X129043757Y-131317246D01*
X129253713Y-131350500D01*
X129253714Y-131350500D01*
X129466286Y-131350500D01*
X129466287Y-131350500D01*
X129676243Y-131317246D01*
X129878412Y-131251557D01*
X130067816Y-131155051D01*
X130154138Y-131092335D01*
X130239786Y-131030109D01*
X130239788Y-131030106D01*
X130239792Y-131030104D01*
X130390104Y-130879792D01*
X130390106Y-130879788D01*
X130390109Y-130879786D01*
X130515048Y-130707820D01*
X130515047Y-130707820D01*
X130515051Y-130707816D01*
X130519514Y-130699054D01*
X130567488Y-130648259D01*
X130635308Y-130631463D01*
X130701444Y-130653999D01*
X130740486Y-130699056D01*
X130744951Y-130707820D01*
X130869890Y-130879786D01*
X131020213Y-131030109D01*
X131192179Y-131155048D01*
X131192181Y-131155049D01*
X131192184Y-131155051D01*
X131381588Y-131251557D01*
X131583757Y-131317246D01*
X131793713Y-131350500D01*
X131793714Y-131350500D01*
X132006286Y-131350500D01*
X132006287Y-131350500D01*
X132216243Y-131317246D01*
X132418412Y-131251557D01*
X132607816Y-131155051D01*
X132694138Y-131092335D01*
X132779786Y-131030109D01*
X132779788Y-131030106D01*
X132779792Y-131030104D01*
X132930104Y-130879792D01*
X132930106Y-130879788D01*
X132930109Y-130879786D01*
X133055048Y-130707820D01*
X133055047Y-130707820D01*
X133055051Y-130707816D01*
X133059514Y-130699054D01*
X133107488Y-130648259D01*
X133175308Y-130631463D01*
X133241444Y-130653999D01*
X133280486Y-130699056D01*
X133284951Y-130707820D01*
X133409890Y-130879786D01*
X133560213Y-131030109D01*
X133732179Y-131155048D01*
X133732181Y-131155049D01*
X133732184Y-131155051D01*
X133921588Y-131251557D01*
X134123757Y-131317246D01*
X134333713Y-131350500D01*
X134333714Y-131350500D01*
X134546285Y-131350500D01*
X134546287Y-131350500D01*
X134569873Y-131346764D01*
X134639166Y-131355718D01*
X134692618Y-131400714D01*
X134713258Y-131467465D01*
X134694534Y-131534779D01*
X134658162Y-131572339D01*
X134557838Y-131639373D01*
X134557834Y-131639376D01*
X134439373Y-131757837D01*
X134346295Y-131897139D01*
X134282184Y-132051917D01*
X134282182Y-132051925D01*
X134248311Y-132222208D01*
X134245697Y-132221688D01*
X134223805Y-132275794D01*
X134214299Y-132286464D01*
X132387584Y-134113181D01*
X132326261Y-134146666D01*
X132299903Y-134149500D01*
X132266228Y-134149500D01*
X132101925Y-134182182D01*
X132101917Y-134182184D01*
X131947139Y-134246295D01*
X131807837Y-134339373D01*
X131689373Y-134457837D01*
X131596295Y-134597139D01*
X131532184Y-134751917D01*
X131532182Y-134751925D01*
X131499500Y-134916228D01*
X131499500Y-135083771D01*
X131532182Y-135248074D01*
X131532184Y-135248082D01*
X131596295Y-135402860D01*
X131689373Y-135542162D01*
X131807837Y-135660626D01*
X131900494Y-135722537D01*
X131947137Y-135753703D01*
X132101918Y-135817816D01*
X132266228Y-135850499D01*
X132266232Y-135850500D01*
X132266233Y-135850500D01*
X132433768Y-135850500D01*
X132433769Y-135850499D01*
X132598082Y-135817816D01*
X132752863Y-135753703D01*
X132892162Y-135660626D01*
X133010626Y-135542162D01*
X133103703Y-135402863D01*
X133167816Y-135248082D01*
X133200500Y-135083767D01*
X133200500Y-135050097D01*
X133220185Y-134983058D01*
X133236819Y-134962416D01*
X134283008Y-133916228D01*
X154099500Y-133916228D01*
X154099500Y-134083771D01*
X154132182Y-134248074D01*
X154132184Y-134248082D01*
X154196295Y-134402860D01*
X154289373Y-134542162D01*
X154407837Y-134660626D01*
X154500494Y-134722537D01*
X154547137Y-134753703D01*
X154701918Y-134817816D01*
X154795512Y-134836432D01*
X154857421Y-134868816D01*
X154859001Y-134870368D01*
X156211539Y-136222907D01*
X156238419Y-136263135D01*
X156296295Y-136402860D01*
X156389373Y-136542162D01*
X156507837Y-136660626D01*
X156600494Y-136722537D01*
X156647137Y-136753703D01*
X156801918Y-136817816D01*
X156966228Y-136850499D01*
X156966232Y-136850500D01*
X156966233Y-136850500D01*
X157133768Y-136850500D01*
X157133769Y-136850499D01*
X157298082Y-136817816D01*
X157452863Y-136753703D01*
X157592162Y-136660626D01*
X157710626Y-136542162D01*
X157803703Y-136402863D01*
X157867816Y-136248082D01*
X157900500Y-136083767D01*
X157900500Y-135999635D01*
X158499500Y-135999635D01*
X158499500Y-138000370D01*
X158499501Y-138000376D01*
X158505908Y-138059983D01*
X158556202Y-138194828D01*
X158556206Y-138194835D01*
X158642452Y-138310044D01*
X158642455Y-138310047D01*
X158757664Y-138396293D01*
X158757669Y-138396296D01*
X158785539Y-138406690D01*
X158841473Y-138448561D01*
X158865891Y-138514024D01*
X158851040Y-138582298D01*
X158842525Y-138595759D01*
X158709783Y-138778461D01*
X158605950Y-138982244D01*
X158535278Y-139199750D01*
X158535278Y-139199753D01*
X158499500Y-139425646D01*
X158499500Y-139654353D01*
X158535278Y-139880246D01*
X158535278Y-139880249D01*
X158605950Y-140097755D01*
X158605952Y-140097758D01*
X158709783Y-140301538D01*
X158844214Y-140486566D01*
X159005934Y-140648286D01*
X159090864Y-140709991D01*
X159133529Y-140765321D01*
X159139508Y-140834935D01*
X159106902Y-140896730D01*
X159090864Y-140910627D01*
X159006257Y-140972097D01*
X158844597Y-141133757D01*
X158710211Y-141318723D01*
X158606417Y-141522429D01*
X158535765Y-141739871D01*
X158521491Y-141830000D01*
X159509252Y-141830000D01*
X159487482Y-141867708D01*
X159450000Y-142007591D01*
X159450000Y-142152409D01*
X159487482Y-142292292D01*
X159509252Y-142330000D01*
X158521491Y-142330000D01*
X158535765Y-142420128D01*
X158606417Y-142637570D01*
X158710211Y-142841276D01*
X158844597Y-143026242D01*
X159006257Y-143187902D01*
X159191223Y-143322288D01*
X159394929Y-143426082D01*
X159612371Y-143496734D01*
X159750000Y-143518532D01*
X159750000Y-142570747D01*
X159787708Y-142592518D01*
X159927591Y-142630000D01*
X160072409Y-142630000D01*
X160212292Y-142592518D01*
X160250000Y-142570747D01*
X160250000Y-143518531D01*
X160387628Y-143496734D01*
X160605070Y-143426082D01*
X160808776Y-143322288D01*
X160993742Y-143187902D01*
X161155402Y-143026242D01*
X161289788Y-142841276D01*
X161393582Y-142637570D01*
X161464234Y-142420128D01*
X161478509Y-142330000D01*
X160490748Y-142330000D01*
X160512518Y-142292292D01*
X160550000Y-142152409D01*
X160550000Y-142007591D01*
X160512518Y-141867708D01*
X160490748Y-141830000D01*
X161478509Y-141830000D01*
X161464234Y-141739871D01*
X161393582Y-141522429D01*
X161289788Y-141318723D01*
X161155402Y-141133757D01*
X160993742Y-140972097D01*
X160909135Y-140910626D01*
X160866470Y-140855296D01*
X160860491Y-140785682D01*
X160893097Y-140723887D01*
X160909125Y-140709999D01*
X160994066Y-140648286D01*
X161155786Y-140486566D01*
X161290217Y-140301538D01*
X161394048Y-140097758D01*
X161464722Y-139880245D01*
X161500500Y-139654354D01*
X161500500Y-139425646D01*
X161464722Y-139199755D01*
X161464721Y-139199751D01*
X161464721Y-139199750D01*
X161394049Y-138982244D01*
X161290216Y-138778461D01*
X161157472Y-138595755D01*
X161133994Y-138529953D01*
X161149819Y-138461899D01*
X161199925Y-138413204D01*
X161214455Y-138406692D01*
X161242331Y-138396296D01*
X161357546Y-138310046D01*
X161443796Y-138194831D01*
X161494091Y-138059983D01*
X161500500Y-138000373D01*
X161500499Y-135999628D01*
X161494091Y-135940017D01*
X161485220Y-135916233D01*
X161443797Y-135805171D01*
X161443793Y-135805164D01*
X161357547Y-135689955D01*
X161357544Y-135689952D01*
X161242335Y-135603706D01*
X161242328Y-135603702D01*
X161107482Y-135553408D01*
X161107483Y-135553408D01*
X161047883Y-135547001D01*
X161047881Y-135547000D01*
X161047873Y-135547000D01*
X161047864Y-135547000D01*
X158952129Y-135547000D01*
X158952123Y-135547001D01*
X158892516Y-135553408D01*
X158757671Y-135603702D01*
X158757664Y-135603706D01*
X158642455Y-135689952D01*
X158642452Y-135689955D01*
X158556206Y-135805164D01*
X158556202Y-135805171D01*
X158505908Y-135940017D01*
X158499501Y-135999616D01*
X158499501Y-135999623D01*
X158499500Y-135999635D01*
X157900500Y-135999635D01*
X157900500Y-135916233D01*
X157867816Y-135751918D01*
X157803703Y-135597137D01*
X157766970Y-135542162D01*
X157710626Y-135457837D01*
X157592162Y-135339373D01*
X157452860Y-135246295D01*
X157313135Y-135188419D01*
X157272907Y-135161539D01*
X155702669Y-133591301D01*
X155687248Y-133572510D01*
X155610629Y-133457842D01*
X155610623Y-133457834D01*
X155492162Y-133339373D01*
X155352860Y-133246295D01*
X155198082Y-133182184D01*
X155198074Y-133182182D01*
X155033771Y-133149500D01*
X155033767Y-133149500D01*
X154866233Y-133149500D01*
X154866228Y-133149500D01*
X154701925Y-133182182D01*
X154701917Y-133182184D01*
X154547139Y-133246295D01*
X154407837Y-133339373D01*
X154289373Y-133457837D01*
X154196295Y-133597139D01*
X154132184Y-133751917D01*
X154132182Y-133751925D01*
X154099500Y-133916228D01*
X134283008Y-133916228D01*
X134376776Y-133822460D01*
X135012417Y-133186819D01*
X135073740Y-133153334D01*
X135100098Y-133150500D01*
X135183768Y-133150500D01*
X135183769Y-133150499D01*
X135348082Y-133117816D01*
X135502863Y-133053703D01*
X135642162Y-132960626D01*
X135760626Y-132842162D01*
X135853703Y-132702863D01*
X135917816Y-132548082D01*
X135950500Y-132383767D01*
X135950500Y-132216233D01*
X135917816Y-132051918D01*
X135853703Y-131897137D01*
X135822537Y-131850494D01*
X135760626Y-131757837D01*
X135642162Y-131639373D01*
X135502860Y-131546295D01*
X135348082Y-131482184D01*
X135348074Y-131482182D01*
X135183771Y-131449500D01*
X135183767Y-131449500D01*
X135086425Y-131449500D01*
X135019386Y-131429815D01*
X134973631Y-131377011D01*
X134963687Y-131307853D01*
X134992712Y-131244297D01*
X135030130Y-131215015D01*
X135036648Y-131211693D01*
X135147816Y-131155051D01*
X135244371Y-131084899D01*
X135319786Y-131030109D01*
X135319788Y-131030106D01*
X135319792Y-131030104D01*
X135470104Y-130879792D01*
X135470106Y-130879788D01*
X135470109Y-130879786D01*
X135595048Y-130707820D01*
X135595047Y-130707820D01*
X135595051Y-130707816D01*
X135599514Y-130699054D01*
X135647488Y-130648259D01*
X135715308Y-130631463D01*
X135781444Y-130653999D01*
X135820486Y-130699056D01*
X135824951Y-130707820D01*
X135949890Y-130879786D01*
X136100213Y-131030109D01*
X136272179Y-131155048D01*
X136272181Y-131155049D01*
X136272184Y-131155051D01*
X136461588Y-131251557D01*
X136663757Y-131317246D01*
X136873713Y-131350500D01*
X136873714Y-131350500D01*
X137086286Y-131350500D01*
X137086287Y-131350500D01*
X137296243Y-131317246D01*
X137498412Y-131251557D01*
X137687816Y-131155051D01*
X137774138Y-131092335D01*
X137859786Y-131030109D01*
X137859788Y-131030106D01*
X137859792Y-131030104D01*
X138010104Y-130879792D01*
X138010106Y-130879788D01*
X138010109Y-130879786D01*
X138135048Y-130707820D01*
X138135047Y-130707820D01*
X138135051Y-130707816D01*
X138139514Y-130699054D01*
X138187488Y-130648259D01*
X138255308Y-130631463D01*
X138321444Y-130653999D01*
X138360486Y-130699056D01*
X138364951Y-130707820D01*
X138489890Y-130879786D01*
X138640213Y-131030109D01*
X138812179Y-131155048D01*
X138812181Y-131155049D01*
X138812184Y-131155051D01*
X139001588Y-131251557D01*
X139203757Y-131317246D01*
X139413713Y-131350500D01*
X139413714Y-131350500D01*
X139626286Y-131350500D01*
X139626287Y-131350500D01*
X139836243Y-131317246D01*
X140038412Y-131251557D01*
X140227816Y-131155051D01*
X140314138Y-131092335D01*
X140399786Y-131030109D01*
X140399788Y-131030106D01*
X140399792Y-131030104D01*
X140550104Y-130879792D01*
X140550106Y-130879788D01*
X140550109Y-130879786D01*
X140675048Y-130707820D01*
X140675047Y-130707820D01*
X140675051Y-130707816D01*
X140679514Y-130699054D01*
X140727488Y-130648259D01*
X140795308Y-130631463D01*
X140861444Y-130653999D01*
X140900486Y-130699056D01*
X140904951Y-130707820D01*
X141029890Y-130879786D01*
X141180213Y-131030109D01*
X141352179Y-131155048D01*
X141352181Y-131155049D01*
X141352184Y-131155051D01*
X141541588Y-131251557D01*
X141743757Y-131317246D01*
X141953713Y-131350500D01*
X141953714Y-131350500D01*
X142166286Y-131350500D01*
X142166287Y-131350500D01*
X142376243Y-131317246D01*
X142578412Y-131251557D01*
X142767816Y-131155051D01*
X142939792Y-131030104D01*
X143053329Y-130916566D01*
X143114648Y-130883084D01*
X143184340Y-130888068D01*
X143240274Y-130929939D01*
X143257189Y-130960917D01*
X143306202Y-131092328D01*
X143306206Y-131092335D01*
X143392452Y-131207544D01*
X143392455Y-131207547D01*
X143507664Y-131293793D01*
X143507671Y-131293797D01*
X143642517Y-131344091D01*
X143642516Y-131344091D01*
X143649444Y-131344835D01*
X143702127Y-131350500D01*
X145497872Y-131350499D01*
X145557483Y-131344091D01*
X145692331Y-131293796D01*
X145807546Y-131207546D01*
X145893796Y-131092331D01*
X145944091Y-130957483D01*
X145950500Y-130897873D01*
X145950499Y-129102128D01*
X145944091Y-129042517D01*
X145942810Y-129039083D01*
X145893797Y-128907671D01*
X145893793Y-128907664D01*
X145807547Y-128792455D01*
X145807544Y-128792452D01*
X145692335Y-128706206D01*
X145692328Y-128706202D01*
X145557482Y-128655908D01*
X145557483Y-128655908D01*
X145497883Y-128649501D01*
X145497881Y-128649500D01*
X145497873Y-128649500D01*
X145497864Y-128649500D01*
X143702129Y-128649500D01*
X143702123Y-128649501D01*
X143642516Y-128655908D01*
X143507671Y-128706202D01*
X143507664Y-128706206D01*
X143392455Y-128792452D01*
X143392452Y-128792455D01*
X143306206Y-128907664D01*
X143306203Y-128907669D01*
X143257189Y-129039083D01*
X143215317Y-129095016D01*
X143149853Y-129119433D01*
X143081580Y-129104581D01*
X143053326Y-129083430D01*
X142939786Y-128969890D01*
X142767820Y-128844951D01*
X142578414Y-128748444D01*
X142578413Y-128748443D01*
X142578412Y-128748443D01*
X142376243Y-128682754D01*
X142376241Y-128682753D01*
X142376240Y-128682753D01*
X142214957Y-128657208D01*
X142166287Y-128649500D01*
X141953713Y-128649500D01*
X141905042Y-128657208D01*
X141743760Y-128682753D01*
X141541585Y-128748444D01*
X141352179Y-128844951D01*
X141180213Y-128969890D01*
X141029890Y-129120213D01*
X140904949Y-129292182D01*
X140900484Y-129300946D01*
X140852509Y-129351742D01*
X140784688Y-129368536D01*
X140718553Y-129345998D01*
X140679516Y-129300946D01*
X140675050Y-129292182D01*
X140550109Y-129120213D01*
X140399786Y-128969890D01*
X140227820Y-128844951D01*
X140038414Y-128748444D01*
X140038413Y-128748443D01*
X140038412Y-128748443D01*
X139836243Y-128682754D01*
X139836241Y-128682753D01*
X139836240Y-128682753D01*
X139674957Y-128657208D01*
X139626287Y-128649500D01*
X139413713Y-128649500D01*
X139365042Y-128657208D01*
X139203760Y-128682753D01*
X139001585Y-128748444D01*
X138812179Y-128844951D01*
X138640213Y-128969890D01*
X138489890Y-129120213D01*
X138364949Y-129292182D01*
X138360484Y-129300946D01*
X138312509Y-129351742D01*
X138244688Y-129368536D01*
X138178553Y-129345998D01*
X138139516Y-129300946D01*
X138135050Y-129292182D01*
X138010109Y-129120213D01*
X137859786Y-128969890D01*
X137687820Y-128844951D01*
X137498414Y-128748444D01*
X137498413Y-128748443D01*
X137498412Y-128748443D01*
X137296243Y-128682754D01*
X137296241Y-128682753D01*
X137296240Y-128682753D01*
X137134957Y-128657208D01*
X137086287Y-128649500D01*
X136873713Y-128649500D01*
X136825042Y-128657208D01*
X136663760Y-128682753D01*
X136461585Y-128748444D01*
X136272179Y-128844951D01*
X136100213Y-128969890D01*
X135949890Y-129120213D01*
X135824949Y-129292182D01*
X135820484Y-129300946D01*
X135772509Y-129351742D01*
X135704688Y-129368536D01*
X135638553Y-129345998D01*
X135599516Y-129300946D01*
X135595050Y-129292182D01*
X135470109Y-129120213D01*
X135319786Y-128969890D01*
X135147820Y-128844951D01*
X134958414Y-128748444D01*
X134958413Y-128748443D01*
X134958412Y-128748443D01*
X134756243Y-128682754D01*
X134756241Y-128682753D01*
X134756240Y-128682753D01*
X134594957Y-128657208D01*
X134546287Y-128649500D01*
X134333713Y-128649500D01*
X134285042Y-128657208D01*
X134123760Y-128682753D01*
X133921585Y-128748444D01*
X133732179Y-128844951D01*
X133560213Y-128969890D01*
X133409890Y-129120213D01*
X133284949Y-129292182D01*
X133280484Y-129300946D01*
X133232509Y-129351742D01*
X133164688Y-129368536D01*
X133098553Y-129345998D01*
X133059516Y-129300946D01*
X133055050Y-129292182D01*
X132930109Y-129120213D01*
X132779786Y-128969890D01*
X132607820Y-128844951D01*
X132418414Y-128748444D01*
X132418413Y-128748443D01*
X132418412Y-128748443D01*
X132216243Y-128682754D01*
X132216241Y-128682753D01*
X132216240Y-128682753D01*
X132054957Y-128657208D01*
X132006287Y-128649500D01*
X131793713Y-128649500D01*
X131745042Y-128657208D01*
X131583760Y-128682753D01*
X131381585Y-128748444D01*
X131192179Y-128844951D01*
X131020213Y-128969890D01*
X130869890Y-129120213D01*
X130744949Y-129292182D01*
X130740484Y-129300946D01*
X130692509Y-129351742D01*
X130624688Y-129368536D01*
X130558553Y-129345998D01*
X130519516Y-129300946D01*
X130515050Y-129292182D01*
X130390109Y-129120213D01*
X130239786Y-128969890D01*
X130067820Y-128844951D01*
X129878414Y-128748444D01*
X129878413Y-128748443D01*
X129878412Y-128748443D01*
X129676243Y-128682754D01*
X129676241Y-128682753D01*
X129676240Y-128682753D01*
X129514957Y-128657208D01*
X129466287Y-128649500D01*
X129253713Y-128649500D01*
X129205042Y-128657208D01*
X129043760Y-128682753D01*
X128841585Y-128748444D01*
X128652179Y-128844951D01*
X128480213Y-128969890D01*
X128329890Y-129120213D01*
X128204949Y-129292182D01*
X128200484Y-129300946D01*
X128152509Y-129351742D01*
X128084688Y-129368536D01*
X128018553Y-129345998D01*
X127979516Y-129300946D01*
X127975050Y-129292182D01*
X127850109Y-129120213D01*
X127699786Y-128969890D01*
X127527820Y-128844951D01*
X127338414Y-128748444D01*
X127338413Y-128748443D01*
X127338412Y-128748443D01*
X127136243Y-128682754D01*
X127136241Y-128682753D01*
X127136240Y-128682753D01*
X126974957Y-128657208D01*
X126926287Y-128649500D01*
X126713713Y-128649500D01*
X126665042Y-128657208D01*
X126503760Y-128682753D01*
X126301585Y-128748444D01*
X126112179Y-128844951D01*
X125940213Y-128969890D01*
X125789890Y-129120213D01*
X125664949Y-129292182D01*
X125660484Y-129300946D01*
X125612509Y-129351742D01*
X125544688Y-129368536D01*
X125478553Y-129345998D01*
X125439516Y-129300946D01*
X125435050Y-129292182D01*
X125310109Y-129120213D01*
X125159786Y-128969890D01*
X124987820Y-128844951D01*
X124798414Y-128748444D01*
X124798413Y-128748443D01*
X124798412Y-128748443D01*
X124596243Y-128682754D01*
X124596241Y-128682753D01*
X124596240Y-128682753D01*
X124434957Y-128657208D01*
X124386287Y-128649500D01*
X124173713Y-128649500D01*
X124125042Y-128657208D01*
X123963760Y-128682753D01*
X123761585Y-128748444D01*
X123572179Y-128844951D01*
X123400213Y-128969890D01*
X123249890Y-129120213D01*
X123124949Y-129292182D01*
X123120484Y-129300946D01*
X123072509Y-129351742D01*
X123004688Y-129368536D01*
X122938553Y-129345998D01*
X122899516Y-129300946D01*
X122895050Y-129292182D01*
X122770109Y-129120213D01*
X122619786Y-128969890D01*
X122447820Y-128844951D01*
X122258414Y-128748444D01*
X122258413Y-128748443D01*
X122258412Y-128748443D01*
X122056243Y-128682754D01*
X122056241Y-128682753D01*
X122056240Y-128682753D01*
X121894957Y-128657208D01*
X121846287Y-128649500D01*
X121633713Y-128649500D01*
X121585042Y-128657208D01*
X121423760Y-128682753D01*
X121221585Y-128748444D01*
X121032179Y-128844951D01*
X120860213Y-128969890D01*
X120709890Y-129120213D01*
X120584949Y-129292182D01*
X120580484Y-129300946D01*
X120532509Y-129351742D01*
X120464688Y-129368536D01*
X120398553Y-129345998D01*
X120359516Y-129300946D01*
X120355050Y-129292182D01*
X120230109Y-129120213D01*
X120079786Y-128969890D01*
X119907820Y-128844951D01*
X119718414Y-128748444D01*
X119718413Y-128748443D01*
X119718412Y-128748443D01*
X119516243Y-128682754D01*
X119516241Y-128682753D01*
X119516240Y-128682753D01*
X119354957Y-128657208D01*
X119306287Y-128649500D01*
X119093713Y-128649500D01*
X119045042Y-128657208D01*
X118883760Y-128682753D01*
X118681585Y-128748444D01*
X118492179Y-128844951D01*
X118320213Y-128969890D01*
X118169890Y-129120213D01*
X118044949Y-129292182D01*
X118040484Y-129300946D01*
X117992509Y-129351742D01*
X117924688Y-129368536D01*
X117858553Y-129345998D01*
X117819516Y-129300946D01*
X117815050Y-129292182D01*
X117690109Y-129120213D01*
X117539786Y-128969890D01*
X117367820Y-128844951D01*
X117178414Y-128748444D01*
X117178413Y-128748443D01*
X117178412Y-128748443D01*
X116976243Y-128682754D01*
X116976241Y-128682753D01*
X116976240Y-128682753D01*
X116814957Y-128657208D01*
X116766287Y-128649500D01*
X116553713Y-128649500D01*
X116505042Y-128657208D01*
X116343760Y-128682753D01*
X116141585Y-128748444D01*
X115952179Y-128844951D01*
X115780213Y-128969890D01*
X115629890Y-129120213D01*
X115504949Y-129292182D01*
X115500484Y-129300946D01*
X115452509Y-129351742D01*
X115384688Y-129368536D01*
X115318553Y-129345998D01*
X115279516Y-129300946D01*
X115275050Y-129292182D01*
X115150109Y-129120213D01*
X114999786Y-128969890D01*
X114827820Y-128844951D01*
X114638414Y-128748444D01*
X114638413Y-128748443D01*
X114638412Y-128748443D01*
X114436243Y-128682754D01*
X114436241Y-128682753D01*
X114436240Y-128682753D01*
X114274957Y-128657208D01*
X114226287Y-128649500D01*
X114013713Y-128649500D01*
X113965042Y-128657208D01*
X113803760Y-128682753D01*
X113601585Y-128748444D01*
X113412179Y-128844951D01*
X113240213Y-128969890D01*
X113089890Y-129120213D01*
X112964949Y-129292182D01*
X112960484Y-129300946D01*
X112912509Y-129351742D01*
X112844688Y-129368536D01*
X112778553Y-129345998D01*
X112739516Y-129300946D01*
X112735050Y-129292182D01*
X112610109Y-129120213D01*
X112459786Y-128969890D01*
X112287820Y-128844951D01*
X112098414Y-128748444D01*
X112098413Y-128748443D01*
X112098412Y-128748443D01*
X111896243Y-128682754D01*
X111896241Y-128682753D01*
X111896240Y-128682753D01*
X111734957Y-128657208D01*
X111686287Y-128649500D01*
X111473713Y-128649500D01*
X111425042Y-128657208D01*
X111263760Y-128682753D01*
X111061585Y-128748444D01*
X110872179Y-128844951D01*
X110700213Y-128969890D01*
X110549890Y-129120213D01*
X110424949Y-129292182D01*
X110420484Y-129300946D01*
X110372509Y-129351742D01*
X110304688Y-129368536D01*
X110238553Y-129345998D01*
X110199516Y-129300946D01*
X110195050Y-129292182D01*
X110070109Y-129120213D01*
X109919786Y-128969890D01*
X109747820Y-128844951D01*
X109558414Y-128748444D01*
X109558413Y-128748443D01*
X109558412Y-128748443D01*
X109356243Y-128682754D01*
X109356241Y-128682753D01*
X109356240Y-128682753D01*
X109194957Y-128657208D01*
X109146287Y-128649500D01*
X108933713Y-128649500D01*
X108885042Y-128657208D01*
X108723760Y-128682753D01*
X108521585Y-128748444D01*
X108332179Y-128844951D01*
X108160213Y-128969890D01*
X108009890Y-129120213D01*
X107884949Y-129292182D01*
X107880484Y-129300946D01*
X107832509Y-129351742D01*
X107764688Y-129368536D01*
X107698553Y-129345998D01*
X107659516Y-129300946D01*
X107655050Y-129292182D01*
X107530109Y-129120213D01*
X107379786Y-128969890D01*
X107207820Y-128844951D01*
X107018414Y-128748444D01*
X107018413Y-128748443D01*
X107018412Y-128748443D01*
X106816243Y-128682754D01*
X106816241Y-128682753D01*
X106816240Y-128682753D01*
X106654957Y-128657208D01*
X106606287Y-128649500D01*
X106393713Y-128649500D01*
X106345042Y-128657208D01*
X106183760Y-128682753D01*
X105981585Y-128748444D01*
X105792179Y-128844951D01*
X105620213Y-128969890D01*
X105469890Y-129120213D01*
X105344949Y-129292182D01*
X105340484Y-129300946D01*
X105292509Y-129351742D01*
X105224688Y-129368536D01*
X105158553Y-129345998D01*
X105119516Y-129300946D01*
X105115050Y-129292182D01*
X104990109Y-129120213D01*
X104839786Y-128969890D01*
X104667820Y-128844951D01*
X104478414Y-128748444D01*
X104478413Y-128748443D01*
X104478412Y-128748443D01*
X104276243Y-128682754D01*
X104276241Y-128682753D01*
X104276240Y-128682753D01*
X104114957Y-128657208D01*
X104066287Y-128649500D01*
X103853713Y-128649500D01*
X103805042Y-128657208D01*
X103643760Y-128682753D01*
X103441585Y-128748444D01*
X103252179Y-128844951D01*
X103080213Y-128969890D01*
X102929890Y-129120213D01*
X102804949Y-129292182D01*
X102800484Y-129300946D01*
X102752509Y-129351742D01*
X102684688Y-129368536D01*
X102618553Y-129345998D01*
X102579516Y-129300946D01*
X102575050Y-129292182D01*
X102450109Y-129120213D01*
X102299786Y-128969890D01*
X102127820Y-128844951D01*
X101938414Y-128748444D01*
X101938413Y-128748443D01*
X101938412Y-128748443D01*
X101736243Y-128682754D01*
X101736241Y-128682753D01*
X101736240Y-128682753D01*
X101574957Y-128657208D01*
X101526287Y-128649500D01*
X101313713Y-128649500D01*
X101265042Y-128657208D01*
X101103760Y-128682753D01*
X100901585Y-128748444D01*
X100712179Y-128844951D01*
X100540213Y-128969890D01*
X100389890Y-129120213D01*
X100264949Y-129292182D01*
X100260484Y-129300946D01*
X100212509Y-129351742D01*
X100144688Y-129368536D01*
X100078553Y-129345998D01*
X100039516Y-129300946D01*
X100035050Y-129292182D01*
X99910109Y-129120213D01*
X99759786Y-128969890D01*
X99587820Y-128844951D01*
X99398414Y-128748444D01*
X99398413Y-128748443D01*
X99398412Y-128748443D01*
X99196243Y-128682754D01*
X99196241Y-128682753D01*
X99196240Y-128682753D01*
X99034957Y-128657208D01*
X98986287Y-128649500D01*
X98773713Y-128649500D01*
X98725042Y-128657208D01*
X98563760Y-128682753D01*
X98361585Y-128748444D01*
X98172179Y-128844951D01*
X98000213Y-128969890D01*
X97849890Y-129120213D01*
X97724949Y-129292182D01*
X97720484Y-129300946D01*
X97672509Y-129351742D01*
X97604688Y-129368536D01*
X97538553Y-129345998D01*
X97499516Y-129300946D01*
X97495050Y-129292182D01*
X97370109Y-129120213D01*
X97219786Y-128969890D01*
X97047820Y-128844951D01*
X96858414Y-128748444D01*
X96858413Y-128748443D01*
X96858412Y-128748443D01*
X96656243Y-128682754D01*
X96656241Y-128682753D01*
X96656240Y-128682753D01*
X96494957Y-128657208D01*
X96446287Y-128649500D01*
X96233713Y-128649500D01*
X96185042Y-128657208D01*
X96023760Y-128682753D01*
X95821585Y-128748444D01*
X95632179Y-128844951D01*
X95460213Y-128969890D01*
X95309890Y-129120213D01*
X95184951Y-129292179D01*
X95088444Y-129481585D01*
X95022753Y-129683760D01*
X94989500Y-129893713D01*
X70784765Y-129893713D01*
X70693233Y-119642129D01*
X73386908Y-119642129D01*
X73386908Y-120157870D01*
X73427371Y-120672004D01*
X73427371Y-120672005D01*
X73508048Y-121181381D01*
X73628441Y-121682851D01*
X73628444Y-121682863D01*
X73628448Y-121682874D01*
X73787810Y-122173345D01*
X73909346Y-122466757D01*
X73985174Y-122649822D01*
X74103964Y-122882961D01*
X74219317Y-123109354D01*
X74219320Y-123109359D01*
X74488771Y-123549062D01*
X74488779Y-123549073D01*
X74700632Y-123840665D01*
X74791916Y-123966306D01*
X75126855Y-124358469D01*
X75491531Y-124723145D01*
X75883694Y-125058084D01*
X76300928Y-125361222D01*
X76300932Y-125361224D01*
X76300937Y-125361228D01*
X76740640Y-125630679D01*
X76740645Y-125630682D01*
X76740650Y-125630684D01*
X76740659Y-125630690D01*
X77200178Y-125864826D01*
X77676649Y-126062187D01*
X77676654Y-126062189D01*
X77801368Y-126102710D01*
X78167137Y-126221556D01*
X78668616Y-126341951D01*
X79177996Y-126422629D01*
X79692135Y-126463092D01*
X79692143Y-126463092D01*
X80207857Y-126463092D01*
X80207865Y-126463092D01*
X80722004Y-126422629D01*
X81231384Y-126341951D01*
X81732863Y-126221556D01*
X82223351Y-126062187D01*
X82699822Y-125864826D01*
X83159341Y-125630690D01*
X83599072Y-125361222D01*
X84016306Y-125058084D01*
X84123856Y-124966228D01*
X144049500Y-124966228D01*
X144049500Y-125133771D01*
X144082182Y-125298074D01*
X144082184Y-125298082D01*
X144146295Y-125452860D01*
X144239373Y-125592162D01*
X144357837Y-125710626D01*
X144432668Y-125760626D01*
X144497137Y-125803703D01*
X144651918Y-125867816D01*
X144816228Y-125900499D01*
X144816232Y-125900500D01*
X144816233Y-125900500D01*
X144983768Y-125900500D01*
X144983769Y-125900499D01*
X145148082Y-125867816D01*
X145287808Y-125809938D01*
X145335261Y-125800500D01*
X150679898Y-125800500D01*
X150746937Y-125820185D01*
X150748789Y-125821398D01*
X150797137Y-125853703D01*
X150951918Y-125917816D01*
X151116228Y-125950499D01*
X151116232Y-125950500D01*
X151116233Y-125950500D01*
X151283768Y-125950500D01*
X151283769Y-125950499D01*
X151448082Y-125917816D01*
X151602863Y-125853703D01*
X151742162Y-125760626D01*
X151860626Y-125642162D01*
X151953703Y-125502863D01*
X152017816Y-125348082D01*
X152050500Y-125183767D01*
X152050500Y-125016233D01*
X152017816Y-124851918D01*
X151953703Y-124697137D01*
X151920294Y-124647137D01*
X151860626Y-124557837D01*
X151742162Y-124439373D01*
X151602860Y-124346295D01*
X151448082Y-124282184D01*
X151448074Y-124282182D01*
X151283771Y-124249500D01*
X151283767Y-124249500D01*
X151116233Y-124249500D01*
X151116228Y-124249500D01*
X150951925Y-124282182D01*
X150951917Y-124282184D01*
X150939429Y-124287356D01*
X150932900Y-124290061D01*
X150885449Y-124299500D01*
X145335261Y-124299500D01*
X145287808Y-124290061D01*
X145268791Y-124282184D01*
X145148082Y-124232184D01*
X145148074Y-124232182D01*
X144983771Y-124199500D01*
X144983767Y-124199500D01*
X144816233Y-124199500D01*
X144816228Y-124199500D01*
X144651925Y-124232182D01*
X144651917Y-124232184D01*
X144497139Y-124296295D01*
X144357837Y-124389373D01*
X144239373Y-124507837D01*
X144146295Y-124647139D01*
X144082184Y-124801917D01*
X144082182Y-124801925D01*
X144049500Y-124966228D01*
X84123856Y-124966228D01*
X84408469Y-124723145D01*
X84773145Y-124358469D01*
X85108084Y-123966306D01*
X85411222Y-123549072D01*
X85680690Y-123109341D01*
X85914826Y-122649822D01*
X86112187Y-122173351D01*
X86271556Y-121682863D01*
X86391951Y-121181384D01*
X86413750Y-121043753D01*
X117250000Y-121043753D01*
X117250000Y-121256246D01*
X117283242Y-121466127D01*
X117283242Y-121466130D01*
X117348904Y-121668217D01*
X117445375Y-121857550D01*
X117484728Y-121911716D01*
X118117037Y-121279408D01*
X118134075Y-121342993D01*
X118199901Y-121457007D01*
X118292993Y-121550099D01*
X118407007Y-121615925D01*
X118470590Y-121632962D01*
X117838282Y-122265269D01*
X117838282Y-122265270D01*
X117892449Y-122304624D01*
X118081782Y-122401095D01*
X118283870Y-122466757D01*
X118493754Y-122500000D01*
X118706246Y-122500000D01*
X118916127Y-122466757D01*
X118916130Y-122466757D01*
X119118217Y-122401095D01*
X119307554Y-122304622D01*
X119361716Y-122265270D01*
X119361717Y-122265270D01*
X118729408Y-121632962D01*
X118792993Y-121615925D01*
X118907007Y-121550099D01*
X119000099Y-121457007D01*
X119065925Y-121342993D01*
X119082962Y-121279408D01*
X119715270Y-121911717D01*
X119715270Y-121911716D01*
X119754622Y-121857555D01*
X119759232Y-121848507D01*
X119807205Y-121797709D01*
X119875025Y-121780912D01*
X119941161Y-121803447D01*
X119980204Y-121848504D01*
X119984949Y-121857817D01*
X120109890Y-122029786D01*
X120260213Y-122180109D01*
X120432179Y-122305048D01*
X120432181Y-122305049D01*
X120432184Y-122305051D01*
X120621588Y-122401557D01*
X120823757Y-122467246D01*
X121033713Y-122500500D01*
X121033714Y-122500500D01*
X121246286Y-122500500D01*
X121246287Y-122500500D01*
X121456243Y-122467246D01*
X121658412Y-122401557D01*
X121847816Y-122305051D01*
X122019792Y-122180104D01*
X122133329Y-122066566D01*
X122194648Y-122033084D01*
X122264340Y-122038068D01*
X122320274Y-122079939D01*
X122337189Y-122110917D01*
X122386202Y-122242328D01*
X122386206Y-122242335D01*
X122472452Y-122357544D01*
X122472455Y-122357547D01*
X122587664Y-122443793D01*
X122587671Y-122443797D01*
X122722517Y-122494091D01*
X122722516Y-122494091D01*
X122729444Y-122494835D01*
X122782127Y-122500500D01*
X124577872Y-122500499D01*
X124637483Y-122494091D01*
X124772331Y-122443796D01*
X124887546Y-122357546D01*
X124973796Y-122242331D01*
X125024091Y-122107483D01*
X125030500Y-122047873D01*
X125030499Y-120252128D01*
X125024091Y-120192517D01*
X125022810Y-120189083D01*
X124973797Y-120057671D01*
X124973793Y-120057664D01*
X124887547Y-119942455D01*
X124887544Y-119942452D01*
X124772335Y-119856206D01*
X124772328Y-119856202D01*
X124637482Y-119805908D01*
X124637483Y-119805908D01*
X124577883Y-119799501D01*
X124577881Y-119799500D01*
X124577873Y-119799500D01*
X124577864Y-119799500D01*
X122782129Y-119799500D01*
X122782123Y-119799501D01*
X122722516Y-119805908D01*
X122587671Y-119856202D01*
X122587664Y-119856206D01*
X122472455Y-119942452D01*
X122472452Y-119942455D01*
X122386206Y-120057664D01*
X122386203Y-120057669D01*
X122337189Y-120189083D01*
X122295317Y-120245016D01*
X122229853Y-120269433D01*
X122161580Y-120254581D01*
X122133326Y-120233430D01*
X122019786Y-120119890D01*
X121847820Y-119994951D01*
X121658414Y-119898444D01*
X121658413Y-119898443D01*
X121658412Y-119898443D01*
X121456243Y-119832754D01*
X121456241Y-119832753D01*
X121456240Y-119832753D01*
X121294957Y-119807208D01*
X121246287Y-119799500D01*
X121033713Y-119799500D01*
X120985042Y-119807208D01*
X120823760Y-119832753D01*
X120621585Y-119898444D01*
X120432179Y-119994951D01*
X120260213Y-120119890D01*
X120109890Y-120270213D01*
X119984949Y-120442182D01*
X119980202Y-120451499D01*
X119932227Y-120502293D01*
X119864405Y-120519087D01*
X119798271Y-120496548D01*
X119759234Y-120451495D01*
X119754626Y-120442452D01*
X119715270Y-120388282D01*
X119715269Y-120388282D01*
X119082962Y-121020590D01*
X119065925Y-120957007D01*
X119000099Y-120842993D01*
X118907007Y-120749901D01*
X118792993Y-120684075D01*
X118729409Y-120667037D01*
X119361716Y-120034728D01*
X119307550Y-119995375D01*
X119118217Y-119898904D01*
X118916129Y-119833242D01*
X118706246Y-119800000D01*
X118493754Y-119800000D01*
X118283872Y-119833242D01*
X118283869Y-119833242D01*
X118081782Y-119898904D01*
X117892439Y-119995380D01*
X117838282Y-120034727D01*
X117838282Y-120034728D01*
X118470591Y-120667037D01*
X118407007Y-120684075D01*
X118292993Y-120749901D01*
X118199901Y-120842993D01*
X118134075Y-120957007D01*
X118117037Y-121020591D01*
X117484728Y-120388282D01*
X117484727Y-120388282D01*
X117445380Y-120442439D01*
X117348904Y-120631782D01*
X117283242Y-120833869D01*
X117283242Y-120833872D01*
X117250000Y-121043753D01*
X86413750Y-121043753D01*
X86472629Y-120672004D01*
X86513092Y-120157865D01*
X86513092Y-119642135D01*
X86472629Y-119127996D01*
X86391951Y-118618616D01*
X86271556Y-118117137D01*
X86120024Y-117650769D01*
X86112189Y-117626654D01*
X86112187Y-117626649D01*
X85914826Y-117150178D01*
X85680690Y-116690659D01*
X85680684Y-116690650D01*
X85680682Y-116690645D01*
X85680679Y-116690640D01*
X85411228Y-116250937D01*
X85411224Y-116250932D01*
X85411222Y-116250928D01*
X85108084Y-115833694D01*
X84773145Y-115441531D01*
X84408469Y-115076855D01*
X84354139Y-115030453D01*
X84016312Y-114741921D01*
X84016298Y-114741910D01*
X83786144Y-114574694D01*
X83599072Y-114438778D01*
X83599069Y-114438776D01*
X83599062Y-114438771D01*
X83159359Y-114169320D01*
X83159354Y-114169317D01*
X83159344Y-114169312D01*
X83159341Y-114169310D01*
X82699822Y-113935174D01*
X82547166Y-113871941D01*
X82223345Y-113737810D01*
X81874359Y-113624419D01*
X81732863Y-113578444D01*
X81732851Y-113578441D01*
X81231381Y-113458048D01*
X80722004Y-113377371D01*
X80207870Y-113336908D01*
X80207865Y-113336908D01*
X79692135Y-113336908D01*
X79692129Y-113336908D01*
X79177995Y-113377371D01*
X79177994Y-113377371D01*
X78668618Y-113458048D01*
X78167148Y-113578441D01*
X78167142Y-113578442D01*
X78167137Y-113578444D01*
X78167125Y-113578448D01*
X77676654Y-113737810D01*
X77200180Y-113935173D01*
X76740645Y-114169317D01*
X76740640Y-114169320D01*
X76300937Y-114438771D01*
X76300926Y-114438779D01*
X75883701Y-114741910D01*
X75883687Y-114741921D01*
X75491537Y-115076849D01*
X75491523Y-115076862D01*
X75126862Y-115441523D01*
X75126849Y-115441537D01*
X74791921Y-115833687D01*
X74791910Y-115833701D01*
X74488779Y-116250926D01*
X74488771Y-116250937D01*
X74219320Y-116690640D01*
X74219317Y-116690645D01*
X73985173Y-117150180D01*
X73787810Y-117626654D01*
X73628448Y-118117125D01*
X73628441Y-118117148D01*
X73508048Y-118618618D01*
X73427371Y-119127994D01*
X73427371Y-119127995D01*
X73386908Y-119642129D01*
X70693233Y-119642129D01*
X70578591Y-106802155D01*
X101460000Y-106802155D01*
X101460000Y-107450000D01*
X102376988Y-107450000D01*
X102344075Y-107507007D01*
X102310000Y-107634174D01*
X102310000Y-107765826D01*
X102344075Y-107892993D01*
X102376988Y-107950000D01*
X101460000Y-107950000D01*
X101460000Y-108597844D01*
X101466401Y-108657372D01*
X101466403Y-108657379D01*
X101516645Y-108792086D01*
X101516649Y-108792093D01*
X101602809Y-108907187D01*
X101602812Y-108907190D01*
X101717906Y-108993350D01*
X101717913Y-108993354D01*
X101852620Y-109043596D01*
X101852627Y-109043598D01*
X101912155Y-109049999D01*
X101912172Y-109050000D01*
X102560000Y-109050000D01*
X102560000Y-108133012D01*
X102617007Y-108165925D01*
X102744174Y-108200000D01*
X102875826Y-108200000D01*
X103002993Y-108165925D01*
X103060000Y-108133012D01*
X103060000Y-109050000D01*
X103707828Y-109050000D01*
X103707844Y-109049999D01*
X103767372Y-109043598D01*
X103767379Y-109043596D01*
X103902086Y-108993354D01*
X103902093Y-108993350D01*
X104017187Y-108907190D01*
X104017190Y-108907187D01*
X104103350Y-108792093D01*
X104103354Y-108792086D01*
X104152422Y-108660529D01*
X104194293Y-108604595D01*
X104259757Y-108580178D01*
X104328030Y-108595030D01*
X104356285Y-108616181D01*
X104470213Y-108730109D01*
X104642179Y-108855048D01*
X104642181Y-108855049D01*
X104642184Y-108855051D01*
X104831588Y-108951557D01*
X105033757Y-109017246D01*
X105243713Y-109050500D01*
X105243714Y-109050500D01*
X105456286Y-109050500D01*
X105456287Y-109050500D01*
X105666243Y-109017246D01*
X105868412Y-108951557D01*
X106057816Y-108855051D01*
X106144471Y-108792093D01*
X106229786Y-108730109D01*
X106229788Y-108730106D01*
X106229792Y-108730104D01*
X106380104Y-108579792D01*
X106380106Y-108579788D01*
X106380109Y-108579786D01*
X106505048Y-108407820D01*
X106505047Y-108407820D01*
X106505051Y-108407816D01*
X106509514Y-108399054D01*
X106557488Y-108348259D01*
X106625308Y-108331463D01*
X106691444Y-108353999D01*
X106730486Y-108399056D01*
X106734951Y-108407820D01*
X106859890Y-108579786D01*
X107010213Y-108730109D01*
X107182179Y-108855048D01*
X107182181Y-108855049D01*
X107182184Y-108855051D01*
X107371588Y-108951557D01*
X107573757Y-109017246D01*
X107783713Y-109050500D01*
X107783714Y-109050500D01*
X107996286Y-109050500D01*
X107996287Y-109050500D01*
X108206243Y-109017246D01*
X108408412Y-108951557D01*
X108597816Y-108855051D01*
X108684471Y-108792093D01*
X108769786Y-108730109D01*
X108769788Y-108730106D01*
X108769792Y-108730104D01*
X108920104Y-108579792D01*
X108920106Y-108579788D01*
X108920109Y-108579786D01*
X109045048Y-108407820D01*
X109045047Y-108407820D01*
X109045051Y-108407816D01*
X109141557Y-108218412D01*
X109207246Y-108016243D01*
X109240500Y-107806287D01*
X109240500Y-107743713D01*
X128759500Y-107743713D01*
X128759500Y-107956286D01*
X128792703Y-108165925D01*
X128792754Y-108166243D01*
X128853615Y-108353554D01*
X128858444Y-108368414D01*
X128954951Y-108557820D01*
X129079890Y-108729786D01*
X129230213Y-108880109D01*
X129402179Y-109005048D01*
X129402181Y-109005049D01*
X129402184Y-109005051D01*
X129591588Y-109101557D01*
X129793757Y-109167246D01*
X130003713Y-109200500D01*
X130003714Y-109200500D01*
X130216286Y-109200500D01*
X130216287Y-109200500D01*
X130426243Y-109167246D01*
X130628412Y-109101557D01*
X130817816Y-109005051D01*
X130965347Y-108897864D01*
X130989784Y-108880110D01*
X130989784Y-108880109D01*
X130989792Y-108880104D01*
X131103329Y-108766566D01*
X131164648Y-108733084D01*
X131234340Y-108738068D01*
X131290274Y-108779939D01*
X131307189Y-108810917D01*
X131356202Y-108942328D01*
X131356206Y-108942335D01*
X131442452Y-109057544D01*
X131442455Y-109057547D01*
X131557664Y-109143793D01*
X131557671Y-109143797D01*
X131692517Y-109194091D01*
X131692516Y-109194091D01*
X131699444Y-109194835D01*
X131752127Y-109200500D01*
X133547872Y-109200499D01*
X133607483Y-109194091D01*
X133742331Y-109143796D01*
X133857546Y-109057546D01*
X133943796Y-108942331D01*
X133994091Y-108807483D01*
X134000500Y-108747873D01*
X134000499Y-107893753D01*
X152210000Y-107893753D01*
X152210000Y-108106246D01*
X152243242Y-108316127D01*
X152243242Y-108316130D01*
X152308904Y-108518217D01*
X152405375Y-108707550D01*
X152444728Y-108761716D01*
X153077037Y-108129408D01*
X153094075Y-108192993D01*
X153159901Y-108307007D01*
X153252993Y-108400099D01*
X153367007Y-108465925D01*
X153430590Y-108482962D01*
X152798282Y-109115269D01*
X152798282Y-109115270D01*
X152852449Y-109154624D01*
X153041782Y-109251095D01*
X153243870Y-109316757D01*
X153453754Y-109350000D01*
X153666246Y-109350000D01*
X153876127Y-109316757D01*
X153876130Y-109316757D01*
X154078217Y-109251095D01*
X154267554Y-109154622D01*
X154321716Y-109115270D01*
X154321717Y-109115270D01*
X153689408Y-108482962D01*
X153752993Y-108465925D01*
X153867007Y-108400099D01*
X153960099Y-108307007D01*
X154025925Y-108192993D01*
X154042962Y-108129409D01*
X154713181Y-108799628D01*
X154746666Y-108860951D01*
X154749500Y-108887300D01*
X154749500Y-108897865D01*
X154749501Y-108897876D01*
X154755908Y-108957483D01*
X154806202Y-109092328D01*
X154806206Y-109092335D01*
X154892452Y-109207544D01*
X154892455Y-109207547D01*
X155007664Y-109293793D01*
X155007671Y-109293797D01*
X155142517Y-109344091D01*
X155142516Y-109344091D01*
X155149444Y-109344835D01*
X155202127Y-109350500D01*
X156997872Y-109350499D01*
X157057483Y-109344091D01*
X157192331Y-109293796D01*
X157307546Y-109207546D01*
X157393796Y-109092331D01*
X157444091Y-108957483D01*
X157450500Y-108897873D01*
X157450499Y-107102128D01*
X157444091Y-107042517D01*
X157425317Y-106992182D01*
X157393797Y-106907671D01*
X157393793Y-106907664D01*
X157307547Y-106792455D01*
X157307544Y-106792452D01*
X157192335Y-106706206D01*
X157192328Y-106706202D01*
X157057482Y-106655908D01*
X157057483Y-106655908D01*
X156997883Y-106649501D01*
X156997881Y-106649500D01*
X156997873Y-106649500D01*
X156997864Y-106649500D01*
X155202129Y-106649500D01*
X155202123Y-106649501D01*
X155142516Y-106655908D01*
X155007671Y-106706202D01*
X155007664Y-106706206D01*
X154892455Y-106792452D01*
X154892452Y-106792455D01*
X154806206Y-106907664D01*
X154806202Y-106907671D01*
X154755908Y-107042517D01*
X154749501Y-107102116D01*
X154749501Y-107102123D01*
X154749500Y-107102135D01*
X154749500Y-107112690D01*
X154729815Y-107179729D01*
X154713181Y-107200371D01*
X154042962Y-107870590D01*
X154025925Y-107807007D01*
X153960099Y-107692993D01*
X153867007Y-107599901D01*
X153752993Y-107534075D01*
X153689409Y-107517037D01*
X154321716Y-106884728D01*
X154267550Y-106845375D01*
X154078217Y-106748904D01*
X153876129Y-106683242D01*
X153666246Y-106650000D01*
X153453754Y-106650000D01*
X153243872Y-106683242D01*
X153243869Y-106683242D01*
X153041782Y-106748904D01*
X152852439Y-106845380D01*
X152798282Y-106884727D01*
X152798282Y-106884728D01*
X153430591Y-107517037D01*
X153367007Y-107534075D01*
X153252993Y-107599901D01*
X153159901Y-107692993D01*
X153094075Y-107807007D01*
X153077037Y-107870591D01*
X152444728Y-107238282D01*
X152444727Y-107238282D01*
X152405380Y-107292439D01*
X152308904Y-107481782D01*
X152243242Y-107683869D01*
X152243242Y-107683872D01*
X152210000Y-107893753D01*
X134000499Y-107893753D01*
X134000499Y-107807007D01*
X134000499Y-106952129D01*
X134000498Y-106952115D01*
X133999759Y-106945237D01*
X133995720Y-106907671D01*
X133994091Y-106892517D01*
X133943796Y-106757669D01*
X133943795Y-106757668D01*
X133943793Y-106757664D01*
X133857547Y-106642455D01*
X133857544Y-106642452D01*
X133742335Y-106556206D01*
X133742328Y-106556202D01*
X133607482Y-106505908D01*
X133607483Y-106505908D01*
X133547883Y-106499501D01*
X133547881Y-106499500D01*
X133547873Y-106499500D01*
X133547864Y-106499500D01*
X131752129Y-106499500D01*
X131752123Y-106499501D01*
X131692516Y-106505908D01*
X131557671Y-106556202D01*
X131557664Y-106556206D01*
X131442455Y-106642452D01*
X131442452Y-106642455D01*
X131356206Y-106757664D01*
X131356203Y-106757669D01*
X131307189Y-106889083D01*
X131265317Y-106945016D01*
X131199853Y-106969433D01*
X131131580Y-106954581D01*
X131103326Y-106933430D01*
X130989786Y-106819890D01*
X130817820Y-106694951D01*
X130628414Y-106598444D01*
X130628413Y-106598443D01*
X130628412Y-106598443D01*
X130426243Y-106532754D01*
X130426241Y-106532753D01*
X130426240Y-106532753D01*
X130264957Y-106507208D01*
X130216287Y-106499500D01*
X130003713Y-106499500D01*
X129955042Y-106507208D01*
X129793760Y-106532753D01*
X129591585Y-106598444D01*
X129402179Y-106694951D01*
X129230213Y-106819890D01*
X129079890Y-106970213D01*
X128954951Y-107142179D01*
X128858444Y-107331585D01*
X128792753Y-107533760D01*
X128759500Y-107743713D01*
X109240500Y-107743713D01*
X109240500Y-107593713D01*
X109207246Y-107383757D01*
X109141557Y-107181588D01*
X109045051Y-106992184D01*
X109045049Y-106992181D01*
X109045048Y-106992179D01*
X108920109Y-106820213D01*
X108769786Y-106669890D01*
X108597820Y-106544951D01*
X108408414Y-106448444D01*
X108408413Y-106448443D01*
X108408412Y-106448443D01*
X108206243Y-106382754D01*
X108206241Y-106382753D01*
X108206240Y-106382753D01*
X108044957Y-106357208D01*
X107996287Y-106349500D01*
X107783713Y-106349500D01*
X107735042Y-106357208D01*
X107573760Y-106382753D01*
X107371585Y-106448444D01*
X107182179Y-106544951D01*
X107010213Y-106669890D01*
X106859890Y-106820213D01*
X106734949Y-106992182D01*
X106730484Y-107000946D01*
X106682509Y-107051742D01*
X106614688Y-107068536D01*
X106548553Y-107045998D01*
X106509516Y-107000946D01*
X106505050Y-106992182D01*
X106380109Y-106820213D01*
X106229786Y-106669890D01*
X106057820Y-106544951D01*
X105868414Y-106448444D01*
X105868413Y-106448443D01*
X105868412Y-106448443D01*
X105666243Y-106382754D01*
X105666241Y-106382753D01*
X105666240Y-106382753D01*
X105504957Y-106357208D01*
X105456287Y-106349500D01*
X105243713Y-106349500D01*
X105195042Y-106357208D01*
X105033760Y-106382753D01*
X104831585Y-106448444D01*
X104642179Y-106544951D01*
X104470215Y-106669889D01*
X104356285Y-106783819D01*
X104294962Y-106817303D01*
X104225270Y-106812319D01*
X104169337Y-106770447D01*
X104152422Y-106739470D01*
X104103354Y-106607913D01*
X104103350Y-106607906D01*
X104017190Y-106492812D01*
X104017187Y-106492809D01*
X103902093Y-106406649D01*
X103902086Y-106406645D01*
X103767379Y-106356403D01*
X103767372Y-106356401D01*
X103707844Y-106350000D01*
X103060000Y-106350000D01*
X103060000Y-107266988D01*
X103002993Y-107234075D01*
X102875826Y-107200000D01*
X102744174Y-107200000D01*
X102617007Y-107234075D01*
X102560000Y-107266988D01*
X102560000Y-106350000D01*
X101912155Y-106350000D01*
X101852627Y-106356401D01*
X101852620Y-106356403D01*
X101717913Y-106406645D01*
X101717906Y-106406649D01*
X101602812Y-106492809D01*
X101602809Y-106492812D01*
X101516649Y-106607906D01*
X101516645Y-106607913D01*
X101466403Y-106742620D01*
X101466401Y-106742627D01*
X101460000Y-106802155D01*
X70578591Y-106802155D01*
X70549252Y-103516228D01*
X87899500Y-103516228D01*
X87899500Y-103683771D01*
X87932182Y-103848074D01*
X87932184Y-103848082D01*
X87996295Y-104002860D01*
X88089373Y-104142162D01*
X88207837Y-104260626D01*
X88282668Y-104310626D01*
X88347137Y-104353703D01*
X88501918Y-104417816D01*
X88666228Y-104450499D01*
X88666232Y-104450500D01*
X88666233Y-104450500D01*
X88833768Y-104450500D01*
X88833769Y-104450499D01*
X88998082Y-104417816D01*
X89017099Y-104409938D01*
X89064551Y-104400500D01*
X91964739Y-104400500D01*
X92012191Y-104409938D01*
X92151918Y-104467816D01*
X92316228Y-104500499D01*
X92316232Y-104500500D01*
X92316233Y-104500500D01*
X92483768Y-104500500D01*
X92483769Y-104500499D01*
X92648082Y-104467816D01*
X92802863Y-104403703D01*
X92942162Y-104310626D01*
X93060626Y-104192162D01*
X93153703Y-104052863D01*
X93217816Y-103898082D01*
X93250500Y-103733767D01*
X93250500Y-103566233D01*
X93217816Y-103401918D01*
X93153703Y-103247137D01*
X93120294Y-103197137D01*
X93060626Y-103107837D01*
X92942162Y-102989373D01*
X92802860Y-102896295D01*
X92648082Y-102832184D01*
X92648074Y-102832182D01*
X92483771Y-102799500D01*
X92483767Y-102799500D01*
X92316233Y-102799500D01*
X92316228Y-102799500D01*
X92151925Y-102832182D01*
X92151917Y-102832184D01*
X92012192Y-102890061D01*
X91964739Y-102899500D01*
X89270102Y-102899500D01*
X89203063Y-102879815D01*
X89201211Y-102878602D01*
X89152868Y-102846300D01*
X89152859Y-102846295D01*
X88998082Y-102782184D01*
X88998074Y-102782182D01*
X88833771Y-102749500D01*
X88833767Y-102749500D01*
X88666233Y-102749500D01*
X88666228Y-102749500D01*
X88501925Y-102782182D01*
X88501917Y-102782184D01*
X88347139Y-102846295D01*
X88207837Y-102939373D01*
X88089373Y-103057837D01*
X87996295Y-103197139D01*
X87932184Y-103351917D01*
X87932182Y-103351925D01*
X87899500Y-103516228D01*
X70549252Y-103516228D01*
X70488548Y-96717367D01*
X89129256Y-96717367D01*
X89129256Y-97182632D01*
X89165759Y-97646436D01*
X89165761Y-97646455D01*
X89193282Y-97820214D01*
X89238541Y-98105971D01*
X89347152Y-98558369D01*
X89347156Y-98558380D01*
X89490921Y-99000846D01*
X89542111Y-99124429D01*
X89668968Y-99430690D01*
X89880189Y-99845233D01*
X89880192Y-99845238D01*
X89880198Y-99845249D01*
X90059972Y-100138613D01*
X90123283Y-100241927D01*
X90285454Y-100465137D01*
X90396746Y-100618317D01*
X90396756Y-100618331D01*
X90665768Y-100933302D01*
X90698910Y-100972106D01*
X91027894Y-101301090D01*
X91041051Y-101312327D01*
X91381668Y-101603243D01*
X91381675Y-101603248D01*
X91758073Y-101876717D01*
X91977168Y-102010978D01*
X92154750Y-102119801D01*
X92154756Y-102119804D01*
X92154767Y-102119811D01*
X92569310Y-102331032D01*
X92999148Y-102509076D01*
X92999153Y-102509078D01*
X93111660Y-102545633D01*
X93441631Y-102652848D01*
X93894029Y-102761459D01*
X94353554Y-102834240D01*
X94817373Y-102870744D01*
X94817379Y-102870744D01*
X95282621Y-102870744D01*
X95282627Y-102870744D01*
X95746446Y-102834240D01*
X96205971Y-102761459D01*
X96658369Y-102652848D01*
X97100852Y-102509076D01*
X97530690Y-102331032D01*
X97945233Y-102119811D01*
X98341927Y-101876717D01*
X98718325Y-101603248D01*
X99072106Y-101301090D01*
X99401090Y-100972106D01*
X99703248Y-100618325D01*
X99976717Y-100241927D01*
X100219811Y-99845233D01*
X100431032Y-99430690D01*
X100609076Y-99000852D01*
X100752848Y-98558369D01*
X100861459Y-98105971D01*
X100934240Y-97646446D01*
X100970744Y-97182627D01*
X100970744Y-96717373D01*
X100934240Y-96253554D01*
X100861459Y-95794029D01*
X100752848Y-95341631D01*
X100609076Y-94899148D01*
X100505649Y-94649451D01*
X135497012Y-94649451D01*
X135497012Y-95150548D01*
X135536326Y-95650074D01*
X135536328Y-95650093D01*
X135563273Y-95820214D01*
X135614714Y-96145001D01*
X135731690Y-96632242D01*
X135759349Y-96717367D01*
X135886531Y-97108797D01*
X135961544Y-97289893D01*
X136078291Y-97571746D01*
X136281997Y-97971540D01*
X136305783Y-98018222D01*
X136305789Y-98018233D01*
X136567590Y-98445453D01*
X136567597Y-98445464D01*
X136862121Y-98850842D01*
X136862132Y-98850856D01*
X136994803Y-99006194D01*
X137187556Y-99231878D01*
X137541878Y-99586200D01*
X137922906Y-99911629D01*
X138328293Y-100206160D01*
X138564264Y-100350763D01*
X138755522Y-100467966D01*
X138755528Y-100467969D01*
X138755539Y-100467976D01*
X139202010Y-100695465D01*
X139664953Y-100887222D01*
X139664958Y-100887224D01*
X139786130Y-100926595D01*
X140141514Y-101042066D01*
X140628755Y-101159042D01*
X141123672Y-101237429D01*
X141623213Y-101276744D01*
X141623221Y-101276744D01*
X142124291Y-101276744D01*
X142124299Y-101276744D01*
X142623840Y-101237429D01*
X143118757Y-101159042D01*
X143605998Y-101042066D01*
X144082559Y-100887222D01*
X144545502Y-100695465D01*
X144991973Y-100467976D01*
X145419219Y-100206160D01*
X145824606Y-99911629D01*
X146205634Y-99586200D01*
X146559956Y-99231878D01*
X146885385Y-98850850D01*
X147179916Y-98445463D01*
X147441732Y-98018217D01*
X147669221Y-97571746D01*
X147860978Y-97108803D01*
X148015822Y-96632242D01*
X148132798Y-96145001D01*
X148211185Y-95650084D01*
X148250500Y-95150543D01*
X148250500Y-94649457D01*
X148211185Y-94149916D01*
X148132798Y-93654999D01*
X148015822Y-93167758D01*
X147885362Y-92766243D01*
X147860980Y-92691202D01*
X147822754Y-92598917D01*
X147669221Y-92228254D01*
X147441732Y-91781783D01*
X147440755Y-91780189D01*
X147311319Y-91568968D01*
X147179916Y-91354537D01*
X146885385Y-90949150D01*
X146559956Y-90568122D01*
X146205634Y-90213800D01*
X145824606Y-89888371D01*
X145419219Y-89593840D01*
X145360587Y-89557910D01*
X144991989Y-89332033D01*
X144991978Y-89332027D01*
X144991977Y-89332026D01*
X144991973Y-89332024D01*
X144545502Y-89104535D01*
X144397183Y-89043099D01*
X144082553Y-88912775D01*
X143743476Y-88802603D01*
X143605998Y-88757934D01*
X143118757Y-88640958D01*
X143118751Y-88640957D01*
X142623849Y-88562572D01*
X142623840Y-88562571D01*
X142623838Y-88562570D01*
X142623830Y-88562570D01*
X142124304Y-88523256D01*
X142124299Y-88523256D01*
X141623213Y-88523256D01*
X141623207Y-88523256D01*
X141123681Y-88562570D01*
X141123662Y-88562572D01*
X140628760Y-88640957D01*
X140628757Y-88640957D01*
X140628755Y-88640958D01*
X140454260Y-88682850D01*
X140141525Y-88757931D01*
X140141519Y-88757932D01*
X140141514Y-88757934D01*
X140141502Y-88757938D01*
X139664958Y-88912775D01*
X139202012Y-89104534D01*
X138755533Y-89332027D01*
X138755522Y-89332033D01*
X138328302Y-89593834D01*
X138328291Y-89593841D01*
X137922913Y-89888365D01*
X137922899Y-89888376D01*
X137541884Y-90213794D01*
X137541870Y-90213807D01*
X137187563Y-90568114D01*
X137187550Y-90568128D01*
X136862132Y-90949143D01*
X136862121Y-90949157D01*
X136567597Y-91354535D01*
X136567590Y-91354546D01*
X136305789Y-91781766D01*
X136305783Y-91781777D01*
X136078290Y-92228256D01*
X135886531Y-92691202D01*
X135731694Y-93167746D01*
X135731687Y-93167769D01*
X135614713Y-93655004D01*
X135536328Y-94149906D01*
X135536326Y-94149925D01*
X135497012Y-94649451D01*
X100505649Y-94649451D01*
X100431032Y-94469310D01*
X100219811Y-94054767D01*
X99976717Y-93658073D01*
X99703248Y-93281675D01*
X99703243Y-93281668D01*
X99401095Y-92927900D01*
X99401090Y-92927894D01*
X99072106Y-92598910D01*
X99058948Y-92587672D01*
X98718331Y-92296756D01*
X98718317Y-92296746D01*
X98341928Y-92023284D01*
X98341927Y-92023283D01*
X98287486Y-91989921D01*
X97945249Y-91780198D01*
X97945238Y-91780192D01*
X97945237Y-91780191D01*
X97945233Y-91780189D01*
X97530690Y-91568968D01*
X97392979Y-91511926D01*
X97100846Y-91390921D01*
X96786014Y-91288626D01*
X96658369Y-91247152D01*
X96205971Y-91138541D01*
X96205965Y-91138540D01*
X95746455Y-91065761D01*
X95746446Y-91065760D01*
X95746444Y-91065759D01*
X95746436Y-91065759D01*
X95282632Y-91029256D01*
X95282627Y-91029256D01*
X94817373Y-91029256D01*
X94817367Y-91029256D01*
X94353563Y-91065759D01*
X94353544Y-91065761D01*
X93894034Y-91138540D01*
X93894031Y-91138540D01*
X93894029Y-91138541D01*
X93732012Y-91177437D01*
X93441642Y-91247149D01*
X93441636Y-91247150D01*
X93441631Y-91247152D01*
X93441619Y-91247156D01*
X92999153Y-91390921D01*
X92569312Y-91568967D01*
X92154761Y-91780192D01*
X92154750Y-91780198D01*
X91758082Y-92023277D01*
X91758071Y-92023284D01*
X91381682Y-92296746D01*
X91381668Y-92296756D01*
X91027900Y-92598904D01*
X91027886Y-92598917D01*
X90698917Y-92927886D01*
X90698904Y-92927900D01*
X90396756Y-93281668D01*
X90396746Y-93281682D01*
X90123284Y-93658071D01*
X90123277Y-93658082D01*
X89880198Y-94054750D01*
X89880192Y-94054761D01*
X89668967Y-94469312D01*
X89490921Y-94899153D01*
X89356986Y-95311364D01*
X89348730Y-95336776D01*
X89347156Y-95341619D01*
X89347149Y-95341642D01*
X89283747Y-95605733D01*
X89242567Y-95777262D01*
X89238540Y-95794034D01*
X89165761Y-96253544D01*
X89165759Y-96253563D01*
X89129256Y-96717367D01*
X70488548Y-96717367D01*
X70336626Y-79702181D01*
X73123144Y-79702181D01*
X73123144Y-80197818D01*
X73158502Y-80692184D01*
X73229038Y-81182776D01*
X73334388Y-81667066D01*
X73334391Y-81667076D01*
X73371288Y-81792734D01*
X73474027Y-82142629D01*
X73570208Y-82400500D01*
X73647233Y-82607013D01*
X73853123Y-83057849D01*
X74090653Y-83492854D01*
X74090661Y-83492867D01*
X74358599Y-83909788D01*
X74358616Y-83909812D01*
X74655632Y-84306579D01*
X74655634Y-84306581D01*
X74980204Y-84681154D01*
X75330668Y-85031618D01*
X75642627Y-85301932D01*
X75705242Y-85356189D01*
X76102009Y-85653205D01*
X76102033Y-85653222D01*
X76518954Y-85921160D01*
X76518965Y-85921167D01*
X76953970Y-86158697D01*
X77404812Y-86364590D01*
X77869193Y-86537795D01*
X78344745Y-86677430D01*
X78344755Y-86677433D01*
X78829045Y-86782783D01*
X78829052Y-86782784D01*
X79319638Y-86853320D01*
X79814006Y-86888678D01*
X80309638Y-86888678D01*
X80804006Y-86853320D01*
X81294592Y-86782784D01*
X81294593Y-86782783D01*
X81294598Y-86782783D01*
X81778888Y-86677433D01*
X81778891Y-86677432D01*
X81778896Y-86677431D01*
X82254451Y-86537795D01*
X82718832Y-86364590D01*
X83169674Y-86158697D01*
X83604679Y-85921167D01*
X83743662Y-85831847D01*
X84021610Y-85653222D01*
X84021634Y-85653205D01*
X84122858Y-85577430D01*
X84418403Y-85356188D01*
X84792976Y-85031618D01*
X85143440Y-84681154D01*
X85468010Y-84306581D01*
X85765030Y-83909808D01*
X85765031Y-83909805D01*
X85765044Y-83909788D01*
X85943669Y-83631840D01*
X86032989Y-83492857D01*
X86270519Y-83057852D01*
X86476412Y-82607010D01*
X86649617Y-82142629D01*
X86789253Y-81667074D01*
X86789255Y-81667066D01*
X86894605Y-81182776D01*
X86911604Y-81064548D01*
X86965142Y-80692184D01*
X87000500Y-80197816D01*
X87000500Y-79702184D01*
X86965142Y-79207816D01*
X86894606Y-78717230D01*
X86894605Y-78717223D01*
X86789255Y-78232933D01*
X86789252Y-78232923D01*
X86649617Y-77757371D01*
X86476412Y-77292990D01*
X86270519Y-76842148D01*
X86032989Y-76407143D01*
X86024630Y-76394136D01*
X85765044Y-75990211D01*
X85765027Y-75990187D01*
X85468011Y-75593420D01*
X85413754Y-75530805D01*
X85143440Y-75218846D01*
X84792976Y-74868382D01*
X84543630Y-74652322D01*
X84418401Y-74543810D01*
X84021634Y-74246794D01*
X84021610Y-74246777D01*
X83604689Y-73978839D01*
X83604676Y-73978831D01*
X83169671Y-73741301D01*
X82718835Y-73535411D01*
X82576897Y-73482471D01*
X82254451Y-73362205D01*
X82254434Y-73362200D01*
X81778898Y-73222569D01*
X81778888Y-73222566D01*
X81294598Y-73117216D01*
X80804006Y-73046680D01*
X80309640Y-73011322D01*
X80309638Y-73011322D01*
X79814006Y-73011322D01*
X79814003Y-73011322D01*
X79319637Y-73046680D01*
X78829045Y-73117216D01*
X78344755Y-73222566D01*
X78344745Y-73222569D01*
X77869209Y-73362200D01*
X77869201Y-73362202D01*
X77869193Y-73362205D01*
X77869184Y-73362208D01*
X77869182Y-73362209D01*
X77404808Y-73535411D01*
X76953972Y-73741301D01*
X76518967Y-73978831D01*
X76518954Y-73978839D01*
X76102033Y-74246777D01*
X76102009Y-74246794D01*
X75705242Y-74543810D01*
X75330678Y-74868373D01*
X75330653Y-74868396D01*
X74980218Y-75218831D01*
X74980195Y-75218856D01*
X74655632Y-75593420D01*
X74358616Y-75990187D01*
X74358599Y-75990211D01*
X74090661Y-76407132D01*
X74090653Y-76407145D01*
X73853123Y-76842150D01*
X73647233Y-77292986D01*
X73474031Y-77757360D01*
X73474022Y-77757387D01*
X73334391Y-78232923D01*
X73334388Y-78232933D01*
X73229038Y-78717223D01*
X73158502Y-79207815D01*
X73123144Y-79702181D01*
X70336626Y-79702181D01*
X70206268Y-65102135D01*
X80109500Y-65102135D01*
X80109500Y-66897870D01*
X80109501Y-66897876D01*
X80115908Y-66957483D01*
X80166202Y-67092328D01*
X80166206Y-67092335D01*
X80252452Y-67207544D01*
X80252455Y-67207547D01*
X80367664Y-67293793D01*
X80367671Y-67293797D01*
X80502517Y-67344091D01*
X80502516Y-67344091D01*
X80509444Y-67344835D01*
X80562127Y-67350500D01*
X82357872Y-67350499D01*
X82417483Y-67344091D01*
X82552331Y-67293796D01*
X82667546Y-67207546D01*
X82753796Y-67092331D01*
X82804091Y-66957483D01*
X82810500Y-66897873D01*
X82810499Y-66873979D01*
X82813330Y-66860963D01*
X82823940Y-66841525D01*
X82830179Y-66820275D01*
X82846803Y-66799643D01*
X82846808Y-66799636D01*
X82846811Y-66799634D01*
X82846818Y-66799626D01*
X83517037Y-66129408D01*
X83534075Y-66192993D01*
X83599901Y-66307007D01*
X83692993Y-66400099D01*
X83807007Y-66465925D01*
X83870590Y-66482962D01*
X83238282Y-67115269D01*
X83238282Y-67115270D01*
X83292449Y-67154624D01*
X83481782Y-67251095D01*
X83683870Y-67316757D01*
X83893754Y-67350000D01*
X84106246Y-67350000D01*
X84316127Y-67316757D01*
X84316130Y-67316757D01*
X84518217Y-67251095D01*
X84707554Y-67154622D01*
X84761716Y-67115270D01*
X84761717Y-67115270D01*
X84129408Y-66482962D01*
X84192993Y-66465925D01*
X84307007Y-66400099D01*
X84400099Y-66307007D01*
X84465925Y-66192993D01*
X84482962Y-66129408D01*
X85115270Y-66761717D01*
X85115270Y-66761716D01*
X85154622Y-66707554D01*
X85251095Y-66518217D01*
X85316757Y-66316130D01*
X85316757Y-66316127D01*
X85350000Y-66106246D01*
X85350000Y-65893753D01*
X85316757Y-65683872D01*
X85316757Y-65683869D01*
X85251095Y-65481782D01*
X85154624Y-65292449D01*
X85115270Y-65238282D01*
X85115269Y-65238282D01*
X84482962Y-65870590D01*
X84465925Y-65807007D01*
X84400099Y-65692993D01*
X84307007Y-65599901D01*
X84192993Y-65534075D01*
X84129409Y-65517037D01*
X84761716Y-64884728D01*
X84707550Y-64845375D01*
X84518217Y-64748904D01*
X84316129Y-64683242D01*
X84106246Y-64650000D01*
X83893754Y-64650000D01*
X83683872Y-64683242D01*
X83683869Y-64683242D01*
X83481782Y-64748904D01*
X83292439Y-64845380D01*
X83238282Y-64884727D01*
X83238282Y-64884728D01*
X83870591Y-65517037D01*
X83807007Y-65534075D01*
X83692993Y-65599901D01*
X83599901Y-65692993D01*
X83534075Y-65807007D01*
X83517037Y-65870591D01*
X82846818Y-65200372D01*
X82813333Y-65139049D01*
X82813330Y-65139036D01*
X82810499Y-65126015D01*
X82810499Y-65102128D01*
X82804091Y-65042517D01*
X82763437Y-64933518D01*
X82753798Y-64907673D01*
X82753793Y-64907664D01*
X82667547Y-64792455D01*
X82667544Y-64792452D01*
X82552335Y-64706206D01*
X82552328Y-64706202D01*
X82417482Y-64655908D01*
X82417483Y-64655908D01*
X82357883Y-64649501D01*
X82357881Y-64649500D01*
X82357873Y-64649500D01*
X82357864Y-64649500D01*
X80562129Y-64649500D01*
X80562123Y-64649501D01*
X80502516Y-64655908D01*
X80367671Y-64706202D01*
X80367664Y-64706206D01*
X80252455Y-64792452D01*
X80252452Y-64792455D01*
X80166206Y-64907664D01*
X80166202Y-64907671D01*
X80115908Y-65042517D01*
X80109501Y-65102116D01*
X80109500Y-65102135D01*
X70206268Y-65102135D01*
X70164284Y-60399983D01*
X80712000Y-60399983D01*
X80712000Y-61600001D01*
X80712001Y-61600018D01*
X80722500Y-61702796D01*
X80722501Y-61702799D01*
X80777685Y-61869331D01*
X80777687Y-61869336D01*
X80797320Y-61901166D01*
X80869788Y-62018656D01*
X80993844Y-62142712D01*
X81143166Y-62234814D01*
X81309703Y-62289999D01*
X81412491Y-62300500D01*
X82612508Y-62300499D01*
X82715297Y-62289999D01*
X82881834Y-62234814D01*
X83031156Y-62142712D01*
X83155212Y-62018656D01*
X83247314Y-61869334D01*
X83302499Y-61702797D01*
X83313000Y-61600009D01*
X83312999Y-60399992D01*
X83302499Y-60297203D01*
X83247314Y-60130666D01*
X83155212Y-59981344D01*
X83031156Y-59857288D01*
X82932387Y-59796367D01*
X82932386Y-59796366D01*
X82881840Y-59765189D01*
X82881835Y-59765187D01*
X82881834Y-59765186D01*
X82715297Y-59710001D01*
X82715295Y-59710000D01*
X82612510Y-59699500D01*
X81412498Y-59699500D01*
X81412481Y-59699501D01*
X81309703Y-59710000D01*
X81309700Y-59710001D01*
X81143168Y-59765185D01*
X81143163Y-59765187D01*
X80993842Y-59857289D01*
X80869789Y-59981342D01*
X80777687Y-60130663D01*
X80777686Y-60130666D01*
X80722501Y-60297203D01*
X80722501Y-60297204D01*
X80722500Y-60297204D01*
X80712000Y-60399983D01*
X70164284Y-60399983D01*
X70157972Y-59693040D01*
X124755374Y-59693040D01*
X124755374Y-60206959D01*
X124792036Y-60719561D01*
X124865174Y-61228249D01*
X124974411Y-61730404D01*
X124974414Y-61730414D01*
X125119195Y-62223491D01*
X125119204Y-62223519D01*
X125298795Y-62705023D01*
X125512280Y-63172489D01*
X125758572Y-63623540D01*
X125758580Y-63623553D01*
X126036402Y-64055854D01*
X126036419Y-64055878D01*
X126344386Y-64467275D01*
X126512764Y-64661593D01*
X126680935Y-64855673D01*
X126680944Y-64855682D01*
X126680956Y-64855695D01*
X127044304Y-65219043D01*
X127044317Y-65219055D01*
X127044327Y-65219065D01*
X127163670Y-65322476D01*
X127432724Y-65555613D01*
X127844121Y-65863580D01*
X127844145Y-65863597D01*
X128276446Y-66141419D01*
X128276459Y-66141427D01*
X128727510Y-66387719D01*
X128883332Y-66458880D01*
X129194980Y-66601206D01*
X129676492Y-66780800D01*
X130169585Y-66925585D01*
X130169595Y-66925588D01*
X130671750Y-67034825D01*
X130671757Y-67034826D01*
X131180439Y-67107964D01*
X131693043Y-67144626D01*
X132206957Y-67144626D01*
X132719561Y-67107964D01*
X133228243Y-67034826D01*
X133228244Y-67034825D01*
X133228249Y-67034825D01*
X133730404Y-66925588D01*
X133730407Y-66925587D01*
X133730412Y-66925586D01*
X134223508Y-66780800D01*
X134705020Y-66601206D01*
X135172492Y-66387718D01*
X135623543Y-66141426D01*
X135843606Y-66000000D01*
X136055854Y-65863597D01*
X136055878Y-65863580D01*
X136467275Y-65555613D01*
X136531456Y-65500000D01*
X136855673Y-65219065D01*
X137219065Y-64855673D01*
X137555606Y-64467283D01*
X137555605Y-64467283D01*
X137555613Y-64467275D01*
X137863580Y-64055878D01*
X137863597Y-64055854D01*
X138048811Y-63767653D01*
X138141426Y-63623543D01*
X138387718Y-63172492D01*
X138601206Y-62705020D01*
X138780800Y-62223508D01*
X138925586Y-61730412D01*
X138931593Y-61702799D01*
X139034825Y-61228249D01*
X139035617Y-61222743D01*
X139107964Y-60719561D01*
X139144626Y-60206957D01*
X139144626Y-59812747D01*
X153723840Y-59812747D01*
X153723840Y-60287252D01*
X153761068Y-60760277D01*
X153761068Y-60760278D01*
X153835294Y-61228926D01*
X153835295Y-61228929D01*
X153946064Y-61690312D01*
X153959094Y-61730414D01*
X154092687Y-62141576D01*
X154158515Y-62300498D01*
X154274271Y-62579956D01*
X154337996Y-62705023D01*
X154489693Y-63002746D01*
X154489696Y-63002751D01*
X154737602Y-63407295D01*
X154737609Y-63407306D01*
X155016502Y-63791170D01*
X155016512Y-63791184D01*
X155308002Y-64132473D01*
X155324667Y-64151985D01*
X155660185Y-64487503D01*
X155660191Y-64487508D01*
X156020985Y-64795657D01*
X156020992Y-64795662D01*
X156404865Y-65074562D01*
X156571810Y-65176866D01*
X156809418Y-65322473D01*
X156809423Y-65322476D01*
X156809428Y-65322478D01*
X156809437Y-65322484D01*
X157232214Y-65537899D01*
X157668456Y-65718597D01*
X157670593Y-65719482D01*
X157785335Y-65756763D01*
X158121858Y-65866106D01*
X158583241Y-65976875D01*
X159051893Y-66051102D01*
X159524923Y-66088330D01*
X159524931Y-66088330D01*
X159999409Y-66088330D01*
X159999417Y-66088330D01*
X160472447Y-66051102D01*
X160941099Y-65976875D01*
X161402482Y-65866106D01*
X161853752Y-65719480D01*
X162292126Y-65537899D01*
X162714903Y-65322484D01*
X163119475Y-65074562D01*
X163503348Y-64795662D01*
X163507107Y-64792452D01*
X163608087Y-64706206D01*
X163864155Y-64487503D01*
X164199673Y-64151985D01*
X164507832Y-63791178D01*
X164786732Y-63407305D01*
X165034654Y-63002733D01*
X165250069Y-62579956D01*
X165431650Y-62141582D01*
X165578276Y-61690312D01*
X165689045Y-61228929D01*
X165763272Y-60760277D01*
X165800500Y-60287247D01*
X165800500Y-59812753D01*
X165763272Y-59339723D01*
X165689045Y-58871071D01*
X165578276Y-58409688D01*
X165431650Y-57958418D01*
X165250069Y-57520044D01*
X165034654Y-57097267D01*
X165034648Y-57097258D01*
X165034646Y-57097253D01*
X165034643Y-57097248D01*
X164843962Y-56786086D01*
X164786732Y-56692695D01*
X164507832Y-56308822D01*
X164507827Y-56308815D01*
X164199678Y-55948021D01*
X164199673Y-55948015D01*
X163864155Y-55612497D01*
X163824981Y-55579039D01*
X163503354Y-55304342D01*
X163503340Y-55304332D01*
X163347119Y-55190831D01*
X163119475Y-55025438D01*
X163023268Y-54966482D01*
X162714921Y-54777526D01*
X162714916Y-54777523D01*
X162714906Y-54777518D01*
X162714903Y-54777516D01*
X162292126Y-54562101D01*
X162123573Y-54492284D01*
X161853746Y-54380517D01*
X161532666Y-54276193D01*
X161402482Y-54233894D01*
X161374654Y-54227213D01*
X160941096Y-54123124D01*
X160472447Y-54048898D01*
X159999422Y-54011670D01*
X159999417Y-54011670D01*
X159524923Y-54011670D01*
X159524917Y-54011670D01*
X159051892Y-54048898D01*
X159051891Y-54048898D01*
X158583243Y-54123124D01*
X158121869Y-54233891D01*
X158121863Y-54233892D01*
X158121858Y-54233894D01*
X158121846Y-54233898D01*
X157670593Y-54380517D01*
X157232216Y-54562100D01*
X156809423Y-54777523D01*
X156809418Y-54777526D01*
X156404874Y-55025432D01*
X156404863Y-55025439D01*
X156020999Y-55304332D01*
X156020985Y-55304342D01*
X155660191Y-55612491D01*
X155660177Y-55612504D01*
X155324674Y-55948007D01*
X155324661Y-55948021D01*
X155016512Y-56308815D01*
X155016502Y-56308829D01*
X154737609Y-56692693D01*
X154737602Y-56692704D01*
X154489696Y-57097248D01*
X154489693Y-57097253D01*
X154274270Y-57520046D01*
X154092687Y-57958423D01*
X153946068Y-58409676D01*
X153946061Y-58409699D01*
X153835294Y-58871073D01*
X153761068Y-59339721D01*
X153761068Y-59339722D01*
X153723840Y-59812747D01*
X139144626Y-59812747D01*
X139144626Y-59693043D01*
X139107964Y-59180439D01*
X139034826Y-58671757D01*
X139034825Y-58671750D01*
X138925588Y-58169595D01*
X138925585Y-58169585D01*
X138780800Y-57676492D01*
X138601206Y-57194980D01*
X138387718Y-56727508D01*
X138141426Y-56276457D01*
X138100187Y-56212288D01*
X137863597Y-55844145D01*
X137863580Y-55844121D01*
X137555613Y-55432724D01*
X137350594Y-55196120D01*
X137219065Y-55044327D01*
X137219055Y-55044317D01*
X137219043Y-55044304D01*
X136855695Y-54680956D01*
X136855682Y-54680944D01*
X136855673Y-54680935D01*
X136695520Y-54542162D01*
X136467275Y-54344386D01*
X136055878Y-54036419D01*
X136055854Y-54036402D01*
X135623553Y-53758580D01*
X135623540Y-53758572D01*
X135172489Y-53512280D01*
X134705023Y-53298795D01*
X134223519Y-53119204D01*
X134223517Y-53119203D01*
X134223508Y-53119200D01*
X134074564Y-53075466D01*
X133730414Y-52974414D01*
X133730404Y-52974411D01*
X133228249Y-52865174D01*
X132719561Y-52792036D01*
X132206959Y-52755374D01*
X132206957Y-52755374D01*
X131693043Y-52755374D01*
X131693040Y-52755374D01*
X131180438Y-52792036D01*
X130671750Y-52865174D01*
X130169595Y-52974411D01*
X130169585Y-52974414D01*
X129676508Y-53119195D01*
X129676480Y-53119204D01*
X129194976Y-53298795D01*
X128727510Y-53512280D01*
X128276459Y-53758572D01*
X128276446Y-53758580D01*
X127844145Y-54036402D01*
X127844121Y-54036419D01*
X127432724Y-54344386D01*
X127044330Y-54680932D01*
X127044304Y-54680956D01*
X126680956Y-55044304D01*
X126680932Y-55044330D01*
X126344386Y-55432724D01*
X126036419Y-55844121D01*
X126036402Y-55844145D01*
X125758580Y-56276446D01*
X125758572Y-56276459D01*
X125512280Y-56727510D01*
X125298795Y-57194976D01*
X125119204Y-57676480D01*
X125119195Y-57676508D01*
X124974414Y-58169585D01*
X124974411Y-58169595D01*
X124865174Y-58671750D01*
X124792036Y-59180438D01*
X124755374Y-59693040D01*
X70157972Y-59693040D01*
X70100692Y-53277648D01*
X80712000Y-53277648D01*
X80712000Y-53482351D01*
X80744022Y-53684534D01*
X80807281Y-53879223D01*
X80900215Y-54061613D01*
X81020528Y-54227213D01*
X81165286Y-54371971D01*
X81320249Y-54484556D01*
X81330890Y-54492287D01*
X81428775Y-54542162D01*
X81513276Y-54585218D01*
X81513278Y-54585218D01*
X81513281Y-54585220D01*
X81617637Y-54619127D01*
X81707965Y-54648477D01*
X81809057Y-54664488D01*
X81910148Y-54680500D01*
X81910149Y-54680500D01*
X82114851Y-54680500D01*
X82114852Y-54680500D01*
X82317034Y-54648477D01*
X82511719Y-54585220D01*
X82694110Y-54492287D01*
X82817197Y-54402860D01*
X82859713Y-54371971D01*
X82859715Y-54371968D01*
X82859719Y-54371966D01*
X83004466Y-54227219D01*
X83004468Y-54227215D01*
X83004471Y-54227213D01*
X83108689Y-54083767D01*
X83124787Y-54061610D01*
X83198863Y-53916228D01*
X87149500Y-53916228D01*
X87149500Y-54083771D01*
X87182182Y-54248074D01*
X87182184Y-54248082D01*
X87246295Y-54402860D01*
X87339373Y-54542162D01*
X87457837Y-54660626D01*
X87544265Y-54718375D01*
X87597137Y-54753703D01*
X87751918Y-54817816D01*
X87916228Y-54850499D01*
X87916232Y-54850500D01*
X87916233Y-54850500D01*
X88083768Y-54850500D01*
X88083769Y-54850499D01*
X88248082Y-54817816D01*
X88387808Y-54759938D01*
X88435261Y-54750500D01*
X92064739Y-54750500D01*
X92112191Y-54759938D01*
X92251918Y-54817816D01*
X92416228Y-54850499D01*
X92416232Y-54850500D01*
X92416233Y-54850500D01*
X92583768Y-54850500D01*
X92583769Y-54850499D01*
X92748082Y-54817816D01*
X92902863Y-54753703D01*
X93042162Y-54660626D01*
X93160626Y-54542162D01*
X93253703Y-54402863D01*
X93317816Y-54248082D01*
X93350500Y-54083767D01*
X93350500Y-53916233D01*
X93317816Y-53751918D01*
X93253703Y-53597137D01*
X93222537Y-53550494D01*
X93160626Y-53457837D01*
X93042162Y-53339373D01*
X92902860Y-53246295D01*
X92748082Y-53182184D01*
X92748074Y-53182182D01*
X92583771Y-53149500D01*
X92583767Y-53149500D01*
X92416233Y-53149500D01*
X92416228Y-53149500D01*
X92251925Y-53182182D01*
X92251917Y-53182184D01*
X92112192Y-53240061D01*
X92064739Y-53249500D01*
X88435261Y-53249500D01*
X88387808Y-53240061D01*
X88248082Y-53182184D01*
X88248074Y-53182182D01*
X88083771Y-53149500D01*
X88083767Y-53149500D01*
X87916233Y-53149500D01*
X87916228Y-53149500D01*
X87751925Y-53182182D01*
X87751917Y-53182184D01*
X87597139Y-53246295D01*
X87457837Y-53339373D01*
X87339373Y-53457837D01*
X87246295Y-53597139D01*
X87182184Y-53751917D01*
X87182182Y-53751925D01*
X87149500Y-53916228D01*
X83198863Y-53916228D01*
X83217720Y-53879219D01*
X83280977Y-53684534D01*
X83313000Y-53482352D01*
X83313000Y-53277648D01*
X83297880Y-53182184D01*
X83280977Y-53075465D01*
X83217718Y-52880776D01*
X83172502Y-52792036D01*
X83124787Y-52698390D01*
X83117056Y-52687749D01*
X83004471Y-52532786D01*
X82859713Y-52388028D01*
X82694113Y-52267715D01*
X82694112Y-52267714D01*
X82694110Y-52267713D01*
X82637153Y-52238691D01*
X82511723Y-52174781D01*
X82317034Y-52111522D01*
X82142495Y-52083878D01*
X82114852Y-52079500D01*
X81910148Y-52079500D01*
X81885829Y-52083351D01*
X81707965Y-52111522D01*
X81513276Y-52174781D01*
X81330886Y-52267715D01*
X81165286Y-52388028D01*
X81020528Y-52532786D01*
X80900215Y-52698386D01*
X80807281Y-52880776D01*
X80744022Y-53075465D01*
X80712000Y-53277648D01*
X70100692Y-53277648D01*
X70045925Y-47143753D01*
X141710000Y-47143753D01*
X141710000Y-47356246D01*
X141743242Y-47566127D01*
X141743242Y-47566130D01*
X141808904Y-47768217D01*
X141905375Y-47957550D01*
X141944728Y-48011716D01*
X142577037Y-47379408D01*
X142594075Y-47442993D01*
X142659901Y-47557007D01*
X142752993Y-47650099D01*
X142867007Y-47715925D01*
X142930590Y-47732962D01*
X142298282Y-48365269D01*
X142298282Y-48365270D01*
X142352449Y-48404624D01*
X142541782Y-48501095D01*
X142743870Y-48566757D01*
X142953754Y-48600000D01*
X143166246Y-48600000D01*
X143376127Y-48566757D01*
X143376130Y-48566757D01*
X143578217Y-48501095D01*
X143767554Y-48404622D01*
X143821716Y-48365270D01*
X143821717Y-48365270D01*
X143189408Y-47732962D01*
X143252993Y-47715925D01*
X143367007Y-47650099D01*
X143460099Y-47557007D01*
X143525925Y-47442993D01*
X143542962Y-47379408D01*
X144213181Y-48049628D01*
X144246666Y-48110951D01*
X144249500Y-48137300D01*
X144249500Y-48147865D01*
X144249501Y-48147876D01*
X144255908Y-48207483D01*
X144306202Y-48342328D01*
X144306206Y-48342335D01*
X144392452Y-48457544D01*
X144392455Y-48457547D01*
X144507664Y-48543793D01*
X144507671Y-48543797D01*
X144642517Y-48594091D01*
X144642516Y-48594091D01*
X144649444Y-48594835D01*
X144702127Y-48600500D01*
X146497872Y-48600499D01*
X146557483Y-48594091D01*
X146692331Y-48543796D01*
X146807546Y-48457546D01*
X146893796Y-48342331D01*
X146944091Y-48207483D01*
X146950500Y-48147873D01*
X146950499Y-46352128D01*
X146944091Y-46292517D01*
X146893796Y-46157669D01*
X146893795Y-46157668D01*
X146893793Y-46157664D01*
X146807547Y-46042455D01*
X146807544Y-46042452D01*
X146692335Y-45956206D01*
X146692328Y-45956202D01*
X146557482Y-45905908D01*
X146557483Y-45905908D01*
X146497883Y-45899501D01*
X146497881Y-45899500D01*
X146497873Y-45899500D01*
X146497864Y-45899500D01*
X144702129Y-45899500D01*
X144702123Y-45899501D01*
X144642516Y-45905908D01*
X144507671Y-45956202D01*
X144507664Y-45956206D01*
X144392455Y-46042452D01*
X144392452Y-46042455D01*
X144306206Y-46157664D01*
X144306202Y-46157671D01*
X144255908Y-46292517D01*
X144249501Y-46352116D01*
X144249501Y-46352123D01*
X144249500Y-46352135D01*
X144249500Y-46362690D01*
X144229815Y-46429729D01*
X144213181Y-46450371D01*
X143542962Y-47120590D01*
X143525925Y-47057007D01*
X143460099Y-46942993D01*
X143367007Y-46849901D01*
X143252993Y-46784075D01*
X143189409Y-46767037D01*
X143821716Y-46134728D01*
X143767550Y-46095375D01*
X143578217Y-45998904D01*
X143376129Y-45933242D01*
X143166246Y-45900000D01*
X142953754Y-45900000D01*
X142743872Y-45933242D01*
X142743869Y-45933242D01*
X142541782Y-45998904D01*
X142352439Y-46095380D01*
X142298282Y-46134727D01*
X142298282Y-46134728D01*
X142930591Y-46767037D01*
X142867007Y-46784075D01*
X142752993Y-46849901D01*
X142659901Y-46942993D01*
X142594075Y-47057007D01*
X142577037Y-47120591D01*
X141944728Y-46488282D01*
X141944727Y-46488282D01*
X141905380Y-46542439D01*
X141808904Y-46731782D01*
X141743242Y-46933869D01*
X141743242Y-46933872D01*
X141710000Y-47143753D01*
X70045925Y-47143753D01*
X70000184Y-42020685D01*
X70006541Y-41980376D01*
X70731438Y-39805683D01*
X75149500Y-39805683D01*
X75149500Y-40194316D01*
X75183371Y-40581462D01*
X75183371Y-40581466D01*
X75250853Y-40964172D01*
X75250857Y-40964189D01*
X75351435Y-41339555D01*
X75484362Y-41704768D01*
X75648587Y-42056952D01*
X75648600Y-42056976D01*
X75842905Y-42393521D01*
X75842914Y-42393536D01*
X76065821Y-42711880D01*
X76256358Y-42938952D01*
X76315621Y-43009579D01*
X76590421Y-43284379D01*
X76696361Y-43373273D01*
X76888119Y-43534178D01*
X76888125Y-43534182D01*
X76888126Y-43534183D01*
X77206470Y-43757090D01*
X77521894Y-43939200D01*
X77543023Y-43951399D01*
X77543047Y-43951412D01*
X77895231Y-44115637D01*
X77895236Y-44115638D01*
X77895245Y-44115643D01*
X78260434Y-44248561D01*
X78260440Y-44248562D01*
X78260444Y-44248564D01*
X78362666Y-44275954D01*
X78635818Y-44349145D01*
X79018540Y-44416629D01*
X79405685Y-44450499D01*
X79405686Y-44450500D01*
X79405687Y-44450500D01*
X79794314Y-44450500D01*
X79794314Y-44450499D01*
X80181460Y-44416629D01*
X80564182Y-44349145D01*
X80939566Y-44248561D01*
X81304755Y-44115643D01*
X81304768Y-44115637D01*
X81656952Y-43951412D01*
X81656960Y-43951407D01*
X81656970Y-43951403D01*
X81993530Y-43757090D01*
X82311874Y-43534183D01*
X82609579Y-43284379D01*
X82884379Y-43009579D01*
X83134183Y-42711874D01*
X83357090Y-42393530D01*
X83551403Y-42056970D01*
X83551407Y-42056960D01*
X83551412Y-42056952D01*
X83715637Y-41704768D01*
X83715637Y-41704767D01*
X83715643Y-41704755D01*
X83848561Y-41339566D01*
X83949145Y-40964182D01*
X84016629Y-40581460D01*
X84050500Y-40194313D01*
X84050500Y-39805687D01*
X84050500Y-39805683D01*
X155149500Y-39805683D01*
X155149500Y-40194316D01*
X155183371Y-40581462D01*
X155183371Y-40581466D01*
X155250853Y-40964172D01*
X155250857Y-40964189D01*
X155351435Y-41339555D01*
X155484362Y-41704768D01*
X155648587Y-42056952D01*
X155648600Y-42056976D01*
X155842905Y-42393521D01*
X155842914Y-42393536D01*
X156065821Y-42711880D01*
X156256358Y-42938952D01*
X156315621Y-43009579D01*
X156590421Y-43284379D01*
X156696361Y-43373273D01*
X156888119Y-43534178D01*
X156888125Y-43534182D01*
X156888126Y-43534183D01*
X157206470Y-43757090D01*
X157521894Y-43939200D01*
X157543023Y-43951399D01*
X157543047Y-43951412D01*
X157895231Y-44115637D01*
X157895236Y-44115638D01*
X157895245Y-44115643D01*
X158260434Y-44248561D01*
X158260440Y-44248562D01*
X158260444Y-44248564D01*
X158362666Y-44275954D01*
X158635818Y-44349145D01*
X159018540Y-44416629D01*
X159405685Y-44450499D01*
X159405686Y-44450500D01*
X159405687Y-44450500D01*
X159794314Y-44450500D01*
X159794314Y-44450499D01*
X160181460Y-44416629D01*
X160564182Y-44349145D01*
X160939566Y-44248561D01*
X161304755Y-44115643D01*
X161304768Y-44115637D01*
X161656952Y-43951412D01*
X161656960Y-43951407D01*
X161656970Y-43951403D01*
X161993530Y-43757090D01*
X162311874Y-43534183D01*
X162609579Y-43284379D01*
X162884379Y-43009579D01*
X163134183Y-42711874D01*
X163357090Y-42393530D01*
X163551403Y-42056970D01*
X163551407Y-42056960D01*
X163551412Y-42056952D01*
X163715637Y-41704768D01*
X163715637Y-41704767D01*
X163715643Y-41704755D01*
X163848561Y-41339566D01*
X163949145Y-40964182D01*
X164016629Y-40581460D01*
X164050500Y-40194313D01*
X164050500Y-39805687D01*
X164016629Y-39418540D01*
X163949145Y-39035818D01*
X163848561Y-38660434D01*
X163715643Y-38295245D01*
X163715638Y-38295236D01*
X163715637Y-38295231D01*
X163551412Y-37943047D01*
X163551399Y-37943023D01*
X163498065Y-37850646D01*
X163357090Y-37606470D01*
X163134183Y-37288126D01*
X163134182Y-37288125D01*
X163134178Y-37288119D01*
X162973273Y-37096361D01*
X162884379Y-36990421D01*
X162609579Y-36715621D01*
X162538952Y-36656358D01*
X162311880Y-36465821D01*
X161993536Y-36242914D01*
X161993533Y-36242912D01*
X161993530Y-36242910D01*
X161893538Y-36185179D01*
X161656976Y-36048600D01*
X161656952Y-36048587D01*
X161304768Y-35884362D01*
X161304757Y-35884358D01*
X161304755Y-35884357D01*
X160939566Y-35751439D01*
X160939565Y-35751438D01*
X160939555Y-35751435D01*
X160564189Y-35650857D01*
X160564192Y-35650857D01*
X160564182Y-35650855D01*
X160564176Y-35650853D01*
X160564172Y-35650853D01*
X160181464Y-35583371D01*
X159794316Y-35549500D01*
X159794313Y-35549500D01*
X159405687Y-35549500D01*
X159405683Y-35549500D01*
X159018537Y-35583371D01*
X159018533Y-35583371D01*
X158635827Y-35650853D01*
X158635810Y-35650857D01*
X158260444Y-35751435D01*
X157895231Y-35884362D01*
X157543047Y-36048587D01*
X157543023Y-36048600D01*
X157206478Y-36242905D01*
X157206463Y-36242914D01*
X156888119Y-36465821D01*
X156590418Y-36715623D01*
X156315623Y-36990418D01*
X156065821Y-37288119D01*
X155842914Y-37606463D01*
X155842905Y-37606478D01*
X155648600Y-37943023D01*
X155648587Y-37943047D01*
X155484362Y-38295231D01*
X155351435Y-38660444D01*
X155250857Y-39035810D01*
X155250853Y-39035827D01*
X155183371Y-39418533D01*
X155183371Y-39418537D01*
X155149500Y-39805683D01*
X84050500Y-39805683D01*
X84016629Y-39418540D01*
X83949145Y-39035818D01*
X83848561Y-38660434D01*
X83715643Y-38295245D01*
X83715638Y-38295236D01*
X83715637Y-38295231D01*
X83551412Y-37943047D01*
X83551399Y-37943023D01*
X83498065Y-37850646D01*
X83357090Y-37606470D01*
X83134183Y-37288126D01*
X83134182Y-37288125D01*
X83134178Y-37288119D01*
X82973273Y-37096361D01*
X82884379Y-36990421D01*
X82609579Y-36715621D01*
X82538952Y-36656358D01*
X82311880Y-36465821D01*
X81993536Y-36242914D01*
X81993533Y-36242912D01*
X81993530Y-36242910D01*
X81893538Y-36185179D01*
X81656976Y-36048600D01*
X81656952Y-36048587D01*
X81304768Y-35884362D01*
X81304757Y-35884358D01*
X81304755Y-35884357D01*
X80939566Y-35751439D01*
X80939565Y-35751438D01*
X80939555Y-35751435D01*
X80564189Y-35650857D01*
X80564192Y-35650857D01*
X80564182Y-35650855D01*
X80564176Y-35650853D01*
X80564172Y-35650853D01*
X80181464Y-35583371D01*
X79794316Y-35549500D01*
X79794313Y-35549500D01*
X79405687Y-35549500D01*
X79405683Y-35549500D01*
X79018537Y-35583371D01*
X79018533Y-35583371D01*
X78635827Y-35650853D01*
X78635810Y-35650857D01*
X78260444Y-35751435D01*
X77895231Y-35884362D01*
X77543047Y-36048587D01*
X77543023Y-36048600D01*
X77206478Y-36242905D01*
X77206463Y-36242914D01*
X76888119Y-36465821D01*
X76590418Y-36715623D01*
X76315623Y-36990418D01*
X76065821Y-37288119D01*
X75842914Y-37606463D01*
X75842905Y-37606478D01*
X75648600Y-37943023D01*
X75648587Y-37943047D01*
X75484362Y-38295231D01*
X75351435Y-38660444D01*
X75250857Y-39035810D01*
X75250853Y-39035827D01*
X75183371Y-39418533D01*
X75183371Y-39418537D01*
X75149500Y-39805683D01*
X70731438Y-39805683D01*
X70994104Y-39017685D01*
X71010834Y-38984831D01*
X75962910Y-32051926D01*
X76017894Y-32008816D01*
X76063813Y-32000000D01*
X162962456Y-32000000D01*
X163029495Y-32019685D01*
G37*
%TD.AperFunction*%
%TD*%
M02*
