M48
; DRILL file {KiCad 9.0.6} date 2026-09-05T09:14:45+0200
; FORMAT={-:-/ absolute / metric / decimal}
; #@! TF.CreationDate,2026-09-05T09:14:45+02:00
; #@! TF.GenerationSoftware,Kicad,Pcbnew,9.0.6
; #@! TF.FileFunction,Plated,1,2,PTH
FMAT,2
METRIC
; #@! TA.AperFunction,Plated,PTH,ViaDrill
T1C0.300
; #@! TA.AperFunction,Plated,PTH,ComponentDrill
T2C0.800
; #@! TA.AperFunction,Plated,PTH,ComponentDrill
T3C1.000
; #@! TA.AperFunction,Plated,PTH,ComponentDrill
T4C1.100
%
G90
G05
T1
X84.0Y-63.5
X88.0Y-54.0
X88.75Y-103.6
X92.4Y-103.65
X92.5Y-54.0
X93.0Y-33.0
X96.34Y-158.66
X99.0Y-38.0
X102.8Y-110.25
X115.5Y-121.1
X132.35Y-135.0
X135.1Y-132.3
X139.35Y-47.25
X144.9Y-125.05
X147.0Y-33.0
X151.2Y-125.1
X153.55Y-110.7
X154.95Y-134.0
X156.0Y-142.0
X157.05Y-136.0
T2
X82.013Y-53.38
X82.013Y-61.0
T3
X81.46Y-66.0
X84.0Y-66.0
X96.34Y-130.0
X96.34Y-155.4
X98.88Y-130.0
X98.88Y-155.4
X101.42Y-130.0
X101.42Y-155.4
X102.81Y-107.7
X103.96Y-130.0
X103.96Y-155.4
X105.35Y-107.7
X106.5Y-130.0
X106.5Y-155.4
X107.89Y-107.7
X109.04Y-130.0
X109.04Y-155.4
X111.58Y-130.0
X111.58Y-155.4
X114.12Y-130.0
X114.12Y-155.4
X116.66Y-130.0
X116.66Y-155.4
X118.6Y-121.15
X119.2Y-130.0
X119.2Y-155.4
X121.14Y-121.15
X121.74Y-130.0
X121.74Y-155.4
X123.68Y-121.15
X124.28Y-130.0
X124.28Y-155.4
X126.82Y-130.0
X126.82Y-155.4
X129.36Y-130.0
X129.36Y-155.4
X130.11Y-107.85
X131.9Y-130.0
X131.9Y-155.4
X132.65Y-107.85
X134.44Y-130.0
X134.44Y-155.4
X136.98Y-130.0
X136.98Y-155.4
X139.52Y-130.0
X139.52Y-155.4
X142.06Y-130.0
X142.06Y-155.4
X143.06Y-47.25
X144.6Y-130.0
X144.6Y-155.4
X145.6Y-47.25
X153.56Y-108.0
X156.1Y-108.0
T4
X160.0Y-137.0
X160.0Y-139.54
X160.0Y-142.08
M30
