%TF.GenerationSoftware,KiCad,Pcbnew,9.0.6*%
%TF.CreationDate,2026-08-21T17:43:04+02:00*%
%TF.ProjectId,Tiskana_plocica_za_kontroler_lego_auta,5469736b-616e-4615-9f70-6c6f63696361,rev?*%
%TF.SameCoordinates,Original*%
%TF.FileFunction,Copper,L1,Top*%
%TF.FilePolarity,Positive*%
%FSLAX46Y46*%
G04 Gerber Fmt 4.6, Leading zero omitted, Abs format (unit mm)*
G04 Created by KiCad (PCBNEW 9.0.6) date 2026-08-21 17:43:04*
%MOMM*%
%LPD*%
G01*
G04 APERTURE LIST*
G04 Aperture macros list*
%AMRoundRect*
0 Rectangle with rounded corners*
0 $1 Rounding radius*
0 $2 $3 $4 $5 $6 $7 $8 $9 X,Y pos of 4 corners*
0 Add a 4 corners polygon primitive as box body*
4,1,4,$2,$3,$4,$5,$6,$7,$8,$9,$2,$3,0*
0 Add four circle primitives for the rounded corners*
1,1,$1+$1,$2,$3*
1,1,$1+$1,$4,$5*
1,1,$1+$1,$6,$7*
1,1,$1+$1,$8,$9*
0 Add four rect primitives between the rounded corners*
20,1,$1+$1,$2,$3,$4,$5,0*
20,1,$1+$1,$4,$5,$6,$7,0*
20,1,$1+$1,$6,$7,$8,$9,0*
20,1,$1+$1,$8,$9,$2,$3,0*%
G04 Aperture macros list end*
%TA.AperFunction,SMDPad,CuDef*%
%ADD10RoundRect,0.250000X0.262500X0.450000X-0.262500X0.450000X-0.262500X-0.450000X0.262500X-0.450000X0*%
%TD*%
%TA.AperFunction,SMDPad,CuDef*%
%ADD11RoundRect,0.250000X-0.262500X-0.450000X0.262500X-0.450000X0.262500X0.450000X-0.262500X0.450000X0*%
%TD*%
%TA.AperFunction,ComponentPad*%
%ADD12R,1.700000X1.700000*%
%TD*%
%TA.AperFunction,ComponentPad*%
%ADD13C,1.700000*%
%TD*%
%TA.AperFunction,ComponentPad*%
%ADD14RoundRect,0.250000X-0.550000X0.550000X-0.550000X-0.550000X0.550000X-0.550000X0.550000X0.550000X0*%
%TD*%
%TA.AperFunction,ComponentPad*%
%ADD15C,1.600000*%
%TD*%
%TA.AperFunction,SMDPad,CuDef*%
%ADD16RoundRect,0.243750X-0.243750X-0.456250X0.243750X-0.456250X0.243750X0.456250X-0.243750X0.456250X0*%
%TD*%
%TA.AperFunction,ComponentPad*%
%ADD17RoundRect,0.250000X-0.625000X0.350000X-0.625000X-0.350000X0.625000X-0.350000X0.625000X0.350000X0*%
%TD*%
%TA.AperFunction,ComponentPad*%
%ADD18O,1.750000X1.200000*%
%TD*%
%TA.AperFunction,ViaPad*%
%ADD19C,0.700000*%
%TD*%
%TA.AperFunction,Conductor*%
%ADD20C,0.200000*%
%TD*%
G04 APERTURE END LIST*
D10*
%TO.P,R6,1*%
%TO.N,ADC*%
X90912500Y-125000000D03*
%TO.P,R6,2*%
%TO.N,GND*%
X89087500Y-125000000D03*
%TD*%
D11*
%TO.P,R2,1*%
%TO.N,BAT75*%
X84087500Y-90000000D03*
%TO.P,R2,2*%
%TO.N,Net-(D3-A)*%
X85912500Y-90000000D03*
%TD*%
D12*
%TO.P,J2,1,Pin_1*%
%TO.N,+5V*%
X99000000Y-91520000D03*
D13*
%TO.P,J2,2,Pin_2*%
%TO.N,Net-(J2-Pin_2)*%
X99000000Y-94060000D03*
%TO.P,J2,3,Pin_3*%
%TO.N,unconnected-(J2-Pin_3-Pad3)*%
X99000000Y-96600000D03*
%TO.P,J2,4,Pin_4*%
%TO.N,unconnected-(J2-Pin_4-Pad4)*%
X99000000Y-99140000D03*
%TO.P,J2,5,Pin_5*%
%TO.N,ury*%
X99000000Y-101680000D03*
%TO.P,J2,6,Pin_6*%
%TO.N,sw*%
X99000000Y-104220000D03*
%TO.P,J2,7,Pin_7*%
%TO.N,urx*%
X99000000Y-106760000D03*
%TO.P,J2,8,Pin_8*%
%TO.N,ADC*%
X99000000Y-109300000D03*
%TO.P,J2,9,Pin_9*%
%TO.N,BAT100*%
X99000000Y-111840000D03*
%TO.P,J2,10,Pin_10*%
%TO.N,BAT75*%
X99000000Y-114380000D03*
%TO.P,J2,11,Pin_11*%
%TO.N,BAT50*%
X99000000Y-116920000D03*
%TO.P,J2,12,Pin_12*%
%TO.N,unconnected-(J2-Pin_12-Pad12)*%
X99000000Y-119460000D03*
%TO.P,J2,13,Pin_13*%
%TO.N,unconnected-(J2-Pin_13-Pad13)*%
X99000000Y-122000000D03*
%TO.P,J2,14,Pin_14*%
%TO.N,BAT25*%
X99000000Y-124540000D03*
%TO.P,J2,15,Pin_15*%
%TO.N,unconnected-(J2-Pin_15-Pad15)*%
X99000000Y-127080000D03*
%TO.P,J2,16,Pin_16*%
%TO.N,unconnected-(J2-Pin_16-Pad16)*%
X99000000Y-129620000D03*
%TO.P,J2,17,Pin_17*%
%TO.N,unconnected-(J2-Pin_17-Pad17)*%
X99000000Y-132160000D03*
%TO.P,J2,18,Pin_18*%
%TO.N,unconnected-(J2-Pin_18-Pad18)*%
X99000000Y-134700000D03*
%TO.P,J2,19,Pin_19*%
%TO.N,unconnected-(J2-Pin_19-Pad19)*%
X99000000Y-137240000D03*
%TO.P,J2,20,Pin_20*%
%TO.N,unconnected-(J2-Pin_20-Pad20)*%
X99000000Y-139780000D03*
%TD*%
D14*
%TO.P,SW1,1,A*%
%TO.N,+5V*%
X125000000Y-65000000D03*
D15*
%TO.P,SW1,2,B*%
%TO.N,Net-(J2-Pin_2)*%
X125000000Y-72620000D03*
%TD*%
D11*
%TO.P,R4,1*%
%TO.N,BAT25*%
X84087500Y-70000000D03*
%TO.P,R4,2*%
%TO.N,Net-(D1-A)*%
X85912500Y-70000000D03*
%TD*%
D16*
%TO.P,D1,1,K*%
%TO.N,GND*%
X75000000Y-53000000D03*
%TO.P,D1,2,A*%
%TO.N,Net-(D1-A)*%
X76875000Y-53000000D03*
%TD*%
D12*
%TO.P,J3,1,Pin_1*%
%TO.N,GND*%
X122000000Y-91520000D03*
D13*
%TO.P,J3,2,Pin_2*%
%TO.N,unconnected-(J3-Pin_2-Pad2)*%
X122000000Y-94060000D03*
%TO.P,J3,3,Pin_3*%
%TO.N,unconnected-(J3-Pin_3-Pad3)*%
X122000000Y-96600000D03*
%TO.P,J3,4,Pin_4*%
%TO.N,unconnected-(J3-Pin_4-Pad4)*%
X122000000Y-99140000D03*
%TO.P,J3,5,Pin_5*%
%TO.N,unconnected-(J3-Pin_5-Pad5)*%
X122000000Y-101680000D03*
%TO.P,J3,6,Pin_6*%
%TO.N,unconnected-(J3-Pin_6-Pad6)*%
X122000000Y-104220000D03*
%TO.P,J3,7,Pin_7*%
%TO.N,unconnected-(J3-Pin_7-Pad7)*%
X122000000Y-106760000D03*
%TO.P,J3,8,Pin_8*%
%TO.N,unconnected-(J3-Pin_8-Pad8)*%
X122000000Y-109300000D03*
%TO.P,J3,9,Pin_9*%
%TO.N,unconnected-(J3-Pin_9-Pad9)*%
X122000000Y-111840000D03*
%TO.P,J3,10,Pin_10*%
%TO.N,unconnected-(J3-Pin_10-Pad10)*%
X122000000Y-114380000D03*
%TO.P,J3,11,Pin_11*%
%TO.N,unconnected-(J3-Pin_11-Pad11)*%
X122000000Y-116920000D03*
%TO.P,J3,12,Pin_12*%
%TO.N,unconnected-(J3-Pin_12-Pad12)*%
X122000000Y-119460000D03*
%TO.P,J3,13,Pin_13*%
%TO.N,unconnected-(J3-Pin_13-Pad13)*%
X122000000Y-122000000D03*
%TO.P,J3,14,Pin_14*%
%TO.N,unconnected-(J3-Pin_14-Pad14)*%
X122000000Y-124540000D03*
%TO.P,J3,15,Pin_15*%
%TO.N,unconnected-(J3-Pin_15-Pad15)*%
X122000000Y-127080000D03*
%TO.P,J3,16,Pin_16*%
%TO.N,unconnected-(J3-Pin_16-Pad16)*%
X122000000Y-129620000D03*
%TO.P,J3,17,Pin_17*%
%TO.N,unconnected-(J3-Pin_17-Pad17)*%
X122000000Y-132160000D03*
%TO.P,J3,18,Pin_18*%
%TO.N,unconnected-(J3-Pin_18-Pad18)*%
X122000000Y-134700000D03*
%TO.P,J3,19,Pin_19*%
%TO.N,unconnected-(J3-Pin_19-Pad19)*%
X122000000Y-137240000D03*
%TO.P,J3,20,Pin_20*%
%TO.N,unconnected-(J3-Pin_20-Pad20)*%
X122000000Y-139780000D03*
%TD*%
D12*
%TO.P,J4,1,Pin_1*%
%TO.N,GND*%
X95000000Y-50000000D03*
D13*
%TO.P,J4,2,Pin_2*%
%TO.N,+5V*%
X97540000Y-50000000D03*
%TO.P,J4,3,Pin_3*%
%TO.N,urx*%
X100080000Y-50000000D03*
%TO.P,J4,4,Pin_4*%
%TO.N,ury*%
X102620000Y-50000000D03*
%TO.P,J4,5,Pin_5*%
%TO.N,sw*%
X105160000Y-50000000D03*
%TD*%
D11*
%TO.P,R5,1*%
%TO.N,Net-(J1-Pin_1)*%
X89087500Y-120000000D03*
%TO.P,R5,2*%
%TO.N,ADC*%
X90912500Y-120000000D03*
%TD*%
D17*
%TO.P,J1,1,Pin_1*%
%TO.N,Net-(J1-Pin_1)*%
X88000000Y-135000000D03*
D18*
%TO.P,J1,2,Pin_2*%
%TO.N,Net-(J1-Pin_2)*%
X88000000Y-137000000D03*
%TD*%
D16*
%TO.P,D3,1,K*%
%TO.N,GND*%
X75000000Y-66000000D03*
%TO.P,D3,2,A*%
%TO.N,Net-(D3-A)*%
X76875000Y-66000000D03*
%TD*%
%TO.P,D4,1,K*%
%TO.N,GND*%
X75062500Y-73000000D03*
%TO.P,D4,2,A*%
%TO.N,Net-(D4-A)*%
X76937500Y-73000000D03*
%TD*%
D17*
%TO.P,J5,1,Pin_1*%
%TO.N,Net-(J1-Pin_1)*%
X76000000Y-135000000D03*
D18*
%TO.P,J5,2,Pin_2*%
%TO.N,Net-(J1-Pin_2)*%
X76000000Y-137000000D03*
%TD*%
D11*
%TO.P,R1,1*%
%TO.N,BAT100*%
X84087500Y-100000000D03*
%TO.P,R1,2*%
%TO.N,Net-(D4-A)*%
X85912500Y-100000000D03*
%TD*%
%TO.P,R3,1*%
%TO.N,BAT50*%
X84087500Y-80000000D03*
%TO.P,R3,2*%
%TO.N,Net-(D2-A)*%
X85912500Y-80000000D03*
%TD*%
D16*
%TO.P,D2,1,K*%
%TO.N,GND*%
X75000000Y-59000000D03*
%TO.P,D2,2,A*%
%TO.N,Net-(D2-A)*%
X76875000Y-59000000D03*
%TD*%
D19*
%TO.N,GND*%
X87000000Y-122000000D03*
X102000000Y-111000000D03*
X89000000Y-123000000D03*
%TO.N,sw*%
X92000000Y-103000000D03*
X92000000Y-100000000D03*
%TO.N,BAT50*%
X89000000Y-111000000D03*
X84000000Y-85000000D03*
X92000000Y-114000000D03*
X82000000Y-97000000D03*
%TO.N,BAT75*%
X83000000Y-98000000D03*
X84000000Y-92000000D03*
X90000000Y-110000000D03*
X92000000Y-112000000D03*
%TO.N,BAT100*%
X91000000Y-109000000D03*
X93000000Y-111000000D03*
%TO.N,BAT25*%
X81000000Y-97000000D03*
X89000000Y-113000000D03*
X84000000Y-75000000D03*
X81000000Y-93000000D03*
X92000000Y-116000000D03*
X80000000Y-76000000D03*
%TD*%
D20*
%TO.N,GND*%
X75000000Y-59000000D02*
X75000000Y-66000000D01*
X81000000Y-122000000D02*
X87000000Y-122000000D01*
X75062500Y-116062500D02*
X81000000Y-122000000D01*
X89087500Y-125000000D02*
X89087500Y-123087500D01*
X75000000Y-52000000D02*
X77000000Y-50000000D01*
X121860000Y-91460000D02*
X121540000Y-91460000D01*
X75000000Y-53000000D02*
X75000000Y-59000000D01*
X75000000Y-72937500D02*
X75062500Y-73000000D01*
X75000000Y-66000000D02*
X75000000Y-72937500D01*
X89087500Y-123087500D02*
X89000000Y-123000000D01*
X75062500Y-73000000D02*
X75062500Y-116062500D01*
X75000000Y-53000000D02*
X75000000Y-52000000D01*
X121540000Y-91460000D02*
X102000000Y-111000000D01*
X77000000Y-50000000D02*
X95000000Y-50000000D01*
%TO.N,Net-(D1-A)*%
X76875000Y-53000000D02*
X79000000Y-53000000D01*
X79000000Y-53000000D02*
X85912500Y-59912500D01*
X85912500Y-59912500D02*
X85912500Y-70000000D01*
%TO.N,Net-(D2-A)*%
X85000000Y-78000000D02*
X85912500Y-78912500D01*
X83000000Y-65125000D02*
X83000000Y-77000000D01*
X83000000Y-77000000D02*
X84000000Y-78000000D01*
X85912500Y-78912500D02*
X85912500Y-80000000D01*
X76875000Y-59000000D02*
X83000000Y-65125000D01*
X84000000Y-78000000D02*
X85000000Y-78000000D01*
%TO.N,Net-(D3-A)*%
X82000000Y-87000000D02*
X83000000Y-88000000D01*
X85000000Y-88000000D02*
X85912500Y-88912500D01*
X82000000Y-71125000D02*
X82000000Y-87000000D01*
X83000000Y-88000000D02*
X85000000Y-88000000D01*
X76875000Y-66000000D02*
X82000000Y-71125000D01*
X85912500Y-88912500D02*
X85912500Y-90000000D01*
%TO.N,Net-(D4-A)*%
X76937500Y-90937500D02*
X84000000Y-98000000D01*
X76937500Y-73000000D02*
X76937500Y-90937500D01*
X85000000Y-98000000D02*
X85912500Y-98912500D01*
X85912500Y-98912500D02*
X85912500Y-100000000D01*
X84000000Y-98000000D02*
X85000000Y-98000000D01*
%TO.N,Net-(J1-Pin_1)*%
X88000000Y-135000000D02*
X88000000Y-121087500D01*
X88000000Y-121087500D02*
X89087500Y-120000000D01*
X88000000Y-135000000D02*
X76000000Y-135000000D01*
%TO.N,Net-(J1-Pin_2)*%
X76000000Y-137000000D02*
X88000000Y-137000000D01*
%TO.N,sw*%
X93220000Y-104220000D02*
X92000000Y-103000000D01*
X92000000Y-63160000D02*
X92000000Y-100000000D01*
X99000000Y-104220000D02*
X93220000Y-104220000D01*
X105160000Y-50000000D02*
X92000000Y-63160000D01*
%TO.N,+5V*%
X113000000Y-64000000D02*
X114000000Y-65000000D01*
X97540000Y-46460000D02*
X98000000Y-46000000D01*
X98000000Y-46000000D02*
X111000000Y-46000000D01*
X114000000Y-65000000D02*
X125000000Y-65000000D01*
X98000000Y-64000000D02*
X111000000Y-64000000D01*
X95000000Y-67000000D02*
X98000000Y-64000000D01*
X96520000Y-91520000D02*
X95000000Y-90000000D01*
X99000000Y-91520000D02*
X96520000Y-91520000D01*
X111000000Y-46000000D02*
X113000000Y-48000000D01*
X113000000Y-62000000D02*
X113000000Y-64000000D01*
X113000000Y-48000000D02*
X113000000Y-62000000D01*
X111000000Y-64000000D02*
X113000000Y-62000000D01*
X97540000Y-50000000D02*
X97540000Y-46460000D01*
X95000000Y-90000000D02*
X95000000Y-67000000D01*
%TO.N,BAT50*%
X84000000Y-85000000D02*
X84087500Y-84912500D01*
X82000000Y-104000000D02*
X82000000Y-97000000D01*
X84087500Y-84912500D02*
X84087500Y-80000000D01*
X99000000Y-116920000D02*
X94920000Y-116920000D01*
X89000000Y-111000000D02*
X82000000Y-104000000D01*
X94920000Y-116920000D02*
X92000000Y-114000000D01*
%TO.N,ury*%
X91680000Y-101680000D02*
X91000000Y-101000000D01*
X91000000Y-61620000D02*
X102620000Y-50000000D01*
X99000000Y-101680000D02*
X91680000Y-101680000D01*
X91000000Y-101000000D02*
X91000000Y-61620000D01*
%TO.N,BAT75*%
X84087500Y-91912500D02*
X84087500Y-90000000D01*
X90000000Y-110000000D02*
X83000000Y-103000000D01*
X83000000Y-103000000D02*
X83000000Y-98000000D01*
X84000000Y-92000000D02*
X84087500Y-91912500D01*
X99000000Y-114380000D02*
X94380000Y-114380000D01*
X94380000Y-114380000D02*
X92000000Y-112000000D01*
%TO.N,BAT100*%
X91000000Y-109000000D02*
X84087500Y-102087500D01*
X99000000Y-111840000D02*
X93840000Y-111840000D01*
X84087500Y-102087500D02*
X84087500Y-100000000D01*
X93840000Y-111840000D02*
X93000000Y-111000000D01*
%TO.N,Net-(J2-Pin_2)*%
X125000000Y-72620000D02*
X125000000Y-83000000D01*
X105000000Y-85000000D02*
X103000000Y-87000000D01*
X123000000Y-85000000D02*
X105000000Y-85000000D01*
X125000000Y-83000000D02*
X123000000Y-85000000D01*
X103000000Y-90060000D02*
X99000000Y-94060000D01*
X103000000Y-87000000D02*
X103000000Y-90060000D01*
%TO.N,ADC*%
X99000000Y-109300000D02*
X92700000Y-109300000D01*
X90912500Y-125000000D02*
X90912500Y-120000000D01*
X92700000Y-109300000D02*
X90912500Y-111087500D01*
X90912500Y-111087500D02*
X90912500Y-120000000D01*
%TO.N,urx*%
X100080000Y-50000000D02*
X90000000Y-60080000D01*
X90000000Y-106000000D02*
X90760000Y-106760000D01*
X90760000Y-106760000D02*
X99000000Y-106760000D01*
X90000000Y-60080000D02*
X90000000Y-106000000D01*
%TO.N,BAT25*%
X99000000Y-124540000D02*
X92000000Y-117540000D01*
X84000000Y-75000000D02*
X85000000Y-74000000D01*
X85000000Y-70912500D02*
X84087500Y-70000000D01*
X85000000Y-74000000D02*
X85000000Y-70912500D01*
X89000000Y-113000000D02*
X81000000Y-105000000D01*
X81000000Y-93000000D02*
X80000000Y-92000000D01*
X80000000Y-92000000D02*
X80000000Y-76000000D01*
X92000000Y-117540000D02*
X92000000Y-116000000D01*
X81000000Y-105000000D02*
X81000000Y-97000000D01*
%TD*%
M02*
