M48
; DRILL file {KiCad 9.0.6} date 2026-08-21T17:43:54+0200
; FORMAT={-:-/ absolute / metric / decimal}
; #@! TF.CreationDate,2026-08-21T17:43:54+02:00
; #@! TF.GenerationSoftware,Kicad,Pcbnew,9.0.6
; #@! TF.FileFunction,Plated,1,2,PTH
FMAT,2
METRIC
; #@! TA.AperFunction,Plated,PTH,ViaDrill
T1C0.300
; #@! TA.AperFunction,Plated,PTH,ComponentDrill
T2C0.750
; #@! TA.AperFunction,Plated,PTH,ComponentDrill
T3C0.800
; #@! TA.AperFunction,Plated,PTH,ComponentDrill
T4C1.000
%
G90
G05
T1
X80.0Y-76.0
X81.0Y-93.0
X81.0Y-97.0
X82.0Y-97.0
X83.0Y-98.0
X84.0Y-75.0
X84.0Y-85.0
X84.0Y-92.0
X87.0Y-122.0
X89.0Y-111.0
X89.0Y-113.0
X89.0Y-123.0
X90.0Y-110.0
X91.0Y-109.0
X92.0Y-100.0
X92.0Y-103.0
X92.0Y-112.0
X92.0Y-114.0
X92.0Y-116.0
X93.0Y-111.0
X102.0Y-111.0
T2
X76.0Y-135.0
X76.0Y-137.0
X88.0Y-135.0
X88.0Y-137.0
T3
X125.0Y-65.0
X125.0Y-72.62
T4
X95.0Y-50.0
X97.54Y-50.0
X99.0Y-91.52
X99.0Y-94.06
X99.0Y-96.6
X99.0Y-99.14
X99.0Y-101.68
X99.0Y-104.22
X99.0Y-106.76
X99.0Y-109.3
X99.0Y-111.84
X99.0Y-114.38
X99.0Y-116.92
X99.0Y-119.46
X99.0Y-122.0
X99.0Y-124.54
X99.0Y-127.08
X99.0Y-129.62
X99.0Y-132.16
X99.0Y-134.7
X99.0Y-137.24
X99.0Y-139.78
X100.08Y-50.0
X102.62Y-50.0
X105.16Y-50.0
X122.0Y-91.52
X122.0Y-94.06
X122.0Y-96.6
X122.0Y-99.14
X122.0Y-101.68
X122.0Y-104.22
X122.0Y-106.76
X122.0Y-109.3
X122.0Y-111.84
X122.0Y-114.38
X122.0Y-116.92
X122.0Y-119.46
X122.0Y-122.0
X122.0Y-124.54
X122.0Y-127.08
X122.0Y-129.62
X122.0Y-132.16
X122.0Y-134.7
X122.0Y-137.24
X122.0Y-139.78
M30
